<svg xmlns="http://www.w3.org/2000/svg" fill="none" viewBox="0 0 1441 600"><path fill="#D7DFF5" fill-rule="evenodd" d="M546.707 264.619a8.63 8.63 0 0 0-6.887-3.418 8.64 8.64 0 0 0-7.31 4.028c-1.721-.473-3.665-.74-5.721-.74-6.273 0-11.49 2.476-12.572 5.741a4.133 4.133 0 1 0 .046 8.254v.007h42.764a5.145 5.145 0 1 0-1.332-10.116c-1.741-1.917-5.039-3.334-8.988-3.756m-305.209 0a8.63 8.63 0 0 0-6.887-3.418 8.64 8.64 0 0 0-7.31 4.028c-1.721-.473-3.665-.74-5.721-.74-6.273 0-11.49 2.476-12.572 5.741a4.133 4.133 0 1 0 .046 8.254v.007h42.764a5.145 5.145 0 1 0-1.332-10.116c-1.741-1.917-5.039-3.334-8.988-3.756m681.515 0a8.63 8.63 0 0 0-6.886-3.418 8.64 8.64 0 0 0-7.311 4.028c-1.721-.473-3.664-.74-5.721-.74-6.272 0-11.489 2.476-12.572 5.741a4.133 4.133 0 1 0 .046 8.254v.007h42.764a5.144 5.144 0 1 0 0-10.29c-.46 0-.906.061-1.331.174-1.741-1.917-5.04-3.335-8.989-3.756m-541.959-91.581a11.46 11.46 0 0 0-9.144-4.539 11.47 11.47 0 0 0-9.706 5.348c-2.285-.628-4.865-.981-7.596-.981-8.328 0-15.254 3.287-16.692 7.623a5.488 5.488 0 1 0 .061 10.957v.011h56.779v-.001a6.831 6.831 0 1 0-1.768-13.431c-2.312-2.545-6.691-4.427-11.934-4.987m-44.434 91.459c2.872-1.936 7.254-3.173 12.164-3.173 7.839 0 14.334 3.155 15.486 7.274a5.144 5.144 0 1 1 1.985 9.893h-42.764v-.007a4.134 4.134 0 1 1-.046-8.253c1.083-3.265 6.3-5.741 12.572-5.741q.303 0 .603.007m509.672-93.786c4.865-3.279 12.285-5.374 20.599-5.374 13.276 0 24.275 5.343 26.225 12.318a8.713 8.713 0 1 1 3.363 16.753v.001h-72.421v-.012a7 7 0 0 1-7.427-6.986 7 7 0 0 1 7.349-6.99c1.833-5.53 10.668-9.723 21.29-9.723q.514 0 1.022.013m282.898 14.854c-4.86-3.279-12.28-5.374-20.6-5.374-13.27 0-24.27 5.343-26.22 12.318a8.7 8.7 0 0 0-3.36-.673c-4.82 0-8.72 3.901-8.72 8.713s3.9 8.713 8.72 8.713v.001h72.42v-.012q.21.013.42.013c3.87 0 7-3.134 7-6.999a6.997 6.997 0 0 0-7.35-6.991c-1.83-5.529-10.66-9.722-21.29-9.722q-.51 0-1.02.013M29.22 264.497c2.872-1.936 7.254-3.173 12.163-3.173 7.84 0 14.335 3.154 15.486 7.273a5.145 5.145 0 1 1 1.986 9.893h-17.31l-.162.001-.16-.001h-12.46l-.146.001-.146-.001h-12.38v-.007a4.133 4.133 0 1 1-.046-8.253c1.083-3.265 6.3-5.741 12.572-5.741q.303 0 .602.008m585.625-73.17c4.285-2.888 10.822-4.733 18.145-4.733 11.694 0 21.382 4.706 23.099 10.849a7.674 7.674 0 1 1 2.962 14.757v.001h-63.787v-.012a6.165 6.165 0 1 1-.069-12.31c1.615-4.87 9.397-8.563 18.752-8.563q.452 0 .898.011m-540.739-38.06c-4.285-2.888-10.822-4.734-18.145-4.734-11.694 0-21.382 4.706-23.099 10.85a7.675 7.675 0 1 0-2.962 14.756v.001h63.787v-.011q.188.01.378.011a6.165 6.165 0 1 0-.309-12.322c-1.615-4.87-9.396-8.563-18.752-8.563q-.451 0-.898.012m640.973 119.039a6.104 6.104 0 0 1-2.29 11.76v.001h-50.722v-.017a3.756 3.756 0 0 1-.907-7.456 7 7 0 0 1-.048-.831c0-4.586 4.294-8.303 9.59-8.303 2.222 0 4.268.654 5.894 1.753 1.626-1.099 3.672-1.753 5.894-1.753q.89 0 1.735.135a10.24 10.24 0 0 1 8.156-4.037c2.28 0 4.386.744 6.088 2.003a28 28 0 0 1 1.703-.052c7.431 0 13.614 2.93 14.907 6.797m408.262 0a6.11 6.11 0 0 1 3.81 5.658 6.1 6.1 0 0 1-6.1 6.102v.001h-50.73v-.017q-.165.017-.36.017a3.754 3.754 0 0 1-3.75-3.756 3.755 3.755 0 0 1 3.21-3.717c-.03-.273-.05-.55-.05-.831 0-4.586 4.29-8.303 9.59-8.303 2.22 0 4.27.654 5.89 1.753 1.63-1.099 3.67-1.753 5.9-1.753.59 0 1.17.046 1.73.135a10.25 10.25 0 0 1 8.16-4.037c2.28 0 4.38.744 6.09 2.003.56-.034 1.12-.052 1.7-.052 7.43 0 13.61 2.93 14.91 6.797" clip-rule="evenodd" opacity=".5"/><path fill="#03445F" d="M667.988 338.388c.659 3.687-5.431 6.364-8.558 7.242l2.186 1.229-6.22 2.006h82.864l-12.44-6.22h3.411l-4.815-2.595c3.21-.554 10.112-2.817 12.038-7.437-8.186-2.889-13.71-12.305-15.449-16.653 1.003-.133 3.571-.762 5.818-2.207-6.902-2.728-11.289-9.974-12.62-13.255 1.532-.268 4.831-1.197 5.765-2.774-2.335 0-3.795-.875-4.233-1.313.536-.389 2.613-1.62 6.641-3.43-2.554.219-11.165-1.97-12.478-4.233-1.051-1.809 2.189-2.164 3.94-2.116-.438-.048-1.839-.379-3.94-1.313-2.628-1.168 1.094-1.168 3.94-2.992-3.43 1.021-4.159-1.898-1.824-3.868-2.219.467-5.254-1.265-6.495-2.189.414-.17 1.664-.774 3.357-1.825-5.181.219-10.581-4.451-10.581-15.105 0 10.508-6.033 15.908-9.049 17.295.292.146 1.386.511 3.43.803-.409 1.109-5.863 4.208-8.538 5.619.267.316 1.123 1.211 2.408 2.262-1.226 2.393-8.636 6.543-12.187 8.319 1.192 1.897 4.145 5.925 6.422 6.86-1.168.875-3.26 1.629-4.16 1.897.511.34 2.35 1.357 5.619 2.7-1.459 5.079-9.851 12.333-13.865 15.325.681-.146 2.832-.438 5.984-.438-1.284 2.86-8.222 6.64-11.53 8.173.56 1.338 2.452 4.597 5.546 6.933-1.518.992-4.33 3.721-5.546 4.962.924-.414 3.25-1.325 5.159-1.662"/><path fill="#206E83" d="M861.418 339.484c.589 3.301-4.864 5.698-7.664 6.484l1.958 1.1-5.569 1.797h74.197l-11.138-5.57h3.054l-4.312-2.323c2.875-.496 9.055-2.522 10.779-6.659-7.329-2.587-12.276-11.019-13.833-14.912.898-.12 3.198-.682 5.21-1.976-6.18-2.443-10.109-8.931-11.301-11.87 1.373-.239 4.326-1.071 5.163-2.483-2.091 0-3.398-.784-3.79-1.176.479-.349 2.339-1.451 5.946-3.071-2.287.196-9.998-1.764-11.174-3.79-.941-1.621 1.961-1.939 3.529-1.895-.392-.044-1.647-.34-3.529-1.176-2.352-1.045.98-1.046 3.529-2.679-3.071.914-3.725-1.699-1.634-3.463-1.986.418-4.705-1.133-5.815-1.961.37-.152 1.489-.692 3.005-1.633-4.639.196-9.474-3.986-9.474-13.526 0 9.409-5.402 14.244-8.103 15.486.261.131 1.242.457 3.071.719-.366.993-5.249 3.768-7.645 5.031.24.283 1.006 1.085 2.156 2.026-1.097 2.143-7.732 5.859-10.912 7.449 1.067 1.699 3.712 5.306 5.75 6.142-1.045.785-2.918 1.46-3.724 1.699.457.305 2.104 1.216 5.031 2.418-1.307 4.548-8.821 11.043-12.415 13.722.61-.131 2.535-.392 5.358-.392-1.15 2.561-7.362 5.946-10.324 7.318.501 1.198 2.195 4.117 4.966 6.208-1.359.889-3.877 3.333-4.966 4.444.828-.371 2.91-1.187 4.62-1.488m-435.824-11.66c1.121 6.281-9.254 10.843-14.582 12.339l3.725 2.092-10.596 3.419h141.176l-21.193-10.597h5.811l-8.204-4.422c5.469-.944 17.228-4.799 20.51-12.67-13.947-4.922-23.359-20.966-26.321-28.372 1.709-.228 6.084-1.299 9.913-3.76-11.759-4.649-19.234-16.993-21.502-22.584 2.611-.457 8.231-2.04 9.822-4.726-3.978 0-6.465-1.492-7.211-2.238.912-.663 4.451-2.76 11.314-5.843-4.351.373-19.022-3.357-21.26-7.211-1.79-3.083 3.73-3.688 6.714-3.606-.746-.082-3.133-.646-6.714-2.237-4.476-1.989 1.865-1.99 6.714-5.098-5.844 1.741-7.087-3.233-3.109-6.589-3.779.795-8.951-2.155-11.065-3.73.705-.29 2.835-1.318 5.719-3.109-8.827.373-18.027-7.584-18.027-25.736 0 17.904-10.278 27.104-15.417 29.467.497.248 2.362.87 5.843 1.367-.696 1.89-9.987 7.17-14.546 9.573.456.539 1.914 2.064 4.103 3.855-2.089 4.078-14.713 11.148-20.763 14.173 2.03 3.233 7.062 10.096 10.941 11.688-1.99 1.491-5.554 2.776-7.087 3.232.87.58 4.003 2.312 9.573 4.6-2.486 8.654-16.784 21.012-23.622 26.109 1.16-.248 4.824-.746 10.195-.746-2.188 4.874-14.008 11.314-19.644 13.925.953 2.28 4.177 7.833 9.449 11.812-2.586 1.69-7.377 6.34-9.449 8.454 1.575-.705 5.537-2.257 8.79-2.831m586.046 19.4c1.12 6.281-9.25 10.842-14.581 12.338l3.721 2.093-10.592 3.418h141.172l-21.19-10.597h5.81l-8.2-4.422c5.47-.943 17.23-4.798 20.51-12.669-13.95-4.923-23.36-20.966-26.32-28.373 1.71-.227 6.08-1.299 9.91-3.76-11.76-4.649-19.23-16.993-21.5-22.584 2.61-.456 8.23-2.04 9.82-4.725-3.98 0-6.46-1.492-7.21-2.238.91-.663 4.45-2.76 11.31-5.844-4.35.373-19.02-3.356-21.26-7.211-1.79-3.083 3.73-3.688 6.72-3.605-.75-.083-3.14-.647-6.72-2.238-4.47-1.989 1.87-1.989 6.72-5.098-5.85 1.741-7.09-3.232-3.11-6.589-3.78.796-8.95-2.155-11.07-3.73.71-.29 2.84-1.318 5.72-3.108-8.83.373-18.03-7.584-18.03-25.736 0 17.903-10.27 27.104-15.41 29.466.5.249 2.36.87 5.84 1.368-.7 1.89-9.99 7.169-14.55 9.573.46.539 1.92 2.064 4.11 3.854-2.09 4.078-14.71 11.148-20.77 14.174 2.04 3.232 7.07 10.095 10.95 11.687-1.99 1.492-5.56 2.777-7.09 3.232.87.581 4 2.313 9.57 4.601-2.48 8.653-16.78 21.011-23.62 26.109 1.16-.249 4.82-.746 10.19-.746-2.18 4.873-14 11.314-19.64 13.925.95 2.279 4.18 7.832 9.45 11.811-2.59 1.691-7.38 6.341-9.45 8.454 1.58-.704 5.54-2.257 8.79-2.83m-300.663-10.131c.739 4.142-6.103 7.151-9.617 8.137l2.457 1.38-6.989 2.255h93.106l-13.977-6.989h3.832l-5.41-2.916c3.607-.622 11.362-3.165 13.526-8.356-9.198-3.246-15.405-13.827-17.359-18.711 1.127-.15 4.013-.857 6.538-2.48-7.755-3.066-12.685-11.207-14.18-14.894 1.722-.301 5.428-1.345 6.477-3.116-2.624 0-4.263-.984-4.755-1.476.601-.438 2.935-1.821 7.461-3.854-2.87.246-12.545-2.214-14.021-4.756-1.181-2.033 2.46-2.432 4.428-2.378-.492-.054-2.067-.426-4.428-1.475-2.952-1.312 1.23-1.312 4.428-3.362-3.854 1.148-4.674-2.132-2.05-4.346-2.493.525-5.904-1.421-7.298-2.46.465-.191 1.87-.869 3.772-2.05-5.822.246-11.889-5.001-11.889-16.973 0 11.808-6.778 17.875-10.168 19.433.328.164 1.558.574 3.854.902-.459 1.247-6.587 4.729-9.593 6.314.301.355 1.263 1.361 2.706 2.542-1.378 2.689-9.703 7.352-13.693 9.347 1.339 2.132 4.657 6.658 7.215 7.708-1.312.984-3.662 1.831-4.674 2.132.574.382 2.641 1.525 6.314 3.033-1.64 5.707-11.069 13.858-15.579 17.219.765-.164 3.181-.492 6.724-.492-1.444 3.214-9.238 7.462-12.956 9.184.629 1.503 2.755 5.165 6.232 7.789-1.705 1.115-4.865 4.182-6.232 5.576 1.039-.465 3.652-1.489 5.798-1.867"/><path stroke="#03445F" stroke-linecap="round" stroke-linejoin="round" stroke-width="1.331" d="M722.311 321.463c-.94 1.536-4.278 4.369-10.104 3.418m50.822 10.848c.446-.198 1.813-.297 3.715.892 2.378 1.486-1.486-4.161.892-3.864 2.377.298 5.944 4.161 10.402 0m-36.408-17.386c-.594 1.337-.892 3.863 2.378 6.092s2.526 1.041 2.08-2.526 4.31 3.417 9.065 2.526m-9.065-21.696c.941.298 2.883 1.368 3.121 3.27.297 2.377.297-4.459 1.932-3.27 1.307.952 3.219 1.289 4.012 1.338m-29.126-16.495c1.288.743 4.666 1.783 7.876 0-1.932 4.013 1.783 6.242 4.755 4.31m12.483-9.065c1.139 1.04 3.804 2.942 5.349 2.229"/><path fill="#206E83" d="M604.933 322.106c.811 4.543-6.693 7.842-10.547 8.924l2.695 1.514-7.665 2.472h102.113l-15.33-7.664h4.204l-5.934-3.199c3.956-.682 12.461-3.47 14.835-9.164-10.088-3.56-16.896-15.164-19.038-20.521 1.236-.165 4.401-.94 7.17-2.72-8.506-3.362-13.912-12.291-15.552-16.335 1.888-.33 5.953-1.475 7.104-3.418-2.878 0-4.676-1.079-5.216-1.618.66-.48 3.22-1.997 8.183-4.227-3.147.27-13.758-2.428-15.377-5.216-1.295-2.23 2.698-2.668 4.856-2.608-.54-.06-2.266-.467-4.856-1.618-3.237-1.439 1.349-1.439 4.856-3.687-4.227 1.259-5.126-2.338-2.248-4.766-2.734.575-6.475-1.559-8.004-2.698.51-.21 2.051-.953 4.137-2.248-6.385.269-13.039-5.486-13.039-18.615 0 12.949-7.434 19.604-11.151 21.313.359.179 1.708.629 4.226.989-.503 1.367-7.224 5.186-10.521 6.924.33.39 1.385 1.493 2.967 2.788-1.51 2.95-10.641 8.063-15.017 10.252 1.468 2.338 5.107 7.302 7.913 8.453-1.439 1.079-4.017 2.008-5.126 2.338.63.42 2.896 1.673 6.925 3.327-1.799 6.259-12.14 15.198-17.086 18.885.839-.18 3.489-.54 7.374-.54-1.583 3.525-10.132 8.184-14.209 10.072.69 1.649 3.022 5.666 6.835 8.543-1.871 1.223-5.336 4.587-6.835 6.115 1.139-.509 4.006-1.632 6.358-2.047"/><path fill="#03445F" d="M929.325 340.428c.97 5.431-8.002 9.376-12.61 10.669l3.222 1.81-9.164 2.956h122.077l-18.32-9.164h5.02l-7.09-3.823c4.73-.816 14.9-4.15 17.73-10.956-12.06-4.257-20.2-18.13-22.76-24.535 1.48-.197 5.26-1.123 8.57-3.251-10.16-4.02-16.627-14.695-18.588-19.53 2.258-.394 7.118-1.763 8.498-4.086-3.45 0-5.6-1.29-6.24-1.935.79-.573 3.85-2.387 9.78-5.053-3.76.323-16.446-2.903-18.381-6.236-1.549-2.666 3.225-3.189 5.805-3.117-.645-.072-2.709-.559-5.805-1.935-3.871-1.72 1.612-1.721 5.805-4.409-5.053 1.505-6.128-2.795-2.688-5.698-3.268.688-7.74-1.863-9.568-3.225.609-.251 2.451-1.14 4.945-2.688-7.633.323-15.589-6.558-15.589-22.255 0 15.482-8.887 23.438-13.331 25.481.43.215 2.043.752 5.053 1.182-.602 1.635-8.637 6.2-12.579 8.279.394.465 1.656 1.784 3.548 3.333-1.806 3.526-12.722 9.64-17.954 12.256 1.756 2.795 6.106 8.73 9.461 10.106-1.721 1.29-4.803 2.401-6.129 2.795.753.502 3.462 2 8.279 3.978-2.15 7.483-14.514 18.17-20.427 22.578 1.003-.215 4.171-.645 8.816-.645-1.893 4.214-12.113 9.783-16.987 12.041.824 1.971 3.612 6.773 8.171 10.214-2.237 1.462-6.379 5.483-8.171 7.311 1.361-.61 4.788-1.952 7.601-2.448"/><path fill="#206E83" d="M376.195 337.093c.74 4.142-6.103 7.151-9.616 8.137l2.456 1.38-6.988 2.255h93.106l-13.978-6.989h3.833l-5.411-2.916c3.607-.622 11.362-3.165 13.527-8.356-9.198-3.246-15.405-13.827-17.359-18.711 1.127-.15 4.013-.857 6.538-2.48-7.755-3.066-12.685-11.207-14.181-14.894 1.722-.301 5.428-1.345 6.478-3.116-2.624 0-4.264-.984-4.756-1.476.602-.438 2.936-1.821 7.462-3.854-2.87.246-12.545-2.214-14.021-4.756-1.181-2.033 2.46-2.432 4.427-2.378-.492-.054-2.066-.426-4.427-1.475-2.952-1.312 1.23-1.312 4.427-3.362-3.853 1.148-4.673-2.132-2.049-4.346-2.493.525-5.904-1.421-7.298-2.46.465-.191 1.87-.869 3.772-2.05-5.822.246-11.889-5.001-11.889-16.973 0 11.808-6.779 17.875-10.168 19.433.328.164 1.558.574 3.854.902-.459 1.247-6.587 4.729-9.593 6.314.3.355 1.262 1.361 2.705 2.542-1.377 2.689-9.702 7.352-13.693 9.347 1.34 2.132 4.658 6.658 7.216 7.708-1.312.984-3.663 1.831-4.674 2.132.574.382 2.64 1.525 6.314 3.033-1.64 5.707-11.07 13.858-15.579 17.219.765-.164 3.181-.492 6.723-.492-1.443 3.214-9.238 7.462-12.955 9.184.629 1.503 2.755 5.165 6.232 7.789-1.706 1.115-4.865 4.182-6.232 5.576 1.039-.465 3.652-1.489 5.797-1.867M108.21 322.198c.558 3.128-4.608 5.399-7.261 6.144l1.855 1.042-5.277 1.702h70.299l-10.553-5.277h2.894l-4.086-2.202c2.724-.469 8.579-2.389 10.213-6.308-6.945-2.452-11.631-10.44-13.106-14.128.851-.114 3.03-.647 4.936-1.873-5.855-2.315-9.578-8.461-10.707-11.246 1.3-.227 4.099-1.015 4.891-2.352-1.981 0-3.219-.743-3.591-1.115.454-.33 2.217-1.374 5.634-2.91-2.167.186-9.472-1.671-10.586-3.59-.892-1.536 1.857-1.837 3.343-1.796-.372-.041-1.56-.322-3.343-1.114-2.229-.99.928-.991 3.343-2.538-2.91.866-3.529-1.61-1.548-3.282-1.882.397-4.458-1.073-5.51-1.857.351-.144 1.412-.656 2.848-1.548-4.396.186-8.977-3.776-8.977-12.815 0 8.915-5.118 13.497-7.677 14.673.248.124 1.176.433 2.91.681-.347.941-4.973 3.57-7.243 4.767.227.268.953 1.028 2.043 1.919-1.041 2.031-7.326 5.551-10.339 7.058 1.011 1.61 3.516 5.027 5.448 5.819-.991.743-2.766 1.383-3.529 1.61.433.289 1.993 1.152 4.767 2.291-1.238 4.309-8.358 10.462-11.763 13.001.578-.124 2.402-.372 5.077-.372-1.09 2.427-6.976 5.634-9.782 6.934.475 1.135 2.08 3.9 4.705 5.882-1.288.842-3.673 3.157-4.705 4.209.784-.35 2.757-1.123 4.377-1.409"/><path fill="#03445F" d="M319.263 333.384c.856 4.793-7.061 8.274-11.127 9.415l2.843 1.597-8.086 2.608H410.62l-16.172-8.086h4.435l-6.261-3.374c4.174-.72 13.147-3.662 15.651-9.668-10.643-3.756-17.824-15.998-20.085-21.65 1.304-.174 4.643-.991 7.564-2.869-8.973-3.548-14.676-12.967-16.407-17.234 1.993-.348 6.281-1.556 7.495-3.605-3.036 0-4.933-1.139-5.502-1.708.695-.506 3.396-2.106 8.633-4.459-3.321.285-14.516-2.561-16.223-5.503-1.366-2.352 2.846-2.814 5.123-2.751-.569-.063-2.391-.493-5.123-1.707-3.416-1.518 1.423-1.518 5.123-3.89-4.459 1.328-5.408-2.467-2.372-5.028-2.884.607-6.831-1.645-8.444-2.847.538-.221 2.164-1.005 4.365-2.371-6.736.284-13.757-5.788-13.757-19.639 0 13.662-7.843 20.682-11.764 22.485.38.19 1.803.664 4.459 1.044-.531 1.442-7.621 5.47-11.1 7.305.348.411 1.461 1.574 3.131 2.941-1.594 3.112-11.227 8.507-15.844 10.815 1.55 2.467 5.389 7.704 8.349 8.918-1.518 1.139-4.238 2.119-5.408 2.467.664.443 3.055 1.765 7.305 3.51-1.897 6.603-12.807 16.034-18.025 19.923.885-.189 3.681-.569 7.779-.569-1.67 3.719-10.689 8.633-14.99 10.626.728 1.739 3.188 5.977 7.211 9.013-1.974 1.29-5.629 4.838-7.211 6.451 1.202-.538 4.226-1.722 6.708-2.16m204.206-15.718c.725 4.066-5.99 7.018-9.439 7.987l2.411 1.354-6.859 2.213h91.382l-13.718-6.859h3.761l-5.31-2.863c3.54-.61 11.152-3.106 13.276-8.201-9.028-3.186-15.12-13.57-17.038-18.365 1.107-.147 3.939-.84 6.417-2.433-7.611-3.01-12.45-11-13.918-14.619 1.69-.295 5.328-1.32 6.358-3.059-2.575 0-4.185-.965-4.668-1.448.591-.429 2.881-1.787 7.324-3.783-2.817.242-12.313-2.172-13.762-4.667-1.159-1.996 2.415-2.388 4.346-2.334-.483-.054-2.028-.418-4.346-1.448-2.897-1.288 1.207-1.288 4.346-3.3-3.782 1.127-4.587-2.093-2.012-4.265-2.446.515-5.794-1.395-7.162-2.415.456-.188 1.835-.853 3.702-2.012-5.714.242-11.67-4.909-11.67-16.658 0 11.588-6.652 17.544-9.979 19.073.322.161 1.529.563 3.783.885-.451 1.223-6.465 4.641-9.416 6.197.295.348 1.239 1.336 2.656 2.495-1.352 2.639-9.523 7.216-13.44 9.174 1.315 2.092 4.571 6.535 7.082 7.565-1.288.966-3.595 1.797-4.587 2.092.563.376 2.591 1.497 6.197 2.978-1.61 5.601-10.865 13.601-15.291 16.9.751-.161 3.122-.483 6.599-.483-1.416 3.155-9.067 7.324-12.715 9.014.617 1.475 2.704 5.07 6.116 7.645-1.674 1.094-4.775 4.104-6.116 5.472 1.019-.456 3.584-1.461 5.69-1.832"/><path fill="#206E83" d="M226.372 326.959c1.033 5.788-8.527 9.991-13.437 11.369l3.433 1.928-9.764 3.15H336.69l-19.529-9.764h5.355l-7.56-4.075c5.04-.869 15.875-4.421 18.899-11.674-12.851-4.536-21.523-19.319-24.253-26.144 1.575-.21 5.606-1.197 9.134-3.464-10.835-4.284-17.723-15.659-19.812-20.811 2.405-.42 7.584-1.879 9.05-4.354-3.666 0-5.957-1.374-6.645-2.062.841-.611 4.102-2.543 10.426-5.384-4.01.344-17.528-3.093-19.591-6.645-1.649-2.841 3.437-3.398 6.187-3.322-.688-.076-2.887-.596-6.187-2.062-4.124-1.833 1.719-1.833 6.187-4.697-5.385 1.604-6.53-2.979-2.864-6.072-3.483.733-8.249-1.986-10.196-3.437.649-.267 2.612-1.214 5.27-2.864-8.134.344-16.612-6.988-16.612-23.714 0 16.497-9.47 24.974-14.206 27.151.459.229 2.177.802 5.385 1.26-.642 1.742-9.203 6.607-13.404 8.822.42.496 1.764 1.901 3.781 3.551-1.925 3.758-13.557 10.273-19.132 13.06 1.871 2.979 6.507 9.303 10.081 10.769-1.833 1.375-5.117 2.559-6.53 2.979.802.534 3.689 2.131 8.821 4.239-2.291 7.973-15.465 19.361-21.766 24.058 1.069-.229 4.445-.688 9.394-.688-2.017 4.491-12.908 10.425-18.101 12.831.878 2.101 3.849 7.218 8.707 10.884-2.383 1.558-6.798 5.843-8.707 7.79 1.451-.649 5.102-2.08 8.1-2.608"/><path fill="#03445F" d="M783.383 326.959c1.034 5.788-8.527 9.991-13.436 11.369l3.433 1.928-9.765 3.15h130.087l-19.529-9.764h5.355l-7.56-4.075c5.04-.869 15.875-4.421 18.899-11.674-12.851-4.536-21.524-19.319-24.254-26.144 1.575-.21 5.607-1.197 9.135-3.464-10.835-4.284-17.723-15.659-19.813-20.811 2.406-.42 7.584-1.879 9.051-4.354-3.666 0-5.957-1.374-6.645-2.062.84-.611 4.101-2.543 10.425-5.384-4.009.344-17.528-3.093-19.59-6.645-1.65-2.841 3.437-3.398 6.187-3.322-.688-.076-2.887-.596-6.187-2.062-4.124-1.833 1.719-1.833 6.187-4.697-5.385 1.604-6.531-2.979-2.865-6.072-3.482.733-8.248-1.986-10.196-3.437.65-.267 2.612-1.214 5.27-2.864-8.134.344-16.611-6.988-16.611-23.714 0 16.497-9.471 24.974-14.206 27.151.458.229 2.177.802 5.385 1.26-.642 1.742-9.204 6.607-13.404 8.822.42.496 1.764 1.901 3.78 3.551-1.924 3.758-13.556 10.273-19.132 13.06 1.872 2.979 6.508 9.303 10.082 10.769-1.833 1.375-5.117 2.559-6.53 2.979.802.534 3.689 2.131 8.821 4.239-2.291 7.973-15.466 19.361-21.767 24.058 1.07-.229 4.445-.688 9.394-.688-2.016 4.491-12.907 10.425-18.1 12.831.878 2.101 3.849 7.218 8.706 10.884-2.383 1.558-6.797 5.843-8.706 7.79 1.451-.649 5.102-2.08 8.099-2.608M21.964 315.641c1.034 5.788-8.527 9.991-13.436 11.369l3.433 1.929-9.765 3.15h130.087l-19.529-9.765h5.355l-7.56-4.074c5.04-.87 15.875-4.422 18.899-11.675-12.851-4.535-21.524-19.318-24.254-26.143 1.575-.21 5.607-1.197 9.135-3.465-10.835-4.284-17.723-15.658-19.813-20.81 2.406-.42 7.584-1.879 9.051-4.354-3.666 0-5.957-1.375-6.645-2.062.84-.611 4.102-2.543 10.425-5.385-4.009.344-17.528-3.093-19.59-6.644-1.65-2.841 3.437-3.399 6.187-3.322-.688-.077-2.887-.596-6.187-2.062-4.124-1.833 1.719-1.834 6.187-4.698-5.385 1.604-6.53-2.978-2.865-6.071-3.482.733-8.248-1.986-10.195-3.437.649-.268 2.612-1.215 5.27-2.864-8.135.343-16.612-6.989-16.612-23.715 0 16.497-9.47 24.975-14.206 27.152.458.229 2.177.802 5.385 1.26-.642 1.741-9.204 6.606-13.404 8.821.42.497 1.764 1.902 3.78 3.552-1.924 3.757-13.556 10.272-19.132 13.06 1.872 2.979 6.508 9.302 10.082 10.769-1.833 1.375-5.117 2.558-6.53 2.978.802.535 3.689 2.131 8.821 4.239-2.291 7.974-15.466 19.361-21.767 24.058 1.07-.229 4.445-.687 9.394-.687-2.016 4.491-12.907 10.425-18.1 12.831.878 2.1 3.849 7.217 8.706 10.884-2.383 1.558-6.797 5.842-8.706 7.79 1.45-.649 5.102-2.08 8.1-2.609m124.942 11.637c.83 4.644-6.843 8.018-10.783 9.124l2.755 1.547-7.836 2.528H235.44l-15.672-7.836h4.297l-6.066-3.27c4.044-.698 12.74-3.549 15.166-9.369-10.313-3.64-17.273-15.504-19.463-20.981 1.263-.168 4.499-.96 7.33-2.78-8.695-3.438-14.223-12.567-15.9-16.701 1.931-.337 6.086-1.508 7.263-3.494-2.942 0-4.781-1.103-5.332-1.655.674-.49 3.291-2.041 8.366-4.321-3.218.276-14.066-2.483-15.721-5.333-1.324-2.28 2.758-2.727 4.964-2.666-.551-.061-2.316-.478-4.964-1.655-3.31-1.47 1.379-1.471 4.964-3.769-4.321 1.287-5.24-2.391-2.298-4.873-2.795.588-6.62-1.594-8.183-2.758.521-.215 2.097-.975 4.23-2.299-6.528.276-13.332-5.608-13.332-19.031 0 13.239-7.6 20.043-11.4 21.79.368.183 1.747.643 4.321 1.011-.515 1.398-7.386 5.302-10.757 7.079.337.399 1.416 1.526 3.034 2.85-1.544 3.016-10.879 8.244-15.354 10.481 1.502 2.391 5.223 7.466 8.091 8.643-1.471 1.103-4.107 2.053-5.24 2.39.643.429 2.96 1.71 7.079 3.402-1.839 6.399-12.412 15.538-17.469 19.307.859-.184 3.568-.552 7.539-.552-1.618 3.604-10.358 8.367-14.526 10.298.705 1.685 3.089 5.792 6.987 8.734-1.912 1.25-5.455 4.689-6.987 6.252 1.165-.521 4.095-1.669 6.5-2.093"/><path stroke="#03445F" stroke-linecap="round" stroke-linejoin="round" stroke-width="1.331" d="M244.368 304.078c-1.262 2.06-5.738 5.86-13.552 4.584m68.16 14.549c.598-.266 2.431-.399 4.983 1.196 3.188 1.993-1.993-5.58 1.195-5.182 3.189.399 7.972 5.58 13.951 0m-48.828-23.318c-.797 1.794-1.196 5.181 3.189 8.171s3.388 1.396 2.79-3.388 5.78 4.583 12.157 3.388m-12.157-29.097c1.262.398 3.866 1.833 4.185 4.384.399 3.189.399-5.979 2.591-4.384 1.754 1.276 4.318 1.728 5.381 1.794m-39.062-22.122c1.727.996 6.258 2.391 10.562 0-2.591 5.381 2.392 8.371 6.378 5.78m16.741-12.158c1.528 1.395 5.102 3.947 7.175 2.99m347.245 7.369c1.808 1.957 4.511 8.249 5.148 5.447s-1.273-6.947 1.019-5.447 3.693 5.32 6.241 2.264m-.646 20.988c1.097 1.887 3.642 5.371 5.042 4.219 1.749-1.441-2.161-5.248.617-4.733 2.778.514 4.631 3.19 6.997 1.852m-25.107-9.261c-1.852 1.441-4.733 5.557-6.688 3.91-1.955-1.646 3.498-4.733 1.749-6.585s-3.293 4.322-7.1 2.161m-6.689 22.946c3.293 0 8.129-5.557 9.261-3.087 1.132 2.469-2.263 6.585 0 6.276 1.81-.246 4.595-3.464 5.761-5.041m13.48 7.82c2.058 1.852 5.868 7.82 8.336 5.453s-1.953-4.63-.617-5.968c1.336-1.337 6.789 5.865 11.934 3.19"/><path stroke="#206E83" stroke-linecap="round" stroke-linejoin="round" stroke-width="1.331" d="M968.829 266.249c2.37 2.567 5.914 10.818 6.75 7.144.835-3.674-1.67-9.11 1.336-7.144 3.006 1.967 4.842 6.977 8.182 2.969m-.846 27.521c1.439 2.473 4.776 7.042 6.611 5.531 2.293-1.889-2.833-6.881.809-6.206s6.072 4.182 9.179 2.428m-32.924-12.142c-2.429 1.889-6.207 7.285-8.77 5.127s4.587-6.207 2.293-8.635-4.318 5.667-9.31 2.833m-8.77 30.087c4.318 0 10.659-7.286 12.143-4.048s-2.968 8.635 0 8.23c2.374-.323 6.025-4.542 7.554-6.611m17.675 10.254c2.698 2.429 7.695 10.254 10.93 7.151 3.236-3.103-2.561-6.071-.809-7.825s8.902 7.69 15.648 4.182m-651.735-57.368c1.807 1.957 4.51 8.25 5.147 5.448s-1.273-6.948 1.019-5.448c2.293 1.499 3.694 5.32 6.241 2.264m-.646 20.989c1.098 1.886 3.643 5.371 5.042 4.218 1.749-1.44-2.161-5.247.618-4.733s4.63 3.19 6.996 1.852m-25.106-9.26c-1.852 1.44-4.734 5.556-6.689 3.91-1.955-1.647 3.499-4.734 1.75-6.586s-3.294 4.322-7.101 2.161m-6.689 22.946c3.293 0 8.129-5.556 9.261-3.087 1.132 2.47-2.263 6.585 0 6.277 1.811-.247 4.596-3.464 5.762-5.042m13.479 7.82c2.058 1.852 5.869 7.82 8.337 5.453s-1.954-4.63-.618-5.968c1.336-1.337 6.79 5.866 11.934 3.19M64.377 234.315c2.66 2.88 6.636 12.137 7.573 8.015.937-4.123-1.874-10.221 1.5-8.015 3.372 2.206 5.433 7.828 9.18 3.331m-.95 30.878c1.615 2.775 5.36 7.902 7.418 6.207 2.573-2.12-3.179-7.721.908-6.964 4.088.757 6.812 4.693 10.294 2.725m-36.937-13.624c-2.724 2.119-6.963 8.174-9.84 5.752s5.147-6.963 2.574-9.688-4.845 6.358-10.446 3.179m-9.84 33.758c4.844 0 11.959-8.175 13.624-4.542s-3.33 9.689 0 9.234c2.663-.363 6.76-5.096 8.476-7.417m19.83 11.505c3.028 2.725 8.635 11.505 12.265 8.023s-2.873-6.812-.908-8.78 9.989 8.628 17.557 4.693"/><path stroke="#03445F" stroke-linecap="round" stroke-linejoin="round" stroke-width="1.331" d="M472.999 241.932c.826 1.98 2.707 5.478 3.631 3.63 1.154-2.31-.331-7.261 3.629-3.63 3.168 2.904 6.271 2.53 7.426 1.979m9.075 21.121c-1.54-1.1-5.181-3.07-7.425-2.145-2.805 1.155 4.125 7.425 0 7.755-3.301.264-7.976-4.4-9.901-6.765m-8.91-5.446c-1.65 2.915-5.643 8.317-8.415 6.601-3.465-2.145.825-7.426-3.135-4.291-3.168 2.509-6.16 3.136-7.259 3.136m39.6 23.76c.715 2.42 3.201 7.161 7.425 6.765 5.28-.495-2.145-9.075 2.475-6.765 3.696 1.848 9.57 2.86 12.045 3.135m-40.261-2.31c-1.925 3.19-6.171 8.844-7.755 5.94-1.98-3.63-1.485-3.795-5.28 0s-10.394 6.765-8.249 0 1.319-4.29-2.971-2.145c-3.432 1.716-6.93 2.145-8.25 2.145m18.48 22.415c-2.598 1.508-8.586 5.004-11.752 6.926-3.958 2.403-5.371 0-2.686-1.979s-.424-5.653-2.826-2.827c-1.923 2.262-4.476 2.827-5.513 2.827"/><path stroke="#206E83" stroke-linecap="round" stroke-linejoin="round" stroke-width="1.331" d="M555.576 262.767c.49 1.176 1.607 3.253 2.155 2.156.686-1.372-.196-4.311 2.155-2.156 1.881 1.725 3.723 1.503 4.409 1.176m5.388 12.539c-.915-.653-3.076-1.822-4.409-1.273-1.665.685 2.449 4.408 0 4.604-1.959.156-4.735-2.613-5.877-4.017m-5.29-3.232c-.98 1.73-3.351 4.937-4.996 3.918-2.058-1.273.489-4.408-1.862-2.547-1.881 1.489-3.657 1.861-4.31 1.861m23.511 14.107c.424 1.436 1.9 4.251 4.408 4.016 3.135-.294-1.273-5.388 1.469-4.016 2.195 1.097 5.682 1.698 7.152 1.861m-23.903-1.371c-1.143 1.893-3.664 5.25-4.604 3.526-1.176-2.155-.882-2.253-3.135 0s-6.171 4.017-4.898 0c1.274-4.016.783-2.547-1.764-1.273-2.037 1.018-4.114 1.273-4.898 1.273m10.972 13.308c-1.542.895-5.097 2.971-6.977 4.112-2.35 1.427-3.189 0-1.595-1.175 1.595-1.174-.251-3.356-1.678-1.678-1.141 1.343-2.657 1.678-3.272 1.678M183.89 261.33c.557 1.337 1.828 3.7 2.452 2.452.779-1.561-.223-4.904 2.451-2.452 2.14 1.961 4.235 1.709 5.015 1.337m6.129 14.264c-1.041-.743-3.5-2.073-5.015-1.449-1.894.78 2.786 5.015 0 5.237-2.229.179-5.386-2.971-6.686-4.568m-6.018-3.678c-1.114 1.969-3.811 5.617-5.683 4.458-2.34-1.449.557-5.015-2.117-2.898-2.14 1.694-4.16 2.118-4.903 2.118m26.744 16.046c.483 1.635 2.162 4.837 5.015 4.569 3.566-.334-1.449-6.129 1.671-4.569 2.496 1.248 6.464 1.932 8.135 2.118m-27.19-1.561c-1.3 2.155-4.168 5.973-5.238 4.012-1.337-2.451-1.002-2.563-3.565 0s-7.021 4.569-5.572 0 .891-2.897-2.006-1.449c-2.318 1.159-4.681 1.449-5.572 1.449m12.481 15.139c-1.755 1.018-5.799 3.379-7.937 4.677-2.673 1.623-3.628 0-1.814-1.336s-.286-3.819-1.909-1.909c-1.298 1.527-3.023 1.909-3.723 1.909m667.96-72.108c.814 1.953 2.67 5.403 3.581 3.581 1.138-2.279-.326-7.161 3.579-3.581 3.125 2.865 6.184 2.495 7.323 1.953m8.95 20.829c-1.519-1.085-5.11-3.027-7.323-2.116-2.766 1.139 4.068 7.323 0 7.648-3.254.26-7.865-4.339-9.763-6.672m-8.787-5.369c-1.628 2.874-5.566 8.201-8.299 6.509-3.418-2.116.813-7.323-3.092-4.231-3.124 2.473-6.075 3.091-7.16 3.091m39.054 23.433c.705 2.386 3.157 7.062 7.322 6.671 5.207-.488-2.115-8.949 2.441-6.671 3.645 1.822 9.438 2.82 11.879 3.091m-39.705-2.278c-1.898 3.146-6.085 8.722-7.648 5.858-1.952-3.58-1.464-3.742-5.207 0s-10.251 6.672-8.136 0 1.301-4.231-2.929-2.115c-3.385 1.692-6.835 2.115-8.136 2.115m18.225 22.107c-2.563 1.486-8.468 4.934-11.59 6.83-3.903 2.369-5.297 0-2.649-1.952 2.649-1.951-.418-5.575-2.788-2.788-1.895 2.231-4.414 2.788-5.436 2.788m52.404-2.788c7.323-5.417 5.543 2.091 13.54 0 7.997-2.09 2.461-12.519 10.055-4.866 6.075 6.123 8.513 5.796 8.972 4.866"/><path stroke="#03445F" stroke-linecap="round" stroke-linejoin="round" stroke-width="1.331" d="M1059.07 259.587c.82 1.953 2.67 5.403 3.58 3.58 1.14-2.278-.32-7.16 3.58-3.58 3.13 2.864 6.18 2.495 7.32 1.953m8.95 20.828c-1.51-1.085-5.11-3.026-7.32-2.115-2.77 1.139 4.07 7.322 0 7.648-3.25.26-7.86-4.339-9.76-6.672m-8.79-5.37c-1.63 2.875-5.56 8.202-8.3 6.509-3.42-2.115.82-7.322-3.09-4.231-3.12 2.474-6.07 3.092-7.16 3.092m39.05 23.432c.71 2.387 3.16 7.063 7.33 6.672 5.2-.488-2.12-8.95 2.44-6.672 3.64 1.823 9.44 2.821 11.88 3.092m-39.71-2.278c-1.9 3.146-6.08 8.722-7.65 5.858-1.95-3.58-1.46-3.743-5.2 0-3.75 3.743-10.25 6.672-8.14 0 2.12-6.672 1.3-4.231-2.93-2.115-3.38 1.692-6.83 2.115-8.14 2.115m18.23 22.106c-2.56 1.487-8.47 4.935-11.59 6.83-3.9 2.37-5.3 0-2.65-1.951s-.42-5.576-2.79-2.788c-1.89 2.23-4.41 2.788-5.43 2.788m52.4 0c2.02-2.066 7.42-4.958 12.91 0 6.86 6.198 1.47-6.97 4.9-4.879s8.81 7.667 16.65 4.879"/><path fill="#D7DFF5" stroke="#3C5AA3" stroke-width="1.331" d="M522.385 336.203c-67.92 6.81-171.724-19.797-274.955-21.942-99.992-2.079-164.326 8.786-245.234 10.78v150.958H1440.73v-143.58c-74.3 12.358-207.27 36.469-306.76 34.048-124.36-3.027-203.469-52.21-394.435-52.206-85.492.002-149.231 15.132-217.15 21.942Z"/><path fill="#D7DFF5" stroke="#3C5AA3" stroke-width="1.331" d="M1050.57 336.871c-130.671 0-313.75 49.304-337.832 64.47v81.279h593.822v-56.742c-30.89-23.345-125.33-89.007-255.99-89.007Zm-686.265 30.093c-107.387 0-173.816 27.671-193.608 41.506v74.151h403.994v-51.766c-25.385-21.297-102.999-63.891-210.386-63.891Z"/><path fill="#EDF3FF" stroke="#728FC0" stroke-width="1.331" d="M1440.73 640.998H.732V425.004s99.28-34.818 213.66 0c129.558-39.26 323.363-70.942 513.465-69.14 195.917 1.858 387.903 38.534 501.573 88.118 32.18-15.93 135.04-25.747 211.3-8.917z"/><mask id="a" width="138" height="94" x="401" y="268" maskUnits="userSpaceOnUse" style="mask-type:alpha"><path fill="#D9D9D9" d="M468.837 268.592c-37.728 0-73.137 30.138-66.507 85.39.494 1.112 1.897 3.253 3.561 2.92 2.079-.416 10.813.297 14.437 4.515 3.268-.594 4.932-1.545 8.556-.772s4.218-2.436 8.437-2.555 11.169-2.971 13.308-2.198c2.139.772 6.92 3.771 9.235 3.666s2.315-1.343 7.261-2c4.946-.656 8.945-2.963 14.101-2.315s12.734.105 17.469-.736c4.736-.842 21.257-1.579 25.572.736v-4.525c.66.005 2.133-.117 2.739-.637.759-.65 1.68-1.137 3.034-.92s2.654.92 3.683.92.758-1.408 1.842-1.516l.054-.006c1.08-.107 2.587-.256 2.534-3.618 0-48.22-31.589-76.349-69.316-76.349"/></mask><g mask="url(#a)"><path fill="#fff" d="M387.061 261.734h170.113v113.892H387.061z"/><path fill="#BBDEFE" d="M465.684 357.111c0 27.506 36.856 51.205 9.35 51.205s-49.804-22.298-49.804-49.803c0-27.506 20.616-57.543 50.981-43.239-11.876 12.957-13.226 22.134-10.527 41.837"/><path fill="#BBDEFE" d="M467.525 267.435c-34.286 0-62.08 30.846-62.08 68.896.003 6.068.748 19.578 3.703 25.065s-8.76-.387-14.986-4.01v-72.538l46.417-26.875zm27.744 56.62c-17.995 0-18.909 20.418-17.118 30.627l33.244 1.981c2.122-10.87 1.868-32.608-16.126-32.608"/><path stroke="#3C5AA3" stroke-width="1.331" d="M521.723 335.052c3.323-.12 10.884-1.455 14.548-5.837m-110.689-39.451c.954-2.087 3.959-7.175 8.351-10.825m22.346 14.924c.49-4.201 2.289-13.81 5.567-18.634"/><path stroke="#3C5AA3" stroke-width="1.331" d="M535.102 348.072c.06-4.19-.377-13.237-2.604-15.895m-35.671-42.542c-2.505-4.234-8.831-13.524-14.098-16.809"/><path stroke="#3A579D" stroke-width="1.331" d="M523.601 354.237c-1.169-.405-2.71-.68-4.412-.866-2.262-.246-4.906-.345-7.55-.345-5.279 0-10.637.395-13.06.825-4.694.835-12.2 1.369-17.269.732-2.702-.34-5.086.098-7.378.684a93 93 0 0 0-1.832.492c-1.658.456-3.288.904-5.062 1.14-2.54.337-3.838.829-4.801 1.258l-.35.158c-.721.329-1.18.538-2.053.578-.45.02-1.085-.113-1.872-.384-.772-.267-1.627-.643-2.496-1.056-.602-.287-1.199-.585-1.773-.871a86 86 0 0 0-.749-.373c-.781-.387-1.514-.736-2.089-.943-.712-.258-1.704-.191-2.718-.031-1.052.166-2.28.461-3.543.776l-.617.154c-2.381.597-4.818 1.207-6.675 1.26-2.201.062-3.523.91-4.619 1.612l-.162.104c-.565.36-1.043.646-1.579.811-.517.159-1.119.213-1.919.042-2.868-.611-4.654-.184-6.701.306-.555.133-1.13.271-1.75.394-1.975-2.094-5.084-3.287-7.895-3.922a27 27 0 0 0-4.12-.598c-1.185-.075-2.19-.046-2.797.075-.497.1-1.046-.153-1.613-.731-.519-.53-.935-1.218-1.168-1.718-3.266-27.415 3.888-48.531 16.469-62.792 12.604-14.287 30.7-21.75 49.389-21.75 18.695 0 35.847 6.967 48.327 19.888 12.478 12.92 20.324 31.834 20.323 55.795l.001.01c.025 1.605-.328 2.251-.631 2.533-.318.296-.735.357-1.304.413l-.054.006h-.001c-.897.089-1.254.758-1.441 1.109l-.02.037c-.109.203-.16.286-.211.336l-.003.003c-.014.014-.028.028-.1.028-.391 0-.873-.138-1.513-.346l-.186-.061c-.562-.185-1.213-.399-1.879-.506-1.607-.257-2.718.342-3.572 1.073-.158.136-.521.273-1.034.365-.48.087-.972.114-1.268.112l-.67-.005z"/><path fill="#3C5AA3" d="M490.571 324.729c-14.57 3.395-13.649 20.629-12.355 30.575 7.699 5.73 16.088 2.089 19.321-.448 0-6.564 1.805-24.61-6.966-30.127"/><path stroke="#3C5AA3" stroke-width="1.331" d="M478.052 354.507c-1.792-10.209-.877-30.627 17.117-30.627s18.249 21.738 16.127 32.607"/><path stroke="#3C5AA3" stroke-width="1.331" d="M523.188 356.82c1.234-18.888-1.479-48.121-27.851-48.121-23.807 0-30.331 21.875-30.331 33.712 0 9.017 1.044 18.016 1.044 18.016"/><path stroke="#3C5AA3" stroke-width="1.331" d="M523.128 362.434c1.545-23.651-2.88-59.877-35.902-59.877-31.942 0-36.953 27.012-36.953 41.834 0 11.29 1.307 22.559 1.307 22.559"/><path stroke="#3C5AA3" stroke-width="1.331" d="m496.555 339.17 15.152 4.037 11.117-.638m-29.74-14.727 15.081 2.408 9.135-9.205m-22.092 2.833-.921-15.082-12.72-6.075c-.333-2.476-1.306-7.984-2.538-10.217m3.08 37.958-10.621-9.488-14.212-4.051c-11.94.323-38.608-.651-49.755-7.129"/><path stroke="#3C5AA3" stroke-width="1.331" d="M439.665 342.618c-.243-6.137.213-19.874 3.979-25.733m-34.431 20.907c-.022-5.727.866-18.844 4.599-25.499m11.024 47.818c-.767-4.104-2.071-13.636-1.15-18.939m-1.959-53.273c9.832 7.068 56.998 9.219 91.413-2.919m-66.218-12.598c5.941 2.612 23.014 5.93 39.484-1.075"/><path stroke="#3C5AA3" stroke-width="1.331" d="M428.943 315.77c.04-4.42 1.644-15.302 7.745-23.468m40.961 53.099-12.445 1.014-15.03-4.73c-6.916 1.335-26.185 1.922-47.93-6.406m109.922-21.785c4.519-.981 14.192-3.904 16.732-7.746"/><path stroke="#3C5AA3" stroke-width="1.331" d="M525.723 308.691c-1.833-4.338-7.545-14.934-15.725-22.619"/><path fill="#3C5AA3" fill-rule="evenodd" d="M511.406 319.458a.666.666 0 0 0-.725 1.117l4.315 2.798.724-1.116zm-3.502.321a.666.666 0 1 0-.695 1.135l6.734 4.119.694-1.136zm-7.809 11.209a.665.665 0 1 1-.834 1.038l-4.009-3.221.833-1.038zm.796 3.429a.665.665 0 1 1-.869 1.008l-6.883-5.934.869-1.008zm-9.371-15.653a.665.665 0 0 0-.823 1.046l4.042 3.18.823-1.046zm-3.517 0a.666.666 0 0 0-.795 1.068l6.331 4.713.795-1.067zm-25.025 21.78a.665.665 0 1 0-.949.933l2.621 2.667.95-.934zm-3.511-.365a.665.665 0 0 0-.898.982l5.824 5.328.899-.983zm-17.369 9.851a.665.665 0 1 0-.898.983l5.824 5.327.899-.982zm4.456 1.672a.665.665 0 0 1 .941.008l2.622 2.666-.949.933-2.622-2.666a.665.665 0 0 1 .008-.941m-6.31 1.234a.666.666 0 0 1 .939-.072l3.369 2.889-.866 1.01-3.37-2.888a.666.666 0 0 1-.072-.939m-4.259-17.952a.665.665 0 0 1 .941.003l2.959 2.98-.945.938-2.958-2.98a.665.665 0 0 1 .003-.941m-3.679 3.036a.666.666 0 0 1 .94-.04l4.251 3.905-.901.98-4.25-3.904a.666.666 0 0 1-.04-.941m.659-3.634a.665.665 0 1 0-.93.952l7.115 6.952.931-.952zm-8.646-25.966a.665.665 0 0 1 .94-.027l4.026 3.805-.915.968-4.025-3.805a.665.665 0 0 1-.026-.941m-4.555 2.039a.664.664 0 0 1 .94-.04l4.251 3.904-.901.98-4.25-3.904a.665.665 0 0 1-.04-.94m2.089-2.617a.666.666 0 0 0-.931.952l7.116 6.952.93-.952zm31.484-22.52a.666.666 0 0 1 .918.208l2.953 4.686-1.126.71-2.953-4.686a.666.666 0 0 1 .208-.918m-3.483 2.797c.308-.2.72-.113.921.195l3.147 4.838-1.116.726-3.147-4.838a.666.666 0 0 1 .195-.921m1.238-3.651a.665.665 0 1 0-1.137.691l5.164 8.503 1.138-.691zm37.655-1.504a.665.665 0 0 1 .896-.285l4.921 2.543-.612 1.183-4.92-2.544a.666.666 0 0 1-.285-.897m-1.587 4.177a.666.666 0 0 1 .893-.298l5.164 2.577-.594 1.191-5.164-2.577a.666.666 0 0 1-.299-.893m.569-2.987a.665.665 0 0 0-.631 1.172l8.761 4.714.631-1.172zm-68.519 69.774a.665.665 0 1 0-.898.983l5.824 5.327.898-.982zm.675 3.053a.664.664 0 1 0-.866 1.01l3.369 2.889.867-1.011zm-15.007-14.43a.667.667 0 0 0 .867-1.011l-3.37-2.888-.866 1.01zm2.508-.57a.667.667 0 0 0 .899-.983l-5.825-5.327-.898.982zm62.273-26.33a.67.67 0 0 0-.888.32.66.66 0 0 0 .305.888l3.883 1.847.582-1.207zm-2.831.737a.67.67 0 0 0-.879.344.66.66 0 0 0 .329.878l6.028 2.667.551-1.222zm50.479-13.529a.667.667 0 0 0-.654 1.16l8.139 4.584.653-1.16zm2.432 3.706a.665.665 0 1 0-.637 1.169l4.63 2.523.637-1.169zm8.849 16.456a.666.666 0 0 0-.743 1.104l7.748 5.217.744-1.105zm2.129 3.889a.665.665 0 1 0-.728 1.114l4.416 2.883.728-1.114z" clip-rule="evenodd"/></g><path stroke="#3C5AA3" stroke-linecap="round" stroke-linejoin="round" stroke-width="1.331" d="M537.872 351.646c-1.787 0-1.497-2.034-4.251-2.234m6.259.205c-.676-.798-1.304-2.212-4.157-1.761"/><path stroke="#3C5AA3" stroke-linecap="round" stroke-linejoin="round" stroke-width="1.331" d="M545.439 345.494c-1.416-2.266-7.62-1.844-8.234 2.31m-144.708 5.213c2.507-2.577 7.699-3.353 11.048 1.823"/><path fill="#fff" d="M725.155 274.681c0 2.302-.76 3.083-4.046 3.083-2.235 0-4.047-1.182-4.047-2.639 0-2.942 1.812-2.639 4.047-2.639s4.046-.106 4.046 2.195M57.698 198.48c0 2.301.76 3.082 4.047 3.082 2.234 0 4.046-1.181 4.046-2.639 0-2.941-1.812-2.638-4.046-2.638s-4.047-.107-4.047 2.195m1027.832-.001c0 2.302.76 3.083 4.05 3.083 2.24 0 4.05-1.182 4.05-2.639 0-2.942-1.81-2.639-4.05-2.639-2.23 0-4.05-.106-4.05 2.195m-644.805 70.319c.757-1.171.628-1.818-1.044-2.9-1.137-.735-2.447-.73-2.927.011-.968 1.497.053 1.939 1.19 2.674s2.024 1.386 2.781.215m-98.604-76.202c-.758-1.171-.628-1.818 1.044-2.9 1.137-.735 2.447-.731 2.927.011.968 1.496-.054 1.938-1.19 2.674-1.137.735-2.024 1.386-2.781.215m1027.839 0c-.76-1.171-.63-1.818 1.04-2.9 1.14-.735 2.45-.731 2.93.011.97 1.496-.05 1.938-1.19 2.674-1.14.735-2.02 1.386-2.78.215m-532.124 6.236c-1.106-1.709-.917-2.654 1.524-4.233 1.659-1.074 3.572-1.067 4.272.015 1.414 2.185-.077 2.83-1.737 3.904-1.659 1.073-2.954 2.023-4.059.314m135.018-76.203c1.105-1.709.916-2.654-1.524-4.233-1.66-1.073-3.573-1.066-4.273.016-1.413 2.184.078 2.83 1.737 3.903 1.66 1.074 2.954 2.023 4.06.314M868.513 270.933c0 1.977-.559 2.267-3.384 2.267-1.92 0-3.477-1.016-3.477-2.268s1.557-2.267 3.477-2.267c1.921 0 3.384.29 3.384 2.268m73.661-76.202c0 1.978.56 2.267 3.384 2.267 1.92 0 3.477-1.015 3.477-2.268 0-1.251-1.557-2.267-3.477-2.267s-3.384.29-3.384 2.268m-259.318 125.95c0 2.172-3.694 3.932-5.865 3.932a3.93 3.93 0 0 1-3.932-3.932c0-2.171.386-3.931 3.932-3.931s5.865 1.76 5.865 3.931M99.998 244.48c0 2.171 3.693 3.932 5.865 3.932a3.93 3.93 0 0 0 3.932-3.932c0-2.172-.387-3.932-3.932-3.932s-5.865 1.76-5.865 3.932m1027.832-.001c0 2.172 3.7 3.932 5.87 3.932s3.93-1.76 3.93-3.932-.39-3.932-3.93-3.932c-3.55 0-5.87 1.761-5.87 3.932m-629.874-34.568c-1.881 1.086-1.558 5.165-.472 7.045a3.93 3.93 0 0 0 5.371 1.44c1.88-1.086 3.211-2.301 1.439-5.371-1.773-3.071-4.457-4.2-6.338-3.114M284.89 133.708c1.88 1.086 1.558 5.165.472 7.046a3.93 3.93 0 0 1-5.371 1.439c-1.881-1.086-3.212-2.301-1.439-5.371 1.772-3.07 4.457-4.2 6.338-3.114m1027.84 0c1.88 1.086 1.56 5.165.47 7.046a3.93 3.93 0 0 1-5.37 1.439c-1.88-1.086-3.21-2.301-1.44-5.371s4.46-4.2 6.34-3.114M503.084 399.451c0 .704 1.198 1.275 1.902 1.275.705 0 1.276-.571 1.276-1.275s-.126-1.275-1.276-1.275-1.902.571-1.902 1.275m-223.322-76.202c0 .705-1.198 1.276-1.903 1.276a1.275 1.275 0 0 1-1.275-1.276c0-.704.125-1.275 1.275-1.275s1.903.571 1.903 1.275m1027.838 0c0 .704-1.2 1.275-1.9 1.275-.71 0-1.28-.571-1.28-1.275s.13-1.275 1.28-1.275 1.9.571 1.9 1.275"/><ellipse cx="642.786" cy="277.898" fill="#fff" rx="1.722" ry="2.105"/><ellipse cx="1.722" cy="2.105" fill="#fff" rx="1.722" ry="2.105" transform="matrix(-1 0 0 1 141.791 199.592)"/><ellipse cx="1.722" cy="2.105" fill="#fff" rx="1.722" ry="2.105" transform="matrix(-1 0 0 1 1169.62 199.591)"/><ellipse cx="534.865" cy="364.266" fill="#fff" rx="2.24" ry="2.739" transform="rotate(-22.393 534.865 364.266)"/><ellipse cx="2.24" cy="2.739" fill="#fff" rx="2.24" ry="2.739" transform="scale(-1 1)rotate(-22.393 597.847 777.464)"/><ellipse cx="2.24" cy="2.739" fill="#fff" rx="2.24" ry="2.739" transform="scale(-1 1)rotate(-22.393 83.926 3373.728)"/><ellipse cx="2.24" cy="2.739" fill="#fff" rx="2.24" ry="2.739" transform="scale(-1 1)rotate(-22.393 407.7 1492.854)"/><ellipse cx="247.984" cy="193.372" fill="#fff" rx="2.24" ry="2.739" transform="rotate(-22.393 247.984 193.372)"/><ellipse cx="1275.83" cy="193.372" fill="#fff" rx="2.24" ry="2.739" transform="rotate(-22.393 1275.83 193.372)"/><ellipse cx="793.73" cy="274.824" fill="#fff" rx="2.501" ry="2"/><ellipse cx="2.501" cy="2" fill="#fff" rx="2.501" ry="2" transform="matrix(-1 0 0 1 9.63 154.458)"/><ellipse cx="2.501" cy="2" fill="#fff" rx="2.501" ry="2" transform="matrix(-1 0 0 1 1019.46 196.621)"/><ellipse cx="592.507" cy="191.968" fill="#fff" rx="2.501" ry="2"/><ellipse cx="2.501" cy="2" fill="#fff" rx="2.501" ry="2" transform="matrix(-1 0 0 1 192.848 113.764)"/><ellipse cx="2.501" cy="2" fill="#fff" rx="2.501" ry="2" transform="matrix(-1 0 0 1 1220.68 113.764)"/><ellipse cx="855.99" cy="354.337" fill="#fff" rx="2.336" ry="1.642"/><ellipse cx="2.336" cy="1.642" fill="#fff" rx="2.336" ry="1.642" transform="matrix(-1 0 0 1 957.035 276.493)"/><ellipse cx="672.523" cy="206.381" fill="#fff" rx="2.336" ry="1.642"/><ellipse cx="2.336" cy="1.642" fill="#fff" rx="2.336" ry="1.642" transform="matrix(-1 0 0 1 112.666 128.536)"/><ellipse cx="2.336" cy="1.642" fill="#fff" rx="2.336" ry="1.642" transform="matrix(-1 0 0 1 1140.5 128.536)"/><ellipse cx="799.067" cy="360.987" fill="#fff" rx=".761" ry=".768"/><ellipse cx=".761" cy=".768" fill="#fff" rx=".761" ry=".768" transform="matrix(-1 0 0 1 2.252 267.063)"/><ellipse cx=".761" cy=".768" fill="#fff" rx=".761" ry=".768" transform="matrix(-1 0 0 1 1012.38 284.017)"/><ellipse cx="801.005" cy="323.256" fill="#fff" rx="2.501" ry="2.428"/><ellipse cx="2.501" cy="2.428" fill="#fff" rx="2.501" ry="2.428" transform="matrix(-1 0 0 1 1012.19 244.626)"/><ellipse cx="413.461" cy="349.017" fill="#fff" rx="2.336" ry="1.642"/><ellipse cx="2.336" cy="1.642" fill="#fff" rx="2.336" ry="1.642" transform="matrix(-1 0 0 1 371.721 271.174)"/><ellipse cx="2.336" cy="1.642" fill="#fff" rx="2.336" ry="1.642" transform="matrix(-1 0 0 1 1399.56 271.173)"/><ellipse cx="679.92" cy="357.827" fill="#fff" rx="1.377" ry="1.336"/><ellipse cx="1.377" cy="1.336" fill="#fff" rx="1.377" ry="1.336" transform="matrix(-1 0 0 1 104.311 280.29)"/><ellipse cx="1.377" cy="1.336" fill="#fff" rx="1.377" ry="1.336" transform="matrix(-1 0 0 1 1132.14 280.29)"/><ellipse cx="419.513" cy="162.524" fill="#fff" rx="1.377" ry="1.336"/><ellipse cx="1.377" cy="1.336" fill="#fff" rx="1.377" ry="1.336" transform="matrix(-1 0 0 1 364.709 84.984)"/><ellipse cx="1.377" cy="1.336" fill="#fff" rx="1.377" ry="1.336" transform="matrix(-1 0 0 1 1392.55 84.984)"/><path fill="#fff" d="M739.667 388.248c0 .939-1.213 1.7-2.405 1.7s-2.157-.761-2.157-1.7.966-1.7 2.157-1.7 2.405.761 2.405 1.7m-696.48-76.201c0 .939 1.213 1.7 2.404 1.7s2.157-.761 2.157-1.7-.966-1.7-2.157-1.7-2.404.761-2.404 1.7m1027.833 0c0 .939 1.22 1.7 2.41 1.7s2.15-.761 2.15-1.7-.96-1.7-2.15-1.7-2.41.761-2.41 1.7M268.279 50.013c-1.105 1.71-.916 2.655 1.524 4.233 1.66 1.074 3.573 1.067 4.273-.015 1.413-2.185-.078-2.83-1.737-3.904s-2.954-2.023-4.06-.314"/><ellipse cx="2.501" cy="2" fill="#fff" rx="2.501" ry="2" transform="matrix(1 0 0 -1 20.448 58.878)"/><ellipse cx="2.336" cy="1.642" fill="#fff" rx="2.336" ry="1.642" transform="matrix(1 0 0 -1 100.629 44.107)"/><path fill="#fff" d="M791.079 45.5c0-2.302-.76-3.083-4.046-3.083-2.235 0-4.047 1.181-4.047 2.639 0 2.941 1.812 2.638 4.047 2.638s4.046.107 4.046-2.195m-284.426 5.883c.757 1.171.628 1.818-1.044 2.9-1.137.735-2.448.73-2.927-.01-.968-1.497.053-1.94 1.19-2.675s2.023-1.386 2.781-.215m532.127-6.236c1.11 1.71.92 2.654-1.52 4.233-1.66 1.074-3.58 1.067-4.28-.015-1.41-2.185.08-2.83 1.74-3.904s2.95-2.023 4.06-.314m-135.018 76.203c-1.106 1.709-.917 2.654 1.524 4.233 1.659 1.073 3.572 1.066 4.272-.016 1.413-2.184-.078-2.83-1.737-3.903-1.66-1.074-2.954-2.023-4.059-.314m30.677-72.101c0-1.978-.56-2.267-3.384-2.267-1.92 0-3.477 1.015-3.477 2.267s1.557 2.268 3.477 2.268c1.921 0 3.384-.29 3.384-2.268M748.78-.501c0-2.172-3.694-3.932-5.866-3.932a3.93 3.93 0 0 0-3.932 3.932c0 2.171.387 3.932 3.932 3.932s5.866-1.76 5.866-3.932m629.88 34.569c1.88-1.086 1.56-5.165.47-7.046a3.93 3.93 0 0 0-5.37-1.44c-1.88 1.087-3.21 2.302-1.44 5.372s4.46 4.2 6.34 3.114M563.886 110.27c-1.881-1.085-1.559-5.165-.473-7.045a3.93 3.93 0 0 1 5.371-1.439c1.881 1.085 3.212 2.3 1.439 5.371-1.772 3.07-4.457 4.199-6.337 3.113"/><ellipse cx="1.722" cy="2.105" fill="#fff" rx="1.722" ry="2.105" transform="matrix(1 0 0 -1 706.988 44.387)"/><ellipse cx="600.789" cy="50.607" fill="#fff" rx="2.24" ry="2.739" transform="rotate(157.607 600.789 50.607)"/><ellipse cx="2.501" cy="2" fill="#fff" rx="2.501" ry="2" transform="matrix(1 0 0 -1 857.152 47.357)"/><ellipse cx="1284.11" cy="52.01" fill="#fff" rx="2.501" ry="2" transform="rotate(180 1284.11 52.01)"/><ellipse cx="2.501" cy="2" fill="#fff" rx="2.501" ry="2" transform="matrix(1 0 0 -1 655.93 130.213)"/><ellipse cx="1204.09" cy="37.597" fill="#fff" rx="2.336" ry="1.642" transform="rotate(180 1204.09 37.597)"/><ellipse cx="2.336" cy="1.642" fill="#fff" rx="2.336" ry="1.642" transform="matrix(1 0 0 -1 736.111 115.442)"/><ellipse cx="1434.88" cy="127.199" fill="#fff" rx="1.377" ry="1.336" transform="rotate(180 1434.88 127.199)"/><ellipse cx="1.377" cy="1.336" fill="#fff" rx="1.377" ry="1.336" transform="matrix(1 0 0 -1 484.064 158.993)"/><path fill="#fff" d="M397.774 38.211c-1.88-1.085-1.558-5.165-.472-7.045a3.93 3.93 0 0 1 5.371-1.44c1.881 1.086 3.212 2.301 1.439 5.371-1.772 3.07-4.457 4.2-6.338 3.114"/></svg>
