<svg width="94" height="129" viewBox="0 0 94 129" fill="none" xmlns="http://www.w3.org/2000/svg">
<path d="M2.70532 95.6625L2.77727 96.1695L3.09559 96.5706C15.8033 112.583 27.8688 121.132 38.8865 124.604C49.9511 128.09 59.7736 126.396 67.8015 122.29C75.7861 118.206 81.9726 111.754 85.9479 105.687C87.9378 102.651 89.4056 99.6633 90.268 97.0551C91.0941 94.5567 91.4885 92.0415 90.8545 90.166C87.6974 80.8261 81.4725 75.9539 77.9925 73.8196C78.9732 70.5641 80.8452 64.0516 81.777 57.9284C82.5117 53.1008 81.6802 49.66 80.6195 46.7944C80.3607 46.0952 80.0889 45.4318 79.8336 44.8124L79.7789 44.6799C79.5407 44.1021 79.3204 43.5679 79.1199 43.0374C78.6913 41.9031 78.3928 40.8842 78.2948 39.8254C77.6885 33.2783 75.7592 24.2766 73.7708 19.2572C75.4251 17.1206 76.5039 14.8262 76.6957 12.517C76.924 9.76942 75.8724 7.23675 73.5601 5.26952C70.5142 2.67829 67.2374 2.23564 64.1864 3.20677C61.6757 4.00591 59.4282 5.72086 57.5641 7.66577C53.376 6.38357 49.0156 6.16267 45.3349 6.37805C42.2449 6.55885 39.5379 7.05333 37.6989 7.54779C36.1709 5.57492 34.0278 3.93362 31.5647 3.11246C28.5365 2.10295 25.0625 2.35631 21.8697 4.68215C18.4661 7.16155 17.8078 10.8542 18.248 13.9532C18.5798 16.2895 19.5634 18.5528 20.7251 20.0869C20.2453 21.2107 19.793 22.6434 19.3539 24.4132C18.7209 26.9641 18.0861 30.3398 17.4509 34.7356C16.6385 40.3575 15.7377 43.1626 14.9794 45.0725C14.8057 45.5099 14.6246 45.9301 14.4437 46.3498C13.8642 47.6943 13.2869 49.0336 12.9641 50.9168C12.5198 53.5086 12.2768 55.497 12.3594 57.5779C12.442 59.6588 12.8462 61.7387 13.5817 64.5336C14.4878 67.9766 15.7126 71.723 16.4044 73.8221C11.1882 77.2905 7.679 81.3023 5.50644 85.0735C3.19801 89.0806 2.32206 92.962 2.70532 95.6625Z" stroke="#03445F" stroke-width="3.77472"/>
</svg>
