<svg xmlns="http://www.w3.org/2000/svg" fill="none" viewBox="0 0 483 480"><ellipse cx="241.396" cy="239.922" fill="url(#a)" rx="240.795" ry="239.626"/><path fill="#fff" d="M394.587 132.532c-9.646 8.221 5.45 23.623 13.781 36.315 5.935 9.041 7.029 20.003 18.595 20.551 14.458.685 6.196-20.551 0-35.626s-22.73-29.461-32.376-21.24M26.75 233.959c0 58.284 23.497 92.203 35.879 87.07 8.146-3.377-8.014-35.087-5.035-83.938 2.492-40.863 24.974-99.216 18.656-106.692-.155-.184-.378-.248-.616-.208-14.671 2.465-48.884 45.963-48.884 103.768"/><ellipse cx="115.513" cy="102.174" fill="#fff" rx="38.15" ry="37.965"/><defs><radialGradient id="a" cx="0" cy="0" r="1" gradientTransform="scale(240.795 239.626)rotate(90 0 1.002)" gradientUnits="userSpaceOnUse"><stop offset=".449" stop-color="#37D7FF" stop-opacity="0"/><stop offset=".981" stop-color="#fff"/></radialGradient></defs></svg>
