<svg width="147" height="78" viewBox="0 0 147 78" fill="none" xmlns="http://www.w3.org/2000/svg">
<mask id="path-1-outside-1_2021_1922" maskUnits="userSpaceOnUse" x="-0.226562" y="-0.0483398" width="147" height="78" fill="black">
<rect fill="white" x="-0.226562" y="-0.0483398" width="147" height="78"/>
<path fill-rule="evenodd" clip-rule="evenodd" d="M110.962 5.13071C113.255 4.89389 115.577 4.89199 117.926 5.125C123.238 5.65182 127.759 7.1318 131.49 9.56495C132.803 10.3657 134.316 11.7537 136.029 13.7288C137.746 15.6529 138.996 17.3501 139.779 18.8204C140.551 20.3928 141.207 22.3663 141.745 24.7408C142.288 27.0642 142.533 29.0226 142.478 30.6162C142.493 30.9788 142.466 31.5176 142.395 32.2327C142.116 35.042 140.964 38.0742 138.939 41.3292C136.797 44.7274 133.962 47.5668 130.435 49.8476C126.959 52.1335 123.367 53.5052 119.659 53.9628C119.45 53.9936 119.215 54.0219 118.954 54.0476C118.122 54.1198 117.578 54.4012 117.323 54.8917C117.068 55.3822 116.682 56.9428 116.163 59.5735C116.046 60.2325 115.942 60.7637 115.85 61.1673C115.245 64.1505 114.36 66.3065 113.197 67.6354C112.085 68.9693 110.313 69.9284 107.882 70.5127C106.504 70.8917 104.742 70.9749 102.597 70.7621C101.371 70.6406 100.26 70.4014 99.2634 70.0447C95.3397 68.5208 93.4112 64.8221 93.4778 58.9486C93.4814 58.6425 93.4874 58.32 93.4958 57.9812C93.2698 58.4749 93.0387 58.9404 92.8026 59.3778C91.3581 62.0533 89.4194 64.3103 86.9862 66.1488C84.2178 68.207 81.2765 69.522 78.1623 70.0938C75.0482 70.6655 70.9896 70.6895 65.9865 70.1657C61.7542 69.6788 58.4582 68.9122 56.0986 67.8657C53.7389 66.8193 51.7556 65.1962 50.1487 62.9963C48.7222 61.0239 47.6281 58.8572 46.8663 56.4962C46.1556 54.1411 45.6152 50.9789 45.2451 47.0097C45.2151 46.6092 45.1955 46.1733 45.1861 45.7021C44.6326 46.3158 44.0473 46.9123 43.4304 47.4915C40.4192 50.3625 37.1307 52.3547 33.5648 53.4683C33.3643 53.5361 33.1383 53.6059 32.8866 53.6779C32.0805 53.8978 31.596 54.2719 31.4329 54.8001C31.2698 55.3284 31.1684 56.933 31.1286 59.6141C31.1315 60.2833 31.1239 60.8247 31.106 61.2381C31.0442 64.2815 30.5599 66.5609 29.653 68.0765C28.7973 69.5879 27.226 70.8485 24.9392 71.8582C23.6506 72.4778 21.9319 72.8749 19.7832 73.0494C18.5553 73.1491 17.4194 73.1126 16.3755 72.9399C12.2424 72.1427 9.68325 68.8487 8.69797 63.058C7.80956 57.8259 6.74834 47.6126 5.51429 32.4181C4.92843 25.2046 4.69004 21.0012 4.79912 19.8079C5.07933 16.2833 6.04409 13.5786 7.69342 11.6937C9.38975 9.75351 12.249 8.18236 16.2712 6.98023C18.4848 6.33697 20.7683 5.91978 23.1217 5.72865C28.4423 5.29652 33.1554 5.94369 37.2609 7.67015C38.6962 8.22304 40.4331 9.31792 42.4714 10.9548C44.5056 12.5405 46.0392 13.9866 47.0723 15.2931C48.0332 16.5932 48.9572 18.247 49.844 20.2547C50.52 18.65 51.129 17.4814 51.671 16.7487C53.0275 14.8381 55.1057 13.1655 57.9058 11.7309C60.7117 10.2453 63.5521 9.3579 66.4271 9.0686C68.4117 8.88356 70.8063 8.95235 73.6108 9.27496C76.8233 9.6445 79.3436 10.1927 81.1717 10.9197C85.2632 12.6304 88.6854 15.2198 91.4381 18.6882C93.0234 20.6272 94.3432 23.0782 95.3973 26.0411C95.573 26.5535 95.7381 27.0667 95.8926 27.5807C96.5733 20.7786 97.0692 16.818 97.3802 15.6988C98.2865 12.2812 99.7196 9.79274 101.68 8.23339C103.696 6.62802 106.79 5.5938 110.962 5.13071Z"/>
</mask>
<path fill-rule="evenodd" clip-rule="evenodd" d="M110.962 5.13071C113.255 4.89389 115.577 4.89199 117.926 5.125C123.238 5.65182 127.759 7.1318 131.49 9.56495C132.803 10.3657 134.316 11.7537 136.029 13.7288C137.746 15.6529 138.996 17.3501 139.779 18.8204C140.551 20.3928 141.207 22.3663 141.745 24.7408C142.288 27.0642 142.533 29.0226 142.478 30.6162C142.493 30.9788 142.466 31.5176 142.395 32.2327C142.116 35.042 140.964 38.0742 138.939 41.3292C136.797 44.7274 133.962 47.5668 130.435 49.8476C126.959 52.1335 123.367 53.5052 119.659 53.9628C119.45 53.9936 119.215 54.0219 118.954 54.0476C118.122 54.1198 117.578 54.4012 117.323 54.8917C117.068 55.3822 116.682 56.9428 116.163 59.5735C116.046 60.2325 115.942 60.7637 115.85 61.1673C115.245 64.1505 114.36 66.3065 113.197 67.6354C112.085 68.9693 110.313 69.9284 107.882 70.5127C106.504 70.8917 104.742 70.9749 102.597 70.7621C101.371 70.6406 100.26 70.4014 99.2634 70.0447C95.3397 68.5208 93.4112 64.8221 93.4778 58.9486C93.4814 58.6425 93.4874 58.32 93.4958 57.9812C93.2698 58.4749 93.0387 58.9404 92.8026 59.3778C91.3581 62.0533 89.4194 64.3103 86.9862 66.1488C84.2178 68.207 81.2765 69.522 78.1623 70.0938C75.0482 70.6655 70.9896 70.6895 65.9865 70.1657C61.7542 69.6788 58.4582 68.9122 56.0986 67.8657C53.7389 66.8193 51.7556 65.1962 50.1487 62.9963C48.7222 61.0239 47.6281 58.8572 46.8663 56.4962C46.1556 54.1411 45.6152 50.9789 45.2451 47.0097C45.2151 46.6092 45.1955 46.1733 45.1861 45.7021C44.6326 46.3158 44.0473 46.9123 43.4304 47.4915C40.4192 50.3625 37.1307 52.3547 33.5648 53.4683C33.3643 53.5361 33.1383 53.6059 32.8866 53.6779C32.0805 53.8978 31.596 54.2719 31.4329 54.8001C31.2698 55.3284 31.1684 56.933 31.1286 59.6141C31.1315 60.2833 31.1239 60.8247 31.106 61.2381C31.0442 64.2815 30.5599 66.5609 29.653 68.0765C28.7973 69.5879 27.226 70.8485 24.9392 71.8582C23.6506 72.4778 21.9319 72.8749 19.7832 73.0494C18.5553 73.1491 17.4194 73.1126 16.3755 72.9399C12.2424 72.1427 9.68325 68.8487 8.69797 63.058C7.80956 57.8259 6.74834 47.6126 5.51429 32.4181C4.92843 25.2046 4.69004 21.0012 4.79912 19.8079C5.07933 16.2833 6.04409 13.5786 7.69342 11.6937C9.38975 9.75351 12.249 8.18236 16.2712 6.98023C18.4848 6.33697 20.7683 5.91978 23.1217 5.72865C28.4423 5.29652 33.1554 5.94369 37.2609 7.67015C38.6962 8.22304 40.4331 9.31792 42.4714 10.9548C44.5056 12.5405 46.0392 13.9866 47.0723 15.2931C48.0332 16.5932 48.9572 18.247 49.844 20.2547C50.52 18.65 51.129 17.4814 51.671 16.7487C53.0275 14.8381 55.1057 13.1655 57.9058 11.7309C60.7117 10.2453 63.5521 9.3579 66.4271 9.0686C68.4117 8.88356 70.8063 8.95235 73.6108 9.27496C76.8233 9.6445 79.3436 10.1927 81.1717 10.9197C85.2632 12.6304 88.6854 15.2198 91.4381 18.6882C93.0234 20.6272 94.3432 23.0782 95.3973 26.0411C95.573 26.5535 95.7381 27.0667 95.8926 27.5807C96.5733 20.7786 97.0692 16.818 97.3802 15.6988C98.2865 12.2812 99.7196 9.79274 101.68 8.23339C103.696 6.62802 106.79 5.5938 110.962 5.13071Z" fill="#03445F"/>
<path d="M117.926 5.125L117.525 9.16767L117.525 9.16767L117.926 5.125ZM110.962 5.13071L110.545 1.0897L110.529 1.0913L110.514 1.093L110.962 5.13071ZM131.49 9.56495L129.27 12.9676L129.322 13.0013L129.375 13.0335L131.49 9.56495ZM136.029 13.7288L132.959 16.3902L132.978 16.4124L132.998 16.4343L136.029 13.7288ZM139.779 18.8204L143.425 17.0291L143.396 16.9698L143.365 16.9115L139.779 18.8204ZM141.745 24.7408L137.783 25.6388L137.786 25.6523L137.789 25.6657L141.745 24.7408ZM142.478 30.6162L138.418 30.4764L138.412 30.6337L138.419 30.7911L142.478 30.6162ZM142.395 32.2327L146.437 32.6337L146.437 32.6336L142.395 32.2327ZM138.939 41.3292L142.376 43.4958L142.382 43.4855L142.389 43.4751L138.939 41.3292ZM130.435 49.8476L128.229 46.4362L128.216 46.4446L128.203 46.4532L130.435 49.8476ZM119.659 53.9628L119.162 49.9309L119.115 49.9367L119.068 49.9436L119.659 53.9628ZM118.954 54.0476L119.305 58.0949L119.33 58.0928L119.354 58.0904L118.954 54.0476ZM116.163 59.5735L112.177 58.7875L112.17 58.8256L112.163 58.8638L116.163 59.5735ZM115.85 61.1673L111.888 60.2681L111.878 60.3136L111.869 60.3594L115.85 61.1673ZM113.197 67.6354L110.14 64.9594L110.108 64.9962L110.077 65.0337L113.197 67.6354ZM107.882 70.5127L106.933 66.5627L106.869 66.5781L106.805 66.5955L107.882 70.5127ZM102.597 70.7621L102.997 66.7195L102.997 66.7195L102.597 70.7621ZM99.2634 70.0447L97.7926 73.8317L97.843 73.8512L97.8939 73.8695L99.2634 70.0447ZM93.4778 58.9486L89.4156 58.9011L89.4156 58.9025L93.4778 58.9486ZM93.4958 57.9812L97.557 58.0815L89.802 56.2901L93.4958 57.9812ZM92.8026 59.3778L89.2278 57.4478L89.2278 57.4478L92.8026 59.3778ZM86.9862 66.1488L89.41 69.409L89.4227 69.3995L89.4353 69.39L86.9862 66.1488ZM78.1623 70.0938L77.4287 66.098L77.4287 66.098L78.1623 70.0938ZM65.9865 70.1657L65.5223 74.2016L65.5429 74.2039L65.5635 74.2061L65.9865 70.1657ZM56.0986 67.8657L57.7455 64.152L57.7455 64.152L56.0986 67.8657ZM50.1487 62.9963L46.8568 65.377L46.8625 65.3848L46.8682 65.3926L50.1487 62.9963ZM46.8663 56.4962L42.9771 57.67L42.9883 57.7069L43.0001 57.7436L46.8663 56.4962ZM45.2451 47.0097L41.1939 47.3128L41.1967 47.3498L41.2001 47.3868L45.2451 47.0097ZM45.1861 45.7021L49.2478 45.6212L49.0435 35.3587L42.1692 42.9813L45.1861 45.7021ZM43.4304 47.4915L40.6498 44.5298L40.6384 44.5405L40.6271 44.5513L43.4304 47.4915ZM33.5648 53.4683L32.3539 49.5905L32.3086 49.6046L32.2637 49.6198L33.5648 53.4683ZM32.8866 53.6779L33.9561 57.5971L33.9797 57.5906L34.0033 57.5839L32.8866 53.6779ZM31.4329 54.8001L27.5512 53.6016L27.5512 53.6016L31.4329 54.8001ZM31.1286 59.6141L27.0666 59.5539L27.066 59.5927L27.0662 59.6314L31.1286 59.6141ZM31.106 61.2381L27.0473 61.0622L27.0453 61.1089L27.0444 61.1556L31.106 61.2381ZM29.653 68.0765L26.1669 65.9906L26.1419 66.0325L26.1178 66.075L29.653 68.0765ZM24.9392 71.8582L23.2983 68.1418L23.238 68.1684L23.1787 68.197L24.9392 71.8582ZM19.7832 73.0494L19.4543 69.0002L19.4543 69.0002L19.7832 73.0494ZM16.3755 72.9399L15.606 76.9289L15.6591 76.9391L15.7124 76.948L16.3755 72.9399ZM8.69797 63.058L4.6928 63.7381L4.69303 63.7394L8.69797 63.058ZM5.51429 32.4181L1.46512 32.747L1.46512 32.747L5.51429 32.4181ZM4.79912 19.8079L8.84475 20.1776L8.84694 20.1537L8.84884 20.1298L4.79912 19.8079ZM7.69342 11.6937L10.7507 14.3689L10.7518 14.3677L7.69342 11.6937ZM16.2712 6.98023L15.1375 3.0791L15.1227 3.08343L15.1078 3.08786L16.2712 6.98023ZM23.1217 5.72865L22.7928 1.67948L22.7928 1.67948L23.1217 5.72865ZM37.2609 7.67015L35.6861 11.415L35.743 11.4389L35.8006 11.4611L37.2609 7.67015ZM42.4714 10.9548L39.9277 14.1224L39.9506 14.1408L39.9738 14.1588L42.4714 10.9548ZM47.0723 15.2931L50.3392 12.8783L50.2999 12.8252L50.259 12.7734L47.0723 15.2931ZM49.844 20.2547L46.1279 21.8962L49.9324 30.5087L53.5879 21.8319L49.844 20.2547ZM51.671 16.7487L54.937 19.1648L54.9606 19.1329L54.9836 19.1005L51.671 16.7487ZM57.9058 11.7309L59.7582 15.3465L59.7825 15.334L59.8067 15.3212L57.9058 11.7309ZM66.4271 9.0686L66.0499 5.02365L66.0351 5.02503L66.0203 5.02652L66.4271 9.0686ZM73.6108 9.27496L73.1466 13.3108L73.6108 9.27496ZM81.1717 10.9197L82.7387 7.17159L82.7059 7.15787L82.6728 7.14472L81.1717 10.9197ZM91.4381 18.6882L88.2561 21.2137L88.2744 21.2368L88.293 21.2596L91.4381 18.6882ZM95.3973 26.0411L99.2403 24.7237L99.2327 24.7015L99.2248 24.6794L95.3973 26.0411ZM95.8926 27.5807L92.0022 28.7505L99.9349 27.9852L95.8926 27.5807ZM97.3802 15.6988L101.294 16.7865L101.301 16.7633L101.307 16.7401L97.3802 15.6988ZM101.68 8.23339L104.209 11.4125L104.21 11.4114L101.68 8.23339ZM118.327 1.08234C115.712 0.822992 113.116 0.824122 110.545 1.0897L111.38 9.17172C113.394 8.96367 115.441 8.96099 117.525 9.16767L118.327 1.08234ZM133.709 6.16229C129.334 3.30883 124.16 1.6608 118.327 1.08234L117.525 9.16767C122.316 9.64283 126.184 10.9548 129.27 12.9676L133.709 6.16229ZM139.098 11.0675C137.274 8.96427 135.44 7.21558 133.605 6.09643L129.375 13.0335C130.166 13.5159 131.358 14.5431 132.959 16.3902L139.098 11.0675ZM143.365 16.9115C142.371 15.0431 140.889 13.0731 139.059 11.0234L132.998 16.4343C134.603 18.2328 135.622 19.6571 136.193 20.7293L143.365 16.9115ZM145.707 23.8427C145.124 21.2692 144.38 18.9719 143.425 17.0291L136.133 20.6117C136.723 21.8137 137.29 23.4633 137.783 25.6388L145.707 23.8427ZM146.538 30.756C146.609 28.6746 146.29 26.3336 145.701 23.8158L137.789 25.6657C138.287 27.7948 138.456 29.3706 138.418 30.4764L146.538 30.756ZM146.437 32.6336C146.513 31.8741 146.565 31.1018 146.536 30.4413L138.419 30.7911C138.419 30.7899 138.42 30.8134 138.419 30.8671C138.418 30.9197 138.416 30.9912 138.411 31.0842C138.402 31.2723 138.383 31.5189 138.352 31.8319L146.437 32.6336ZM142.389 43.4751C144.631 39.8711 146.079 36.2431 146.437 32.6337L138.352 31.8318C138.153 33.8409 137.298 36.2773 135.49 39.1833L142.389 43.4751ZM132.641 53.2591C136.641 50.6727 139.904 47.4162 142.376 43.4958L135.503 39.1627C133.69 42.0385 131.284 44.461 128.229 46.4362L132.641 53.2591ZM120.157 57.9947C124.551 57.4523 128.729 55.8314 132.667 53.242L128.203 46.4532C125.188 48.4356 122.182 49.5581 119.162 49.9309L120.157 57.9947ZM119.354 58.0904C119.664 58.0597 119.965 58.0241 120.251 57.982L119.068 49.9436C118.935 49.9631 118.765 49.984 118.555 50.0048L119.354 58.0904ZM120.928 56.7654C120.628 57.3428 120.178 57.7196 119.79 57.9208C119.451 58.0958 119.237 58.1008 119.305 58.0949L118.603 50.0003C117.14 50.1272 114.9 50.7461 113.719 53.018L120.928 56.7654ZM120.148 60.3596C120.402 59.0722 120.614 58.0966 120.785 57.4076C120.871 57.062 120.937 56.8241 120.985 56.6735C121.047 56.4744 121.034 56.5617 120.928 56.7654L113.719 53.018C113.333 53.7594 113.075 54.7424 112.899 55.4525C112.683 56.3241 112.442 57.4442 112.177 58.7875L120.148 60.3596ZM119.812 62.0665C119.923 61.5741 120.04 60.9724 120.163 60.2833L112.163 58.8638C112.051 59.4925 111.96 59.9534 111.888 60.2681L119.812 62.0665ZM116.253 70.3114C118.108 68.1936 119.174 65.2133 119.831 61.9752L111.869 60.3594C111.315 63.0876 110.613 64.4195 110.14 64.9594L116.253 70.3114ZM108.832 74.4627C111.752 73.7607 114.447 72.4798 116.317 70.2371L110.077 65.0337C109.722 65.4589 108.874 66.0961 106.933 66.5627L108.832 74.4627ZM102.196 74.8048C104.61 75.0443 106.921 74.9904 108.959 74.4298L106.805 66.5955C106.087 66.7931 104.873 66.9055 102.997 66.7195L102.196 74.8048ZM97.8939 73.8695C99.249 74.3547 100.692 74.6557 102.196 74.8048L102.997 66.7195C102.049 66.6255 101.27 66.4482 100.633 66.22L97.8939 73.8695ZM89.4156 58.9025C89.3776 62.2513 89.8977 65.3702 91.272 68.006C92.6963 70.7377 94.9215 72.7166 97.7926 73.8317L100.734 66.2578C99.6815 65.849 98.9806 65.2165 98.4765 64.2496C97.9223 63.1867 97.5114 61.5195 97.5401 58.9947L89.4156 58.9025ZM89.4345 57.8808C89.4258 58.2354 89.4194 58.5756 89.4156 58.9011L97.5401 58.9961C97.5434 58.7094 97.5491 58.4047 97.557 58.0815L89.4345 57.8808ZM96.3774 61.3077C96.6594 60.7853 96.9299 60.2395 97.1896 59.6722L89.802 56.2901C89.6096 56.7103 89.4179 57.0956 89.2278 57.4478L96.3774 61.3077ZM89.4353 69.39C92.332 67.2013 94.6552 64.4976 96.3774 61.3077L89.2278 57.4478C88.061 59.609 86.5068 61.4192 84.5371 62.9075L89.4353 69.39ZM78.896 74.0895C82.6758 73.3954 86.1875 71.8048 89.41 69.409L84.5624 62.8885C82.248 64.6092 79.8771 65.6485 77.4287 66.098L78.896 74.0895ZM65.5635 74.2061C70.754 74.7495 75.2443 74.7599 78.896 74.0895L77.4287 66.098C74.8521 66.5711 71.2253 66.6295 66.4096 66.1253L65.5635 74.2061ZM54.4516 71.5794C57.3514 72.8654 61.1104 73.6941 65.5223 74.2016L66.4508 66.1298C62.398 65.6636 59.565 64.9589 57.7455 64.152L54.4516 71.5794ZM46.8682 65.3926C48.8707 68.134 51.4051 70.2284 54.4516 71.5794L57.7455 64.152C56.0728 63.4102 54.6405 62.2583 53.4291 60.6L46.8682 65.3926ZM43.0001 57.7436C43.8902 60.5023 45.1759 63.0526 46.8568 65.377L53.4405 60.6156C52.2686 58.9951 51.366 57.2121 50.7326 55.2488L43.0001 57.7436ZM41.2001 47.3868C41.582 51.4821 42.155 54.946 42.9771 57.67L50.7556 55.3225C50.1562 53.3362 49.6484 50.4758 49.2901 46.6325L41.2001 47.3868ZM41.1244 45.7829C41.135 46.316 41.1576 46.827 41.1939 47.3128L49.2963 46.7066C49.2727 46.3915 49.2559 46.0307 49.2478 45.6212L41.1244 45.7829ZM46.211 50.4533C46.9081 49.7989 47.5723 49.1221 48.203 48.4228L42.1692 42.9813C41.6928 43.5096 41.1866 44.0258 40.6498 44.5298L46.211 50.4533ZM34.7758 57.3461C39.0023 56.0262 42.8228 53.6839 46.2337 50.4318L40.6271 44.5513C38.0157 47.041 35.2591 48.6832 32.3539 49.5905L34.7758 57.3461ZM34.0033 57.5839C34.303 57.4982 34.5921 57.4094 34.8659 57.3168L32.2637 49.6198C32.1365 49.6628 31.9736 49.7136 31.77 49.7718L34.0033 57.5839ZM35.3146 55.9986C35.1225 56.6206 34.7476 57.0717 34.4011 57.3392C34.0997 57.5718 33.8903 57.615 33.9561 57.5971L31.8172 49.7586C30.4003 50.1453 28.3066 51.155 27.5512 53.6016L35.3146 55.9986ZM35.1907 59.6743C35.2101 58.3623 35.2441 57.3645 35.2889 56.656C35.3114 56.3007 35.3343 56.0547 35.3537 55.8981C35.3794 55.6911 35.3823 55.7793 35.3146 55.9986L27.5512 53.6016C27.3047 54.4 27.2262 55.4134 27.1801 56.1436C27.1234 57.0397 27.0869 58.1848 27.0666 59.5539L35.1907 59.6743ZM35.1647 61.414C35.1866 60.9094 35.1941 60.2965 35.1911 59.5968L27.0662 59.6314C27.0689 60.2702 27.0613 60.7399 27.0473 61.0622L35.1647 61.414ZM33.1391 70.1624C34.5844 67.7471 35.1006 64.6241 35.1677 61.3206L27.0444 61.1556C26.9878 63.9389 26.5354 65.3748 26.1669 65.9906L33.1391 70.1624ZM26.58 75.5746C29.3275 74.3615 31.7496 72.6191 33.1883 70.078L26.1178 66.075C25.845 66.5568 25.1246 67.3355 23.2983 68.1418L26.58 75.5746ZM20.112 77.0986C22.5306 76.9021 24.7941 76.4357 26.6997 75.5194L23.1787 68.197C22.5071 68.5199 21.3332 68.8476 19.4543 69.0002L20.112 77.0986ZM15.7124 76.948C17.1325 77.1829 18.6058 77.2209 20.112 77.0986L19.4543 69.0002C18.5048 69.0774 17.7064 69.0424 17.0385 68.9319L15.7124 76.948ZM4.69303 63.7394C5.25478 67.041 6.3245 70.0165 8.14823 72.3639C10.0383 74.7967 12.5817 76.3455 15.606 76.9289L17.1449 68.951C16.0362 68.7371 15.2334 68.2402 14.5644 67.3791C13.8289 66.4325 13.1264 64.8657 12.7029 62.3766L4.69303 63.7394ZM1.46512 32.747C2.69724 47.9177 3.77012 58.3042 4.6928 63.7381L12.7031 62.3779C11.849 57.3477 10.7994 47.3076 9.56346 32.0893L1.46512 32.747ZM0.753483 19.4381C0.66602 20.3949 0.725784 22.0694 0.840122 24.0854C0.962046 26.2352 1.17112 29.127 1.46512 32.747L9.56346 32.0893C9.2716 28.4957 9.06855 25.679 8.95209 23.6254C8.89378 22.5973 8.85849 21.783 8.8438 21.1699C8.83646 20.8637 8.83467 20.6239 8.83674 20.4428C8.83894 20.25 8.84507 20.1741 8.84475 20.1776L0.753483 19.4381ZM4.63613 9.01845C2.21764 11.7823 1.07114 15.439 0.749396 19.4859L8.84884 20.1298C9.08753 17.1276 9.87054 15.3748 10.7507 14.3689L4.63613 9.01845ZM15.1078 3.08786C10.7682 4.38485 7.06061 6.24545 4.63504 9.0197L10.7518 14.3677C11.7189 13.2616 13.7298 11.9799 17.4345 10.8726L15.1078 3.08786ZM22.7928 1.67948C20.1735 1.89221 17.6201 2.35771 15.1375 3.0791L17.4048 10.8814C19.3495 10.3162 21.3631 9.94735 23.4505 9.77782L22.7928 1.67948ZM38.8357 3.92529C34.021 1.90061 28.6351 1.20499 22.7928 1.67948L23.4505 9.77782C28.2495 9.38806 32.2898 9.98677 35.6861 11.415L38.8357 3.92529ZM45.0151 7.7872C42.8446 6.04419 40.7272 4.65188 38.7212 3.87918L35.8006 11.4611C36.6653 11.7942 38.0216 12.5916 39.9277 14.1224L45.0151 7.7872ZM50.259 12.7734C48.9462 11.1131 47.136 9.43997 44.969 7.75076L39.9738 14.1588C41.8752 15.641 43.1322 16.8601 43.8856 17.8128L50.259 12.7734ZM53.5601 18.6132C52.5922 16.4221 51.5281 14.4868 50.3392 12.8783L43.8054 17.7079C44.5383 18.6995 45.3221 20.072 46.1279 21.8962L53.5601 18.6132ZM48.4051 14.3327C47.5686 15.4634 46.81 16.9927 46.1002 18.6775L53.5879 21.8319C54.2301 20.3074 54.6895 19.4994 54.937 19.1648L48.4051 14.3327ZM56.0533 8.11533C52.8626 9.7501 50.2 11.8031 48.3585 14.397L54.9836 19.1005C55.855 17.8731 57.3489 16.5809 59.7582 15.3465L56.0533 8.11533ZM66.0203 5.02652C62.5734 5.37337 59.2289 6.4336 56.0049 8.14058L59.8067 15.3212C62.1944 14.0571 64.5308 13.3424 66.8338 13.1107L66.0203 5.02652ZM74.0751 5.23907C71.0965 4.89645 68.4035 4.80421 66.0499 5.02365L66.8042 13.1136C68.4199 12.9629 70.516 13.0082 73.1466 13.3108L74.0751 5.23907ZM82.6728 7.14472C80.3681 6.2282 77.4465 5.62689 74.0751 5.23907L73.1466 13.3108C76.2002 13.6621 78.3191 14.1573 79.6705 14.6947L82.6728 7.14472ZM94.6202 16.1626C91.4403 12.1561 87.4622 9.14644 82.7387 7.17159L79.6046 14.6678C83.0643 16.1143 85.9305 18.2836 88.2561 21.2137L94.6202 16.1626ZM99.2248 24.6794C98.0526 21.3846 96.5283 18.4958 94.5833 16.1168L88.293 21.2596C89.5186 22.7586 90.6337 24.7717 91.5699 27.4029L99.2248 24.6794ZM99.7831 26.4109C99.6135 25.8469 99.4325 25.2845 99.2403 24.7237L91.5544 27.3586C91.7134 27.8224 91.8627 28.2864 92.0022 28.7505L99.7831 26.4109ZM93.466 14.6111C93.2149 15.5148 92.982 17.1033 92.744 19.004C92.49 21.0328 92.192 23.7615 91.8503 27.1761L99.9349 27.9852C100.274 24.5977 100.564 21.9451 100.806 20.0133C100.927 19.0462 101.033 18.2821 101.124 17.7082C101.17 17.4217 101.209 17.1982 101.242 17.0302C101.277 16.8515 101.296 16.7824 101.294 16.7865L93.466 14.6111ZM99.1503 5.05431C96.2763 7.34087 94.494 10.7334 93.4534 14.6574L101.307 16.7401C102.079 13.829 103.163 12.2446 104.209 11.4125L99.1503 5.05431ZM110.514 1.093C106.012 1.59263 102.032 2.75984 99.149 5.05535L104.21 11.4114C105.36 10.4962 107.567 9.59496 111.41 9.16842L110.514 1.093Z" fill="#03445F" mask="url(#path-1-outside-1_2021_1922)"/>
</svg>
