<svg width="139" height="70" viewBox="0 0 139 70" fill="none" xmlns="http://www.w3.org/2000/svg">
<mask id="mask0_2021_1933" style="mask-type:alpha" maskUnits="userSpaceOnUse" x="0" y="0" width="139" height="70">
<path fill-rule="evenodd" clip-rule="evenodd" d="M107.062 1.13071C109.355 0.893894 111.676 0.891992 114.026 1.125C119.338 1.65182 123.859 3.1318 127.589 5.56495C128.903 6.36573 130.416 7.7537 132.128 9.72884C133.846 11.6529 135.096 13.3501 135.879 14.8204C136.651 16.3928 137.306 18.3663 137.845 20.7408C138.388 23.0642 138.632 25.0226 138.577 26.6162C138.593 26.9788 138.565 27.5176 138.494 28.2327C138.216 31.042 137.064 34.0742 135.039 37.3292C132.897 40.7274 130.062 43.5668 126.535 45.8476C123.058 48.1335 119.466 49.5052 115.759 49.9628C115.549 49.9936 115.315 50.0219 115.054 50.0476C114.222 50.1198 113.678 50.4012 113.423 50.8917C113.168 51.3822 112.781 52.9428 112.262 55.5735C112.145 56.2325 112.041 56.7637 111.95 57.1673C111.344 60.1505 110.46 62.3065 109.296 63.6354C108.184 64.9693 106.413 65.9284 103.982 66.5127C102.603 66.8917 100.841 66.9749 98.6961 66.7621C97.4703 66.6406 96.3592 66.4014 95.363 66.0447C91.4393 64.5208 89.5108 60.8221 89.5775 54.9486C89.581 54.6425 89.587 54.32 89.5954 53.9812C89.3694 54.4749 89.1383 54.9404 88.9022 55.3778C87.4577 58.0533 85.519 60.3103 83.0858 62.1488C80.3174 64.207 77.3761 65.522 74.2619 66.0938C71.1478 66.6655 67.0892 66.6895 62.0862 66.1657C57.8538 65.6788 54.5578 64.9122 52.1982 63.8657C49.8385 62.8193 47.8552 61.1962 46.2483 58.9963C44.8218 57.0239 43.7277 54.8572 42.966 52.4962C42.2552 50.1411 41.7148 46.9789 41.3447 43.0097C41.3147 42.6092 41.2951 42.1733 41.2857 41.7021C40.7322 42.3158 40.147 42.9123 39.53 43.4915C36.5188 46.3625 33.2303 48.3547 29.6644 49.4683C29.464 49.5361 29.2379 49.6059 28.9862 49.6779C28.1802 49.8978 27.6956 50.2719 27.5325 50.8001C27.3694 51.3284 27.268 52.933 27.2282 55.6141C27.2311 56.2833 27.2236 56.8247 27.2056 57.2381C27.1438 60.2815 26.6595 62.5609 25.7526 64.0765C24.8969 65.5879 23.3257 66.8485 21.0388 67.8582C19.7502 68.4778 18.0315 68.8749 15.8828 69.0494C14.6549 69.1491 13.519 69.1126 12.4751 68.9399C8.34202 68.1427 5.78286 64.8487 4.79758 59.058C3.90917 53.8259 2.84795 43.6126 1.6139 28.4181C1.02804 21.2046 0.789653 17.0012 0.898727 15.8079C1.17894 12.2833 2.1437 9.57855 3.79303 7.69369C5.48936 5.75351 8.34861 4.18236 12.3708 2.98023C14.5844 2.33697 16.8679 1.91978 19.2213 1.72865C24.5419 1.29652 29.255 1.94369 33.3605 3.67015C34.7958 4.22304 36.5327 5.31792 38.571 6.95478C40.6052 8.54048 42.1388 9.9866 43.1719 11.2931C44.1328 12.5932 45.0568 14.247 45.9436 16.2547C46.6196 14.65 47.2287 13.4814 47.7707 12.7487C49.1271 10.8381 51.2053 9.16549 54.0054 7.73091C56.8113 6.24533 59.6517 5.3579 62.5267 5.0686C64.5113 4.88356 66.9059 4.95235 69.7104 5.27496C72.923 5.6445 75.4432 6.19274 77.2713 6.91969C81.3628 8.63035 84.785 11.2198 87.5377 14.6882C89.123 16.6272 90.4428 19.0782 91.4969 22.0411C91.6726 22.5535 91.8377 23.0667 91.9922 23.5807C92.6729 16.7786 93.1688 12.818 93.4798 11.6988C94.3861 8.28121 95.8192 5.79274 97.7792 4.23339C99.7953 2.62802 102.889 1.5938 107.062 1.13071Z" fill="#03445F"/>
</mask>
<g mask="url(#mask0_2021_1933)">
<path fill-rule="evenodd" clip-rule="evenodd" d="M114.028 1.125C111.678 0.891992 109.357 0.893894 107.064 1.13071C102.892 1.5938 99.7976 2.62802 97.7815 4.23339C95.8216 5.79274 94.3884 8.28121 93.4821 11.6988C93.1613 12.8533 92.6438 17.0316 91.9295 24.2335C90.4251 39.4037 89.6418 49.642 89.5798 54.9486C89.5131 60.8221 91.4416 64.5208 95.3653 66.0447C96.3616 66.4014 97.4726 66.6406 98.6985 66.7621C100.844 66.9749 102.606 66.8917 103.984 66.5127C106.415 65.9284 108.186 64.9693 109.299 63.6354C110.462 62.3065 111.347 60.1505 111.952 57.1673C112.043 56.7637 112.148 56.2325 112.265 55.5735C112.783 52.9428 113.17 51.3822 113.425 50.8917C113.68 50.4012 114.224 50.1198 115.056 50.0476C115.317 50.0219 115.552 49.9936 115.761 49.9628C119.469 49.5052 123.061 48.1335 126.537 45.8476C130.064 43.5668 132.899 40.7274 135.041 37.3292C137.066 34.0742 138.218 31.042 138.497 28.2327C138.568 27.5176 138.595 26.9788 138.58 26.6162C138.634 25.0226 138.39 23.0642 137.847 20.7408C137.309 18.3663 136.653 16.3928 135.881 14.8204C135.098 13.3501 133.848 11.6529 132.13 9.72884C130.418 7.7537 128.905 6.36573 127.592 5.56495C123.861 3.1318 119.34 1.65182 114.028 1.125ZM114.553 29.3054C116.35 29.5331 118.055 27.7553 118.361 25.3345C118.668 22.9137 117.461 20.7667 115.664 20.5389C113.868 20.3112 112.163 22.0891 111.856 24.5099C111.549 26.9307 112.757 29.0777 114.553 29.3054Z" fill="#AEEAFD"/>
<path d="M129.256 17.0179C124.992 21.1811 114.573 10.5101 118.838 6.34703C120.489 4.73448 124.16 5.81601 127.037 8.7627C129.914 11.7094 130.907 15.4054 129.256 17.0179Z" fill="white"/>
<path d="M134.541 22.4421C132.179 25.0768 128.115 21.4339 130.476 18.7991C131.391 17.7785 133.043 17.7667 134.165 18.7727C135.287 19.7786 135.456 21.4215 134.541 22.4421Z" fill="white"/>
<path d="M111.722 44.9798C115.467 44.8609 124.252 43.0273 129.427 36.6437" stroke="white" stroke-width="3.10276" stroke-linecap="round"/>
<path d="M97.9221 30.7634C99.6931 11.3542 99.4204 3.9232 111.646 -0.51958L85.8685 -1.22812L80.8931 68.1097L100.68 66.8617C93.8206 63.3229 96.1512 50.1726 97.9221 30.7634Z" fill="#51B8D9"/>
<path fill-rule="evenodd" clip-rule="evenodd" d="M69.7085 5.2753C66.9039 4.95269 64.5094 4.88391 62.5247 5.06894C59.6498 5.35824 56.8093 6.24567 54.0034 7.73125C51.2034 9.16583 49.1252 10.8384 47.7687 12.7491C46.6063 14.3204 45.1357 17.8971 43.3569 23.4791C42.8574 25.1267 42.3877 27.8627 41.9478 31.6871C41.3612 36.7863 41.1595 40.5606 41.3428 43.01C41.7129 46.9793 42.2533 50.1415 42.964 52.4966C43.7258 54.8575 44.8199 57.0242 46.2463 58.9966C47.8533 61.1965 49.8366 62.8196 52.1962 63.8661C54.5559 64.9125 57.8519 65.6792 62.0842 66.166C67.0873 66.6899 71.1459 66.6659 74.26 66.0941C77.3741 65.5223 80.3154 64.2073 83.0839 62.1491C85.517 60.3106 87.4558 58.0536 88.9002 55.3781C90.3447 52.7026 91.6005 48.972 92.6676 44.1864C92.9966 42.6743 93.2491 41.1533 93.425 39.6236C94.1113 33.6575 93.468 27.7968 91.495 22.0415C90.4408 19.0785 89.1211 16.6275 87.5358 14.6885C84.7831 11.2202 81.3609 8.63069 77.2693 6.92003C75.4413 6.19308 72.921 5.64484 69.7085 5.2753ZM68.0701 41.5661C69.8764 41.6928 71.5278 39.1289 71.7586 35.8394C71.9894 32.5499 70.7121 29.7805 68.9058 29.6538C67.0995 29.527 65.4481 32.091 65.2173 35.3805C64.9865 38.67 66.2638 41.4394 68.0701 41.5661Z" fill="#AEEAFD"/>
<path d="M70.7637 61.0303C81.9121 58.5061 86.26 50.4001 87.1708 40.8369" stroke="white" stroke-width="3.10276" stroke-linecap="round"/>
<path d="M47.3257 40.6213C48.8608 54.6566 55.9998 64.2231 71.1724 66.6438C57.1371 79.8019 41.4753 69.3402 39.9219 62.487V6.29097C40.5615 5.46858 52.3036 4.31724 75.7689 6.29097C54.1129 8.20985 45.8822 27.4243 47.3257 40.6213Z" fill="#51B8D9"/>
<path fill-rule="evenodd" clip-rule="evenodd" d="M19.2213 1.72888C16.8679 1.92001 14.5844 2.33721 12.3708 2.98047C8.34861 4.18259 5.48936 5.75374 3.79303 7.69392C2.1437 9.57879 1.17894 12.2835 0.898727 15.8081C0.789653 17.0014 1.02804 21.2048 1.6139 28.4184C2.84795 43.6129 3.90917 53.8262 4.79758 59.0582C5.78286 64.8489 8.34202 68.1429 12.4751 68.9402C13.519 69.1129 14.6549 69.1494 15.8828 69.0496C18.0315 68.8751 19.7502 68.4781 21.0388 67.8584C23.3257 66.8487 24.8969 65.5882 25.7526 64.0767C26.6595 62.5612 27.1438 60.2817 27.2056 57.2383C27.2236 56.8249 27.2311 56.2836 27.2282 55.6143C27.268 52.9332 27.3694 51.3286 27.5325 50.8004C27.6956 50.2721 28.1802 49.8981 28.9862 49.6781C29.2379 49.6062 29.464 49.5363 29.6644 49.4685C33.2303 48.355 36.5188 46.3627 39.53 43.4918C42.5923 40.6167 44.8734 37.3159 46.3731 33.5892C47.783 30.0244 48.3737 26.8351 48.1452 24.0213C48.087 23.305 48.0178 22.7699 47.9376 22.416C47.7064 20.8383 47.1157 18.9552 46.1655 16.7664C45.2112 14.5266 44.2133 12.7022 43.1719 11.2934C42.1388 9.98683 40.6052 8.54072 38.571 6.95502C36.5327 5.31815 34.7958 4.22328 33.3605 3.67038C29.255 1.94392 24.5419 1.29676 19.2213 1.72888ZM25.5807 30.7806C27.3834 30.6089 28.6572 28.5005 28.4259 26.0714C28.1946 23.6422 26.5458 21.8121 24.7432 21.9837C22.9405 22.1553 21.6667 24.2637 21.898 26.6929C22.1293 29.1221 23.7781 30.9522 25.5807 30.7806Z" fill="#AEEAFD"/>
<path d="M8.5065 33.994C7.15423 14.5511 5.698 7.25911 17.0572 0.92038L-8.50275 4.33876L-2.33809 73.581L16.9958 69.1881C9.65879 66.7906 9.85876 53.4369 8.5065 33.994Z" fill="#51B8D9"/>
<path d="M22.4219 49.8403C27.6484 50.7515 30.8125 50.22 31.7413 49.8403V54.2926C30.5884 54.2581 27.1104 53.3194 22.4219 49.8403Z" fill="#51B8D9"/>
<path d="M105.176 48.2451C110.153 50.0812 113.361 50.1273 114.343 49.9208L113.543 54.3005C112.415 54.0593 109.162 52.5104 105.176 48.2451Z" fill="#51B8D9"/>
<path d="M37.2416 15.4201C33.6973 20.2109 21.7082 11.3413 25.2525 6.55044C26.6254 4.69476 30.4221 5.17597 33.7328 7.62525C37.0435 10.0745 38.6144 13.5644 37.2416 15.4201Z" fill="white"/>
<path d="M83.0343 21.8879C78.515 25.7726 68.7937 14.4631 73.3129 10.5785C75.0634 9.0738 78.6586 10.3857 81.3431 13.5087C84.0276 16.6317 84.7847 20.3832 83.0343 21.8879Z" fill="white"/>
<path d="M43.3265 19.9302C41.4161 22.9084 36.822 19.9615 38.7324 16.9833C39.4724 15.8297 41.1007 15.5542 42.3693 16.368C43.6379 17.1818 44.0665 18.7767 43.3265 19.9302Z" fill="white"/>
<path d="M87.9655 27.6358C85.4417 30.1157 81.6163 26.2226 84.1401 23.7427C85.1177 22.7821 86.7665 22.8749 87.8229 23.95C88.8792 25.025 88.9431 26.6752 87.9655 27.6358Z" fill="white"/>
<path d="M24.4002 45.824C28.0785 45.1083 36.4573 41.895 40.5463 34.7667" stroke="white" stroke-width="3.10276" stroke-linecap="round"/>
</g>
</svg>
