<svg width="253" height="80" viewBox="0 0 253 80" fill="none" xmlns="http://www.w3.org/2000/svg">
<mask id="path-1-outside-1_2021_1926" maskUnits="userSpaceOnUse" x="-0.144531" y="-0.530273" width="253" height="81" fill="black">
<rect fill="white" x="-0.144531" y="-0.530273" width="253" height="81"/>
<path fill-rule="evenodd" clip-rule="evenodd" d="M172.435 4.93168C173.821 4.62371 175.335 4.46973 176.978 4.46973C179.852 4.46973 182.804 4.93168 185.832 5.85559C188.861 6.7795 191.427 8.01138 193.531 9.55124C194.077 9.94654 194.597 10.3762 195.091 10.8403C195.549 10.3568 196.064 9.88838 196.635 9.43512C198.175 8.25457 199.741 7.45898 201.332 7.04835C202.102 6.89436 203.077 6.81737 204.258 6.81737C206.875 6.81737 208.877 7.12534 210.263 7.74128C211.238 8.15191 212.496 9.12715 214.036 10.667C215.627 12.2069 216.936 13.721 217.962 15.2096C218.784 16.4928 219.323 17.1344 219.579 17.1344C219.784 17.1344 221.401 15.7228 224.43 12.8998C227.458 10.0254 229.511 8.33156 230.589 7.81827C231.821 7.25366 233.386 6.97136 235.286 6.97136C237.287 6.97136 238.904 7.27932 240.136 7.89526C242.343 8.97316 244.217 10.59 245.757 12.7458C247.348 14.9016 248.272 17.16 248.528 19.5211C248.58 19.7778 248.605 20.1628 248.605 20.676C248.605 23.7044 247.887 26.3222 246.45 28.5293C245.68 29.7612 244.268 31.4037 242.215 33.4568C240.213 35.5099 238.211 37.3064 236.21 38.8463L232.745 41.618V45.6216C232.745 52.243 232.257 57.8378 231.282 62.406C230.307 66.7176 228.048 69.6947 224.507 71.3372C223.172 71.9531 221.17 72.2611 218.501 72.2611C216.14 72.2611 214.369 72.0044 213.189 71.4911C212.06 71.0292 210.905 70.0796 209.724 68.6424C208.338 66.9486 207.44 65.2034 207.029 63.4069C206.67 61.6104 206.413 58.0688 206.259 52.782C206.105 46.6225 205.849 43.1579 205.49 42.388C205.079 41.6694 204.104 40.5401 202.564 39.0003C201.178 37.5117 199.561 35.5356 197.713 33.0718C197.076 32.2222 196.512 31.4457 196.021 30.7426C194.923 31.2943 193.631 31.6731 192.146 31.8791C190.4 32.0844 189.322 32.1871 188.912 32.1871C186.91 32.1871 185.088 31.3658 183.445 29.7233C182.213 28.3888 181.29 27.7215 180.674 27.7215C179.082 27.7215 177.312 28.4144 175.361 29.8003C173.462 31.1862 172.204 32.7003 171.588 34.3429C171.229 35.2668 171.05 36.5243 171.05 38.1155C171.05 40.4253 171.409 42.2474 172.127 43.582C172.897 45.0705 173.95 46.2767 175.284 47.2006C176.67 48.1245 178.005 48.5865 179.288 48.5865C180.006 48.5865 180.597 48.4582 181.059 48.2015C181.572 47.8936 181.829 47.5599 181.829 47.2006C181.829 46.5847 181.29 46.0714 180.212 45.6608C178.723 45.0448 177.979 43.9926 177.979 42.5041C177.979 42.1961 178.03 41.6315 178.133 40.8102C178.338 39.4244 178.697 38.3721 179.211 37.6535C179.775 36.8836 180.622 36.2163 181.752 35.6517C183.291 34.9845 185.781 34.6508 189.22 34.6508C193.48 34.6508 196.534 35.1128 198.382 36.0367C199.203 36.4986 199.845 37.2686 200.307 38.3465C201.333 40.5536 201.847 44.9935 201.847 51.6662C201.847 57.7229 201.41 62.0602 200.538 64.6779C199.255 68.2196 196.046 69.9904 190.914 69.9904H190.606C188.758 69.9904 187.013 69.5798 185.37 68.7585L182.829 67.5267L180.443 68.3736C178.903 68.9382 175.977 69.2205 171.665 69.2205C168.072 69.2205 165.378 69.0152 163.581 68.6046C161.836 68.2453 160.065 67.4753 158.269 66.2948C157.191 65.5762 155.754 64.3443 153.957 62.5991C152.161 60.9053 150.903 59.5194 150.185 58.4415C149.386 57.1912 148.644 55.5479 147.956 53.5116C147.317 54.6987 146.629 55.8027 145.891 56.8238C144.753 58.3914 143.002 60.2768 140.637 62.4798C138.327 64.6352 136.584 66.0323 135.408 66.6712C132.2 68.4043 127.831 69.4653 122.299 69.854C120.178 70.0159 118.606 70.0614 117.581 69.9905C117.121 69.9586 115.924 69.7729 113.993 69.4333C105.823 67.7873 101.059 64.1388 99.7009 58.4881C99.3909 57.1482 99.3564 53.8984 99.5975 48.7388C98.8335 51.965 97.9962 54.532 97.0857 56.4398C96.0078 58.6982 94.4936 60.8283 92.5431 62.8301C90.3873 64.9859 88.2829 66.5258 86.2297 67.4497C84.1766 68.4249 81.3535 69.1435 77.7605 69.6055C76.118 69.8108 74.6808 69.9135 73.449 69.9135C72.1144 69.9135 70.6259 69.8108 68.9834 69.6055C65.8524 69.1949 63.7992 68.8356 62.824 68.5276C58.5637 66.9877 55.1247 64.601 52.507 61.3673C49.9406 58.0823 48.0927 53.7963 46.9635 48.5095C46.8515 47.9775 46.7242 47.4073 46.5817 46.7989C45.9289 47.615 45.224 48.4051 44.4668 49.1692C41.5611 52.1468 38.3465 54.2563 34.8231 55.4977C34.6252 55.5727 34.4018 55.6506 34.1529 55.7316C33.3552 55.9805 32.8845 56.3718 32.7405 56.9055C32.5966 57.4393 32.5531 59.0466 32.61 61.7273C32.637 62.396 32.649 62.9373 32.646 63.3511C32.6939 66.3947 32.2921 68.6902 31.4404 70.2375C30.6398 71.7787 29.115 73.0951 26.866 74.1866C25.6005 74.8523 23.8973 75.3111 21.7563 75.5629C20.5328 75.7068 19.3963 75.7113 18.3468 75.5764C14.1877 74.9286 11.5115 71.729 10.3181 65.9776C9.24165 60.781 7.81293 50.6126 6.03194 35.4724C5.18642 28.2847 4.79665 24.0926 4.86263 22.8961C5.01561 19.3637 5.88225 16.626 7.46256 14.6829C9.08785 12.6828 11.8886 11.0096 15.8648 9.66329C18.0538 8.94065 20.3208 8.44141 22.6657 8.16556C27.9673 7.54192 32.7007 8.01876 36.8658 9.59609C38.3201 10.0969 40.0953 11.1284 42.1913 12.6908C44.1438 14.1027 45.6554 15.4086 46.726 16.6085C46.7535 16.5137 46.7813 16.4198 46.8095 16.3266C47.4255 14.2221 48.5034 12.3743 50.0432 10.7831C51.6344 9.19196 53.3796 8.1654 55.2787 7.70344C55.8946 7.54946 56.7416 7.47247 57.8195 7.47247C59.8726 7.47247 61.6434 7.67778 63.1319 8.0884C64.2098 8.39638 65.2877 8.98665 66.3656 9.85923C67.4435 10.7318 68.3161 11.7071 68.9834 12.785C68.9834 12.785 69.9286 14.6875 70.0613 15.5387C70.6807 19.5139 70.3692 26.3356 70.3692 26.3356C70.4719 33.9836 70.7799 38.3465 71.2932 39.4244C71.8064 40.451 72.3967 40.9642 73.064 40.9642C73.7826 40.9642 74.3985 40.451 74.9118 39.4244C75.4251 38.3465 75.7331 33.9579 75.8357 26.2587C75.8357 26.2587 75.5967 20.4168 76.1437 15.5387C76.3148 14.0126 77.2986 12.631 77.2986 12.631C78.9924 9.96189 81.6102 8.31938 85.1518 7.70344C86.1784 7.54946 87.128 7.47247 88.0006 7.47247C91.2856 7.47247 94.006 8.55036 96.1618 10.7062C97.9583 12.5026 99.1901 15.0177 99.8574 18.2514C100.446 21.1035 100.795 25.353 100.904 31.0001C101.046 29.577 101.195 28.2044 101.349 26.8825C102.54 16.366 103.282 12.8693 104.789 10.8952C106.632 8.48101 108.411 7.74273 113.005 6.77455C115.301 6.31606 117.678 6.1719 120.136 6.34206C120.443 6.36334 121.081 6.43325 122.051 6.55181L124.508 6.72198C128.137 7.07609 130.511 7.34335 131.63 7.52375C132.75 7.70415 134.034 8.10179 135.484 8.71665C139.99 10.5207 143.843 13.5659 147.045 17.8522C148.011 19.1256 148.857 20.4201 149.584 21.7359C151.255 18.5818 153.432 15.7264 156.113 13.1699C160.168 9.2176 165.609 6.47153 172.435 4.93168ZM125.229 27.5324C125.485 27.5501 125.86 27.7047 126.354 27.9962C127.142 28.5138 127.726 29.7376 128.107 31.6677C128.542 33.5501 128.687 35.541 128.542 37.6405C128.461 38.8182 128.349 39.6851 128.208 40.2413C127.831 41.9646 127.358 43.2181 126.79 44.002C126.276 44.7382 125.525 45.175 124.538 45.3125C124.121 45.3865 123.785 45.4147 123.529 45.3969C122.351 45.3154 121.448 44.6098 120.82 43.28C120.243 41.9537 120.034 40.1385 120.194 37.8342C120.513 33.2257 121.521 30.1827 123.218 28.7052C124.149 27.895 124.819 27.5041 125.229 27.5324Z"/>
</mask>
<path fill-rule="evenodd" clip-rule="evenodd" d="M172.435 4.93168C173.821 4.62371 175.335 4.46973 176.978 4.46973C179.852 4.46973 182.804 4.93168 185.832 5.85559C188.861 6.7795 191.427 8.01138 193.531 9.55124C194.077 9.94654 194.597 10.3762 195.091 10.8403C195.549 10.3568 196.064 9.88838 196.635 9.43512C198.175 8.25457 199.741 7.45898 201.332 7.04835C202.102 6.89436 203.077 6.81737 204.258 6.81737C206.875 6.81737 208.877 7.12534 210.263 7.74128C211.238 8.15191 212.496 9.12715 214.036 10.667C215.627 12.2069 216.936 13.721 217.962 15.2096C218.784 16.4928 219.323 17.1344 219.579 17.1344C219.784 17.1344 221.401 15.7228 224.43 12.8998C227.458 10.0254 229.511 8.33156 230.589 7.81827C231.821 7.25366 233.386 6.97136 235.286 6.97136C237.287 6.97136 238.904 7.27932 240.136 7.89526C242.343 8.97316 244.217 10.59 245.757 12.7458C247.348 14.9016 248.272 17.16 248.528 19.5211C248.58 19.7778 248.605 20.1628 248.605 20.676C248.605 23.7044 247.887 26.3222 246.45 28.5293C245.68 29.7612 244.268 31.4037 242.215 33.4568C240.213 35.5099 238.211 37.3064 236.21 38.8463L232.745 41.618V45.6216C232.745 52.243 232.257 57.8378 231.282 62.406C230.307 66.7176 228.048 69.6947 224.507 71.3372C223.172 71.9531 221.17 72.2611 218.501 72.2611C216.14 72.2611 214.369 72.0044 213.189 71.4911C212.06 71.0292 210.905 70.0796 209.724 68.6424C208.338 66.9486 207.44 65.2034 207.029 63.4069C206.67 61.6104 206.413 58.0688 206.259 52.782C206.105 46.6225 205.849 43.1579 205.49 42.388C205.079 41.6694 204.104 40.5401 202.564 39.0003C201.178 37.5117 199.561 35.5356 197.713 33.0718C197.076 32.2222 196.512 31.4457 196.021 30.7426C194.923 31.2943 193.631 31.6731 192.146 31.8791C190.4 32.0844 189.322 32.1871 188.912 32.1871C186.91 32.1871 185.088 31.3658 183.445 29.7233C182.213 28.3888 181.29 27.7215 180.674 27.7215C179.082 27.7215 177.312 28.4144 175.361 29.8003C173.462 31.1862 172.204 32.7003 171.588 34.3429C171.229 35.2668 171.05 36.5243 171.05 38.1155C171.05 40.4253 171.409 42.2474 172.127 43.582C172.897 45.0705 173.95 46.2767 175.284 47.2006C176.67 48.1245 178.005 48.5865 179.288 48.5865C180.006 48.5865 180.597 48.4582 181.059 48.2015C181.572 47.8936 181.829 47.5599 181.829 47.2006C181.829 46.5847 181.29 46.0714 180.212 45.6608C178.723 45.0448 177.979 43.9926 177.979 42.5041C177.979 42.1961 178.03 41.6315 178.133 40.8102C178.338 39.4244 178.697 38.3721 179.211 37.6535C179.775 36.8836 180.622 36.2163 181.752 35.6517C183.291 34.9845 185.781 34.6508 189.22 34.6508C193.48 34.6508 196.534 35.1128 198.382 36.0367C199.203 36.4986 199.845 37.2686 200.307 38.3465C201.333 40.5536 201.847 44.9935 201.847 51.6662C201.847 57.7229 201.41 62.0602 200.538 64.6779C199.255 68.2196 196.046 69.9904 190.914 69.9904H190.606C188.758 69.9904 187.013 69.5798 185.37 68.7585L182.829 67.5267L180.443 68.3736C178.903 68.9382 175.977 69.2205 171.665 69.2205C168.072 69.2205 165.378 69.0152 163.581 68.6046C161.836 68.2453 160.065 67.4753 158.269 66.2948C157.191 65.5762 155.754 64.3443 153.957 62.5991C152.161 60.9053 150.903 59.5194 150.185 58.4415C149.386 57.1912 148.644 55.5479 147.956 53.5116C147.317 54.6987 146.629 55.8027 145.891 56.8238C144.753 58.3914 143.002 60.2768 140.637 62.4798C138.327 64.6352 136.584 66.0323 135.408 66.6712C132.2 68.4043 127.831 69.4653 122.299 69.854C120.178 70.0159 118.606 70.0614 117.581 69.9905C117.121 69.9586 115.924 69.7729 113.993 69.4333C105.823 67.7873 101.059 64.1388 99.7009 58.4881C99.3909 57.1482 99.3564 53.8984 99.5975 48.7388C98.8335 51.965 97.9962 54.532 97.0857 56.4398C96.0078 58.6982 94.4936 60.8283 92.5431 62.8301C90.3873 64.9859 88.2829 66.5258 86.2297 67.4497C84.1766 68.4249 81.3535 69.1435 77.7605 69.6055C76.118 69.8108 74.6808 69.9135 73.449 69.9135C72.1144 69.9135 70.6259 69.8108 68.9834 69.6055C65.8524 69.1949 63.7992 68.8356 62.824 68.5276C58.5637 66.9877 55.1247 64.601 52.507 61.3673C49.9406 58.0823 48.0927 53.7963 46.9635 48.5095C46.8515 47.9775 46.7242 47.4073 46.5817 46.7989C45.9289 47.615 45.224 48.4051 44.4668 49.1692C41.5611 52.1468 38.3465 54.2563 34.8231 55.4977C34.6252 55.5727 34.4018 55.6506 34.1529 55.7316C33.3552 55.9805 32.8845 56.3718 32.7405 56.9055C32.5966 57.4393 32.5531 59.0466 32.61 61.7273C32.637 62.396 32.649 62.9373 32.646 63.3511C32.6939 66.3947 32.2921 68.6902 31.4404 70.2375C30.6398 71.7787 29.115 73.0951 26.866 74.1866C25.6005 74.8523 23.8973 75.3111 21.7563 75.5629C20.5328 75.7068 19.3963 75.7113 18.3468 75.5764C14.1877 74.9286 11.5115 71.729 10.3181 65.9776C9.24165 60.781 7.81293 50.6126 6.03194 35.4724C5.18642 28.2847 4.79665 24.0926 4.86263 22.8961C5.01561 19.3637 5.88225 16.626 7.46256 14.6829C9.08785 12.6828 11.8886 11.0096 15.8648 9.66329C18.0538 8.94065 20.3208 8.44141 22.6657 8.16556C27.9673 7.54192 32.7007 8.01876 36.8658 9.59609C38.3201 10.0969 40.0953 11.1284 42.1913 12.6908C44.1438 14.1027 45.6554 15.4086 46.726 16.6085C46.7535 16.5137 46.7813 16.4198 46.8095 16.3266C47.4255 14.2221 48.5034 12.3743 50.0432 10.7831C51.6344 9.19196 53.3796 8.1654 55.2787 7.70344C55.8946 7.54946 56.7416 7.47247 57.8195 7.47247C59.8726 7.47247 61.6434 7.67778 63.1319 8.0884C64.2098 8.39638 65.2877 8.98665 66.3656 9.85923C67.4435 10.7318 68.3161 11.7071 68.9834 12.785C68.9834 12.785 69.9286 14.6875 70.0613 15.5387C70.6807 19.5139 70.3692 26.3356 70.3692 26.3356C70.4719 33.9836 70.7799 38.3465 71.2932 39.4244C71.8064 40.451 72.3967 40.9642 73.064 40.9642C73.7826 40.9642 74.3985 40.451 74.9118 39.4244C75.4251 38.3465 75.7331 33.9579 75.8357 26.2587C75.8357 26.2587 75.5967 20.4168 76.1437 15.5387C76.3148 14.0126 77.2986 12.631 77.2986 12.631C78.9924 9.96189 81.6102 8.31938 85.1518 7.70344C86.1784 7.54946 87.128 7.47247 88.0006 7.47247C91.2856 7.47247 94.006 8.55036 96.1618 10.7062C97.9583 12.5026 99.1901 15.0177 99.8574 18.2514C100.446 21.1035 100.795 25.353 100.904 31.0001C101.046 29.577 101.195 28.2044 101.349 26.8825C102.54 16.366 103.282 12.8693 104.789 10.8952C106.632 8.48101 108.411 7.74273 113.005 6.77455C115.301 6.31606 117.678 6.1719 120.136 6.34206C120.443 6.36334 121.081 6.43325 122.051 6.55181L124.508 6.72198C128.137 7.07609 130.511 7.34335 131.63 7.52375C132.75 7.70415 134.034 8.10179 135.484 8.71665C139.99 10.5207 143.843 13.5659 147.045 17.8522C148.011 19.1256 148.857 20.4201 149.584 21.7359C151.255 18.5818 153.432 15.7264 156.113 13.1699C160.168 9.2176 165.609 6.47153 172.435 4.93168ZM125.229 27.5324C125.485 27.5501 125.86 27.7047 126.354 27.9962C127.142 28.5138 127.726 29.7376 128.107 31.6677C128.542 33.5501 128.687 35.541 128.542 37.6405C128.461 38.8182 128.349 39.6851 128.208 40.2413C127.831 41.9646 127.358 43.2181 126.79 44.002C126.276 44.7382 125.525 45.175 124.538 45.3125C124.121 45.3865 123.785 45.4147 123.529 45.3969C122.351 45.3154 121.448 44.6098 120.82 43.28C120.243 41.9537 120.034 40.1385 120.194 37.8342C120.513 33.2257 121.521 30.1827 123.218 28.7052C124.149 27.895 124.819 27.5041 125.229 27.5324Z" fill="#03445F"/>
<path d="M172.435 4.93168L171.554 0.9659L171.542 0.968745L172.435 4.93168ZM185.832 5.85559L187.018 1.9699L187.018 1.9699L185.832 5.85559ZM193.531 9.55124L191.132 12.8298C191.137 12.8333 191.142 12.8368 191.147 12.8403L193.531 9.55124ZM195.091 10.8403L192.311 13.8028C193.942 15.333 196.503 15.2575 198.04 13.634L195.091 10.8403ZM196.635 9.43512L194.164 6.21109C194.146 6.22464 194.128 6.23833 194.111 6.25216L196.635 9.43512ZM201.332 7.04835L200.535 3.06474C200.462 3.07939 200.389 3.09605 200.317 3.11472L201.332 7.04835ZM210.263 7.74128L208.613 11.4536C208.637 11.4645 208.662 11.4751 208.687 11.4854L210.263 7.74128ZM214.036 10.667L211.163 13.5396C211.179 13.5553 211.195 13.5709 211.211 13.5863L214.036 10.667ZM217.962 15.2096L221.384 13.0196C221.359 12.9804 221.333 12.9415 221.307 12.9031L217.962 15.2096ZM224.43 12.8998L227.2 15.8714C227.209 15.8631 227.218 15.8547 227.226 15.8463L224.43 12.8998ZM230.589 7.81827L228.896 4.1252C228.878 4.13347 228.86 4.14187 228.842 4.1504L230.589 7.81827ZM240.136 7.89526L238.319 11.5289C238.331 11.5345 238.342 11.5401 238.353 11.5457L240.136 7.89526ZM245.757 12.7458L242.451 15.1071C242.463 15.1243 242.476 15.1413 242.488 15.1583L245.757 12.7458ZM248.528 19.5211L244.49 19.9601C244.503 20.0801 244.521 20.1995 244.545 20.3179L248.528 19.5211ZM246.45 28.5293L243.045 26.3125C243.031 26.3336 243.018 26.3548 243.005 26.3762L246.45 28.5293ZM242.215 33.4568L239.342 30.5842C239.33 30.5963 239.318 30.6085 239.306 30.6208L242.215 33.4568ZM236.21 38.8463L233.733 35.6263C233.712 35.642 233.692 35.6579 233.672 35.674L236.21 38.8463ZM232.745 41.618L230.207 38.4457C229.243 39.2167 228.682 40.3839 228.682 41.618H232.745ZM231.282 62.406L235.244 63.3023C235.248 63.2863 235.252 63.2702 235.255 63.2542L231.282 62.406ZM224.507 71.3372L226.209 75.0258L226.216 75.0226L224.507 71.3372ZM213.189 71.4911L214.809 67.7656C214.782 67.7538 214.754 67.7423 214.727 67.7311L213.189 71.4911ZM209.724 68.6424L206.58 71.215L206.585 71.2211L209.724 68.6424ZM207.029 63.4069L203.046 64.2036C203.053 64.2399 203.061 64.2761 203.069 64.3122L207.029 63.4069ZM206.259 52.782L202.198 52.8835C202.198 52.8891 202.198 52.8946 202.199 52.9002L206.259 52.782ZM205.49 42.388L209.171 40.67C209.124 40.5687 209.072 40.4694 209.017 40.3724L205.49 42.388ZM202.564 39.0003L199.59 41.7685C199.623 41.8039 199.657 41.8387 199.691 41.8729L202.564 39.0003ZM197.713 33.0718L200.963 30.6343L200.963 30.6343L197.713 33.0718ZM196.021 30.7426L199.353 28.4175C198.197 26.7619 196.001 26.2061 194.197 27.1126L196.021 30.7426ZM192.146 31.8791L192.62 35.9138C192.648 35.9105 192.676 35.907 192.703 35.9031L192.146 31.8791ZM183.445 29.7233L180.46 32.4788C180.497 32.5186 180.534 32.5576 180.573 32.5959L183.445 29.7233ZM175.361 29.8003L173.008 26.4886C172.994 26.4985 172.98 26.5085 172.966 26.5186L175.361 29.8003ZM171.588 34.3429L175.375 35.8153C175.381 35.8 175.387 35.7847 175.392 35.7693L171.588 34.3429ZM172.127 43.582L175.736 41.7156C175.725 41.6956 175.715 41.6757 175.704 41.6559L172.127 43.582ZM175.284 47.2006L172.972 50.5408C172.991 50.5543 173.011 50.5676 173.031 50.5808L175.284 47.2006ZM181.059 48.2015L183.031 51.7528C183.071 51.7309 183.11 51.7083 183.149 51.6851L181.059 48.2015ZM180.212 45.6608L178.658 49.4146C178.694 49.4293 178.73 49.4435 178.765 49.4571L180.212 45.6608ZM178.133 40.8102L174.114 40.2149C174.11 40.2453 174.106 40.2758 174.102 40.3063L178.133 40.8102ZM179.211 37.6535L175.935 35.2511C175.925 35.2648 175.915 35.2785 175.905 35.2922L179.211 37.6535ZM181.752 35.6517L180.136 31.9242C180.068 31.9536 180.001 31.985 179.935 32.0181L181.752 35.6517ZM198.382 36.0367L200.374 32.4959C200.316 32.4636 200.258 32.4326 200.199 32.4031L198.382 36.0367ZM200.307 38.3465L196.573 39.9468C196.589 39.9847 196.606 40.0223 196.623 40.0597L200.307 38.3465ZM200.538 64.6779L204.357 66.0618C204.369 66.0289 204.381 65.9958 204.392 65.9626L200.538 64.6779ZM185.37 68.7585L187.187 65.1249C187.172 65.1176 187.157 65.1103 187.143 65.1031L185.37 68.7585ZM182.829 67.5267L184.602 63.8712C183.623 63.3968 182.496 63.3344 181.471 63.698L182.829 67.5267ZM180.443 68.3736L179.084 64.545C179.071 64.5497 179.057 64.5545 179.044 64.5594L180.443 68.3736ZM163.581 68.6046L164.487 64.6442C164.458 64.6377 164.429 64.6314 164.4 64.6255L163.581 68.6046ZM158.269 66.2948L156.015 69.675C156.023 69.68 156.03 69.6849 156.038 69.6898L158.269 66.2948ZM153.957 62.5991L156.788 59.6852C156.773 59.6711 156.759 59.6572 156.744 59.6433L153.957 62.5991ZM150.185 58.4415L146.76 60.6273C146.775 60.65 146.789 60.6726 146.804 60.695L150.185 58.4415ZM147.956 53.5116L151.805 52.2116C151.287 50.6785 149.908 49.5989 148.296 49.4634C146.683 49.3279 145.144 50.1623 144.378 51.5874L147.956 53.5116ZM145.891 56.8238L149.179 59.2097L149.183 59.2041L145.891 56.8238ZM140.637 62.4798L137.868 59.5073L137.866 59.5094L140.637 62.4798ZM135.408 66.6712L137.339 70.2452L137.347 70.241L135.408 66.6712ZM122.299 69.854L122.014 65.8015C122.006 65.8021 121.998 65.8027 121.989 65.8033L122.299 69.854ZM117.581 69.9905L117.301 74.0433L117.301 74.0433L117.581 69.9905ZM113.993 69.4333L113.19 73.4158C113.223 73.4225 113.256 73.4287 113.289 73.4345L113.993 69.4333ZM99.7009 58.4881L95.743 59.404C95.7456 59.4152 95.7482 59.4263 95.7509 59.4374L99.7009 58.4881ZM99.5975 48.7388L103.656 48.9284C103.753 46.8331 102.24 45.0077 100.163 44.7158C98.0856 44.4239 96.1277 45.7614 95.6443 47.8026L99.5975 48.7388ZM97.0857 56.4398L93.4194 54.6899L93.4194 54.6899L97.0857 56.4398ZM92.5431 62.8301L95.4157 65.7028C95.4282 65.6903 95.4405 65.6778 95.4528 65.6652L92.5431 62.8301ZM86.2297 67.4497L84.5626 63.745C84.5372 63.7565 84.5119 63.7682 84.4867 63.7801L86.2297 67.4497ZM77.7605 69.6055L78.2644 73.6366C78.2692 73.636 78.2739 73.6354 78.2786 73.6348L77.7605 69.6055ZM68.9834 69.6055L68.4551 73.6335C68.4632 73.6346 68.4714 73.6356 68.4795 73.6366L68.9834 69.6055ZM62.824 68.5276L61.443 72.3482C61.4952 72.367 61.5477 72.3848 61.6006 72.4015L62.824 68.5276ZM52.507 61.3673L49.3056 63.8683C49.3201 63.8868 49.3347 63.9052 49.3494 63.9234L52.507 61.3673ZM46.9635 48.5095L42.9881 49.3464L42.9906 49.3581L46.9635 48.5095ZM46.5817 46.7989L50.537 45.8721C50.1822 44.3578 48.994 43.179 47.477 42.8363C45.96 42.4935 44.3804 43.0469 43.409 44.2615L46.5817 46.7989ZM44.4668 49.1692L41.5812 46.3096C41.5739 46.317 41.5666 46.3244 41.5593 46.3319L44.4668 49.1692ZM34.8231 55.4977L33.4731 51.6661C33.4433 51.6766 33.4136 51.6874 33.384 51.6986L34.8231 55.4977ZM34.1529 55.7316L35.3629 59.6097C35.3785 59.6048 35.394 59.5999 35.4095 59.5948L34.1529 55.7316ZM32.7405 56.9055L36.6629 57.9633L36.6629 57.9633L32.7405 56.9055ZM32.61 61.7273L28.5484 61.8136C28.549 61.8395 28.5498 61.8653 28.5508 61.8911L32.61 61.7273ZM32.646 63.3511L28.5836 63.3216C28.5834 63.3528 28.5835 63.3839 28.584 63.4151L32.646 63.3511ZM31.4404 70.2375L27.8814 68.2786C27.8657 68.3071 27.8504 68.3358 27.8353 68.3647L31.4404 70.2375ZM26.866 74.1866L25.0922 70.5318C25.0527 70.551 25.0135 70.5708 24.9746 70.5912L26.866 74.1866ZM21.7563 75.5629L22.2309 79.5976L22.2309 79.5976L21.7563 75.5629ZM18.3468 75.5764L17.7216 79.5905C17.7573 79.596 17.793 79.6011 17.8287 79.6057L18.3468 75.5764ZM10.3181 65.9776L6.34004 66.8016L6.34032 66.803L10.3181 65.9776ZM6.03194 35.4724L1.99726 35.947L6.03194 35.4724ZM4.86263 22.8961L8.91897 23.1198C8.91985 23.1039 8.92064 23.0879 8.92133 23.0719L4.86263 22.8961ZM7.46256 14.6829L10.6143 17.2462L10.6153 17.2449L7.46256 14.6829ZM15.8648 9.66329L14.5913 5.80556C14.5815 5.8088 14.5717 5.81207 14.5619 5.81538L15.8648 9.66329ZM22.6657 8.16556L22.1911 4.13088L22.6657 8.16556ZM36.8658 9.59609L35.427 13.3953C35.4655 13.4099 35.5042 13.4238 35.5431 13.4372L36.8658 9.59609ZM42.1913 12.6908L39.7635 15.948C39.7792 15.9597 39.7949 15.9713 39.8108 15.9827L42.1913 12.6908ZM46.726 16.6085L43.6946 19.3131C44.6783 20.4157 46.1831 20.8971 47.6242 20.5705C49.0652 20.2438 50.2152 19.1604 50.6273 17.7414L46.726 16.6085ZM46.8095 16.3266L50.6979 17.5033C50.7015 17.4915 50.705 17.4796 50.7085 17.4678L46.8095 16.3266ZM50.0432 10.7831L47.1706 7.91052C47.1549 7.92622 47.1393 7.94204 47.1239 7.958L50.0432 10.7831ZM55.2787 7.70344L56.2389 11.6508C56.2473 11.6488 56.2556 11.6467 56.264 11.6446L55.2787 7.70344ZM63.1319 8.0884L64.248 4.18221C64.2361 4.17882 64.2242 4.17547 64.2123 4.17218L63.1319 8.0884ZM66.3656 9.85923L68.9218 6.70168L68.9217 6.70167L66.3656 9.85923ZM68.9834 12.785L72.6216 10.9773C72.5654 10.8643 72.504 10.7539 72.4376 10.6466L68.9834 12.785ZM70.0613 15.5387L74.0754 14.9133L74.0753 14.9133L70.0613 15.5387ZM70.3692 26.3356L66.311 26.1504C66.3073 26.2303 66.306 26.3102 66.3071 26.3902L70.3692 26.3356ZM71.2932 39.4244L67.6253 41.171C67.6365 41.1945 67.6479 41.2179 67.6595 41.2412L71.2932 39.4244ZM74.9118 39.4244L78.5454 41.2412C78.5571 41.2179 78.5685 41.1945 78.5797 41.171L74.9118 39.4244ZM75.8357 26.2587L79.8979 26.3128C79.8988 26.2394 79.8978 26.1659 79.8948 26.0926L75.8357 26.2587ZM76.1437 15.5387L72.1065 15.086L72.1065 15.086L76.1437 15.5387ZM77.2986 12.631L80.6079 14.9873C80.6498 14.9285 80.69 14.8687 80.7287 14.8077L77.2986 12.631ZM85.1518 7.70344L84.5492 3.68589C84.518 3.69057 84.4869 3.69561 84.4558 3.70102L85.1518 7.70344ZM96.1618 10.7062L93.2892 13.5788L93.2892 13.5788L96.1618 10.7062ZM99.8574 18.2514L95.8787 19.0724L95.8787 19.0724L99.8574 18.2514ZM100.904 31.0001L96.8425 31.0787C96.8842 33.2282 98.5933 34.9731 100.741 35.0593C102.89 35.1455 104.733 33.543 104.947 31.4038L100.904 31.0001ZM101.349 26.8825L105.384 27.3533L105.386 27.3397L101.349 26.8825ZM104.789 10.8952L108.018 13.3601L108.018 13.3601L104.789 10.8952ZM113.005 6.77455L112.21 2.79072C112.196 2.79352 112.182 2.79639 112.168 2.79934L113.005 6.77455ZM120.136 6.34206L119.855 10.3949L119.855 10.3949L120.136 6.34206ZM122.051 6.55181L121.557 10.5843C121.628 10.5929 121.699 10.5997 121.77 10.6046L122.051 6.55181ZM124.508 6.72198L124.903 2.67869C124.865 2.67498 124.827 2.67181 124.789 2.66918L124.508 6.72198ZM131.63 7.52375L130.984 11.5345L130.984 11.5345L131.63 7.52375ZM135.484 8.71665L133.897 12.4566C133.923 12.4674 133.948 12.4778 133.974 12.4881L135.484 8.71665ZM147.045 17.8522L143.791 20.2835C143.797 20.2913 143.802 20.2991 143.808 20.3069L147.045 17.8522ZM149.584 21.7359L146.028 23.7005C146.75 25.006 148.128 25.8113 149.62 25.7982C151.111 25.7852 152.476 24.9559 153.174 23.638L149.584 21.7359ZM156.113 13.1699L158.916 16.1101C158.927 16.0998 158.938 16.0895 158.949 16.0791L156.113 13.1699ZM126.354 27.9962L128.586 24.6015C128.531 24.5652 128.474 24.5303 128.418 24.4968L126.354 27.9962ZM125.229 27.5324L125.509 23.4796L125.509 23.4796L125.229 27.5324ZM128.107 31.6677L124.121 32.4542C124.13 32.4975 124.139 32.5407 124.149 32.5836L128.107 31.6677ZM128.542 37.6405L124.489 37.3599L124.489 37.3599L128.542 37.6405ZM128.208 40.2413L124.27 39.2403C124.259 39.2847 124.249 39.3293 124.239 39.3741L128.208 40.2413ZM126.79 44.002L123.502 41.6161C123.487 41.636 123.473 41.6561 123.459 41.6762L126.79 44.002ZM124.538 45.3125L123.978 41.2888C123.927 41.2958 123.877 41.3037 123.827 41.3126L124.538 45.3125ZM123.529 45.3969L123.809 41.3442L123.809 41.3442L123.529 45.3969ZM120.82 43.28L117.095 44.9008C117.111 44.9393 117.129 44.9775 117.147 45.0154L120.82 43.28ZM120.194 37.8342L116.141 37.5536L116.141 37.5536L120.194 37.8342ZM123.218 28.7052L120.551 25.6411L120.551 25.6411L123.218 28.7052ZM176.978 0.407227C175.084 0.407227 173.27 0.584552 171.554 0.965921L173.317 8.89744C174.372 8.66287 175.587 8.53223 176.978 8.53223V0.407227ZM187.018 1.9699C183.644 0.940557 180.293 0.407227 176.978 0.407227V8.53223C179.412 8.53223 181.964 8.9228 184.647 9.74128L187.018 1.9699ZM195.93 6.27268C193.389 4.41328 190.391 2.9992 187.018 1.9699L184.647 9.74128C187.33 10.5598 189.465 11.6095 191.132 12.8298L195.93 6.27268ZM197.871 7.87781C197.253 7.29751 196.601 6.75863 195.916 6.26219L191.147 12.8403C191.553 13.1344 191.941 13.4549 192.311 13.8028L197.871 7.87781ZM194.111 6.25216C193.403 6.81379 192.744 7.41096 192.142 8.04657L198.04 13.634C198.354 13.3026 198.725 12.963 199.16 12.6181L194.111 6.25216ZM200.317 3.11472C198.111 3.684 196.059 4.75767 194.164 6.21109L199.107 12.6591C200.291 11.7515 201.371 11.2339 202.347 10.982L200.317 3.11472ZM204.258 2.75487C202.929 2.75487 201.663 2.83917 200.535 3.06474L202.129 11.032C202.541 10.9496 203.225 10.8799 204.258 10.8799V2.75487ZM211.913 4.02892C209.76 3.0721 207.09 2.75487 204.258 2.75487V10.8799C206.661 10.8799 207.994 11.1786 208.613 11.4536L211.913 4.02892ZM216.908 7.79437C215.306 6.19243 213.584 4.7315 211.84 3.99713L208.687 11.4854C208.893 11.5723 209.685 12.0619 211.163 13.5396L216.908 7.79437ZM221.307 12.9031C220.098 11.151 218.604 9.4343 216.861 7.74767L211.211 13.5863C212.65 14.9794 213.773 16.2911 214.618 17.516L221.307 12.9031ZM219.579 13.0719C220.371 13.0719 220.96 13.3107 221.258 13.4565C221.572 13.6106 221.785 13.7717 221.884 13.8518C222.076 14.0068 222.151 14.1097 222.093 14.0402C221.992 13.9204 221.763 13.6121 221.384 13.0196L214.541 17.3995C214.983 18.0902 215.434 18.7444 215.872 19.2661C216.083 19.5175 216.392 19.861 216.783 20.1764C217 20.351 218.03 21.1969 219.579 21.1969V13.0719ZM221.66 9.92819C220.154 11.3317 219.031 12.3542 218.274 13.0154C217.888 13.3523 217.643 13.5552 217.51 13.6581C217.435 13.7161 217.461 13.6917 217.551 13.6343C217.592 13.6085 217.729 13.5229 217.93 13.4301C218.032 13.3827 218.206 13.3078 218.433 13.2396C218.636 13.1787 219.046 13.0719 219.579 13.0719V21.1969C220.527 21.1969 221.225 20.8579 221.339 20.8055C221.587 20.6907 221.783 20.572 221.893 20.5021C222.123 20.3565 222.333 20.1998 222.486 20.0813C222.808 19.8314 223.195 19.5049 223.617 19.1361C224.477 18.3858 225.677 17.2909 227.2 15.8714L221.66 9.92819ZM228.842 4.1504C227.816 4.63918 226.704 5.47511 225.656 6.33991C224.528 7.27035 223.182 8.48312 221.633 9.95323L227.226 15.8463C228.706 14.4421 229.901 13.3707 230.826 12.6073C231.288 12.2261 231.656 11.9441 231.938 11.745C232.24 11.5326 232.359 11.4749 232.336 11.4861L228.842 4.1504ZM235.286 2.90886C233.021 2.90886 230.828 3.23998 228.896 4.1252L232.282 11.5113C232.814 11.2673 233.752 11.0339 235.286 11.0339V2.90886ZM241.953 4.26166C239.96 3.26519 237.653 2.90886 235.286 2.90886V11.0339C236.922 11.0339 237.849 11.2935 238.319 11.5289L241.953 4.26166ZM249.062 10.3845C247.162 7.72345 244.78 5.64219 241.919 4.24483L238.353 11.5457C239.906 12.3041 241.272 13.4566 242.451 15.1071L249.062 10.3845ZM252.567 19.0822C252.223 15.9187 250.987 12.9916 249.025 10.3333L242.488 15.1583C243.708 16.8116 244.32 18.4014 244.49 19.9601L252.567 19.0822ZM252.668 20.676C252.668 20.0983 252.644 19.3869 252.512 18.7244L244.545 20.3179C244.533 20.2579 244.529 20.2233 244.528 20.2218C244.528 20.2189 244.53 20.2347 244.533 20.2727C244.538 20.3515 244.543 20.4822 244.543 20.676H252.668ZM249.854 30.7461C251.782 27.7849 252.668 24.3706 252.668 20.676H244.543C244.543 23.0383 243.991 24.8595 243.045 26.3125L249.854 30.7461ZM245.088 36.3294C247.188 34.2293 248.87 32.3211 249.895 30.6824L243.005 26.3762C242.489 27.2013 241.349 28.578 239.342 30.5842L245.088 36.3294ZM238.687 42.0663C240.86 40.3944 243.005 38.4659 245.124 36.2928L239.306 30.6208C237.421 32.554 235.563 34.2185 233.733 35.6263L238.687 42.0663ZM235.283 44.7903L238.747 42.0186L233.672 35.674L230.207 38.4457L235.283 44.7903ZM236.807 45.6216V41.618H228.682V45.6216H236.807ZM235.255 63.2542C236.309 58.3185 236.807 52.4202 236.807 45.6216H228.682C228.682 52.0658 228.206 57.3571 227.309 61.5579L235.255 63.2542ZM226.216 75.0226C231.062 72.775 234.033 68.6575 235.244 63.3023L227.32 61.5098C226.58 64.7777 225.034 66.6143 222.797 67.6517L226.216 75.0226ZM218.501 76.3236C221.355 76.3236 224.067 76.0143 226.209 75.0257L222.804 67.6486C222.277 67.8919 220.986 68.1986 218.501 68.1986V76.3236ZM211.569 75.2167C213.525 76.0672 215.971 76.3236 218.501 76.3236V68.1986C216.31 68.1986 215.214 67.9416 214.809 67.7656L211.569 75.2167ZM206.585 71.2211C207.988 72.929 209.655 74.4349 211.651 75.2512L214.727 67.7311C214.464 67.6235 213.821 67.2303 212.863 66.0638L206.585 71.2211ZM203.069 64.3122C203.643 66.8244 204.871 69.1261 206.58 71.215L212.868 66.0699C211.806 64.771 211.237 63.5824 210.99 62.5017L203.069 64.3122ZM202.199 52.9002C202.351 58.1388 202.609 62.0184 203.046 64.2036L211.013 62.6102C210.731 61.2024 210.476 57.9988 210.32 52.6637L202.199 52.9002ZM201.808 44.1059C201.615 43.6926 201.639 43.501 201.72 44.0554C201.777 44.4506 201.839 45.0423 201.9 45.864C202.021 47.4985 202.122 49.8279 202.198 52.8835L210.321 52.6804C210.243 49.5766 210.138 47.094 210.003 45.2638C209.935 44.3531 209.856 43.5493 209.76 42.8859C209.687 42.3817 209.543 41.4683 209.171 40.67L201.808 44.1059ZM199.691 41.8729C200.42 42.6015 200.974 43.1931 201.376 43.6574C201.575 43.8883 201.722 44.071 201.826 44.2095C201.934 44.354 201.969 44.4146 201.962 44.4035L209.017 40.3724C208.301 39.1193 206.947 37.6387 205.436 36.1277L199.691 41.8729ZM194.463 35.5093C196.358 38.0362 198.071 40.136 199.59 41.7685L205.537 36.232C204.285 34.8875 202.764 33.035 200.963 30.6343L194.463 35.5093ZM192.69 33.0676C193.212 33.8164 193.804 34.6309 194.463 35.5094L200.963 30.6343C200.348 29.8134 199.812 29.0751 199.353 28.4175L192.69 33.0676ZM192.703 35.9031C194.536 35.6491 196.273 35.1626 197.845 34.3725L194.197 27.1126C193.574 27.426 192.727 27.6972 191.588 27.8551L192.703 35.9031ZM188.912 36.2496C189.617 36.2496 190.974 36.1074 192.62 35.9138L191.671 27.8444C190.812 27.9454 190.14 28.0186 189.643 28.0659C189.091 28.1185 188.899 28.1246 188.912 28.1246V36.2496ZM180.573 32.5959C182.845 34.8681 185.659 36.2496 188.912 36.2496V28.1246C188.161 28.1246 187.331 27.8635 186.318 26.8507L180.573 32.5959ZM180.674 31.784C180.11 31.784 179.722 31.6364 179.578 31.5742C179.425 31.5078 179.379 31.4637 179.45 31.5153C179.514 31.5614 179.634 31.6569 179.815 31.8245C179.993 31.9896 180.207 32.2048 180.46 32.4788L186.431 26.9678C185.725 26.2037 184.978 25.4856 184.207 24.9286C183.562 24.4626 182.301 23.659 180.674 23.659V31.784ZM177.714 33.112C179.304 31.9823 180.253 31.784 180.674 31.784V23.659C177.912 23.659 175.319 24.8465 173.008 26.4886L177.714 33.112ZM175.392 35.7693C175.65 35.0829 176.284 34.1557 177.756 33.0819L172.966 26.5186C170.64 28.2167 168.759 30.3178 167.785 32.9164L175.392 35.7693ZM175.112 38.1155C175.112 36.7602 175.275 36.0721 175.375 35.8153L167.802 32.8704C167.183 34.4614 166.987 36.2884 166.987 38.1155H175.112ZM175.704 41.6559C175.429 41.1437 175.112 40.0752 175.112 38.1155H166.987C166.987 40.7753 167.389 43.3511 168.551 45.508L175.704 41.6559ZM177.597 43.8605C176.826 43.327 176.211 42.6342 175.736 41.7156L168.519 45.4484C169.584 47.5068 171.073 49.2264 172.972 50.5408L177.597 43.8605ZM179.288 44.524C179.014 44.524 178.453 44.4306 177.538 43.8204L173.031 50.5808C174.887 51.8185 176.995 52.649 179.288 52.649V44.524ZM179.086 44.6502C179.248 44.5602 179.368 44.5289 179.406 44.5205C179.442 44.5127 179.41 44.524 179.288 44.524V52.649C180.459 52.649 181.788 52.4438 183.031 51.7528L179.086 44.6502ZM177.766 47.2006C177.766 46.3366 178.096 45.66 178.416 45.2433C178.699 44.8751 178.958 44.724 178.968 44.718L183.149 51.6851C184.045 51.1473 185.891 49.7504 185.891 47.2006H177.766ZM178.765 49.4571C179.048 49.5648 178.898 49.5582 178.623 49.2955C178.465 49.1458 178.243 48.8892 178.061 48.5078C177.872 48.1114 177.766 47.6619 177.766 47.2006H185.891C185.891 43.7535 182.862 42.3231 181.658 41.8644L178.765 49.4571ZM173.916 42.5041C173.916 43.9541 174.291 45.4412 175.22 46.7556C176.134 48.0476 177.382 48.8863 178.658 49.4146L181.765 41.9069C181.553 41.8193 181.684 41.8239 181.854 42.0637C181.934 42.177 181.987 42.2954 182.017 42.3966C182.045 42.4928 182.041 42.537 182.041 42.5041H173.916ZM174.102 40.3063C174.002 41.1063 173.916 41.9084 173.916 42.5041H182.041C182.041 42.5349 182.041 42.4607 182.063 42.2174C182.083 41.996 182.116 41.698 182.164 41.3141L174.102 40.3063ZM175.905 35.2922C174.861 36.7542 174.364 38.5272 174.114 40.2149L182.152 41.4056C182.227 40.8968 182.318 40.5363 182.401 40.2944C182.484 40.05 182.54 39.9821 182.517 40.0148L175.905 35.2922ZM179.935 32.0181C178.407 32.782 176.984 33.8204 175.935 35.2511L182.487 40.0559C182.567 39.9468 182.838 39.6507 183.568 39.2853L179.935 32.0181ZM189.22 30.5883C185.686 30.5883 182.485 30.9063 180.136 31.9242L183.367 39.3793C184.098 39.0626 185.875 38.7133 189.22 38.7133V30.5883ZM200.199 32.4031C197.451 31.0292 193.578 30.5883 189.22 30.5883V38.7133C193.382 38.7133 195.617 39.1964 196.565 39.6703L200.199 32.4031ZM204.041 36.7462C203.315 35.0521 202.147 33.4935 200.374 32.4959L196.39 39.5775C196.344 39.5513 196.333 39.5314 196.358 39.5614C196.389 39.598 196.471 39.7094 196.573 39.9468L204.041 36.7462ZM205.909 51.6662C205.909 48.2419 205.778 45.2953 205.497 42.8652C205.225 40.5109 204.781 38.3326 203.99 36.6332L196.623 40.0597C196.859 40.5675 197.185 41.7126 197.426 43.7983C197.658 45.808 197.784 48.4178 197.784 51.6662H205.909ZM204.392 65.9626C205.488 62.6742 205.909 57.765 205.909 51.6662H197.784C197.784 57.6809 197.333 61.4462 196.684 63.3932L204.392 65.9626ZM190.914 74.0529C193.906 74.0529 196.734 73.5426 199.133 72.2189C201.624 70.8436 203.391 68.7294 204.357 66.0618L196.718 63.2941C196.401 64.1682 195.922 64.7102 195.206 65.1057C194.396 65.5528 193.054 65.9279 190.914 65.9279V74.0529ZM190.606 74.0529H190.914V65.9279H190.606V74.0529ZM183.553 72.3921C185.764 73.4973 188.131 74.0529 190.606 74.0529V65.9279C189.384 65.9279 188.262 65.6623 187.187 65.1249L183.553 72.3921ZM181.057 71.1821L183.598 72.414L187.143 65.1031L184.602 63.8712L181.057 71.1821ZM181.801 72.2022L184.188 71.3553L181.471 63.698L179.084 64.545L181.801 72.2022ZM171.665 73.283C175.919 73.283 179.535 73.0334 181.841 72.1878L179.044 64.5594C178.271 64.843 176.035 65.158 171.665 65.158V73.283ZM162.676 72.5649C164.931 73.0804 167.998 73.283 171.665 73.283V65.158C168.147 65.158 165.824 64.95 164.487 64.6442L162.676 72.5649ZM156.038 69.6898C158.177 71.0958 160.421 72.1017 162.762 72.5836L164.4 64.6255C163.251 64.3888 161.953 63.8549 160.5 62.8997L156.038 69.6898ZM151.127 65.5131C152.969 67.3028 154.62 68.7449 156.015 69.675L160.522 62.9146C159.762 62.4075 158.539 61.3858 156.788 59.6852L151.127 65.5131ZM146.804 60.695C147.784 62.1646 149.313 63.8036 151.17 65.555L156.744 59.6433C155.009 58.007 154.022 56.8743 153.565 56.1881L146.804 60.695ZM144.107 54.8117C144.857 57.0333 145.726 59.0067 146.76 60.6273L153.609 56.2558C153.047 55.3757 152.43 54.0625 151.805 52.2116L144.107 54.8117ZM149.183 59.2041C150.033 58.0278 150.816 56.7702 151.534 55.4358L144.378 51.5874C143.819 52.6271 143.225 53.5776 142.599 54.4434L149.183 59.2041ZM143.406 65.4524C145.854 63.1723 147.82 61.0826 149.179 59.2097L142.603 54.4378C141.687 55.7002 140.15 57.3814 137.868 59.5073L143.406 65.4524ZM137.347 70.241C139.021 69.3313 141.094 67.6094 143.408 65.4503L137.866 59.5094C135.56 61.661 134.146 62.7333 133.468 63.1014L137.347 70.241ZM122.583 73.9065C128.42 73.4964 133.428 72.3585 137.339 70.2452L133.476 63.0972C130.973 64.4501 127.241 65.4342 122.014 65.8015L122.583 73.9065ZM117.301 74.0433C118.635 74.1357 120.452 74.0693 122.608 73.9047L121.989 65.8033C119.904 65.9625 118.576 65.9872 117.862 65.9377L117.301 74.0433ZM113.289 73.4345C115.134 73.7587 116.577 73.9932 117.301 74.0433L117.862 65.9377C117.871 65.9383 117.806 65.9333 117.627 65.9098C117.462 65.8881 117.242 65.8564 116.962 65.8129C116.402 65.7259 115.649 65.5998 114.696 65.4322L113.289 73.4345ZM95.7509 59.4374C97.6333 67.2693 104.246 71.6137 113.19 73.4158L114.795 65.4509C107.4 63.9609 104.485 61.0084 103.651 57.5387L95.7509 59.4374ZM95.5394 48.5491C95.4171 51.1672 95.3618 53.3551 95.3802 55.089C95.3975 56.719 95.4786 58.2612 95.743 59.404L103.659 57.5721C103.659 57.5721 103.659 57.5718 103.659 57.5712C103.658 57.5706 103.658 57.5697 103.658 57.5684C103.657 57.5659 103.657 57.5623 103.656 57.5575C103.654 57.5478 103.651 57.534 103.648 57.5157C103.642 57.4787 103.634 57.4279 103.625 57.3616C103.607 57.2274 103.588 57.0492 103.571 56.8209C103.537 56.3613 103.513 55.7604 103.505 55.0027C103.489 53.4868 103.537 51.47 103.656 48.9284L95.5394 48.5491ZM100.752 58.1896C101.836 55.9183 102.753 53.0427 103.551 49.6749L95.6443 47.8026C94.9138 50.8873 94.1563 53.1457 93.4194 54.6899L100.752 58.1896ZM95.4528 65.6652C97.6772 63.3822 99.4619 60.8926 100.752 58.1896L93.4194 54.6899C92.5536 56.5038 91.31 58.2744 89.6334 59.9951L95.4528 65.6652ZM87.8968 71.1544C90.5269 69.9708 93.0272 68.0913 95.4157 65.7028L89.6705 59.9575C87.7474 61.8806 86.0388 63.0807 84.5626 63.745L87.8968 71.1544ZM78.2786 73.6348C82.0757 73.1466 85.3731 72.3541 87.9728 71.1193L84.4867 63.7801C82.9801 64.4958 80.6314 65.1404 77.2425 65.5762L78.2786 73.6348ZM73.449 73.976C74.8952 73.976 76.5075 73.8562 78.2644 73.6366L77.2566 65.5744C75.7285 65.7654 74.4665 65.851 73.449 65.851V73.976ZM68.4795 73.6366C70.2513 73.8581 71.9117 73.976 73.449 73.976V65.851C72.3172 65.851 71.0005 65.7635 69.4873 65.5744L68.4795 73.6366ZM61.6006 72.4015C62.9759 72.8358 65.3921 73.2318 68.4551 73.6335L69.5117 65.5775C66.3126 65.1579 64.6225 64.8353 64.0473 64.6537L61.6006 72.4015ZM49.3494 63.9234C52.4741 67.7833 56.5504 70.5797 61.443 72.3482L64.2049 64.707C60.5771 63.3957 57.7754 61.4186 55.6645 58.8112L49.3494 63.9234ZM42.9906 49.3581C44.2117 55.0749 46.2649 59.9762 49.3056 63.8683L55.7083 58.8662C53.6162 56.1884 51.9738 52.5178 50.9364 47.6609L42.9906 49.3581ZM42.6263 47.7257C42.7628 48.3085 42.8833 48.8485 42.9881 49.3464L50.9389 47.6726C50.8197 47.1065 50.6856 46.5061 50.537 45.8721L42.6263 47.7257ZM43.409 44.2615C42.8487 44.962 42.24 45.6448 41.5812 46.3096L47.3524 52.0288C48.2079 51.1655 49.0091 50.268 49.7543 49.3362L43.409 44.2615ZM41.5593 46.3319C39.0393 48.9142 36.3437 50.6547 33.4731 51.6661L36.1731 59.3293C40.3493 57.858 44.0828 55.3795 47.3743 52.0065L41.5593 46.3319ZM33.384 51.6986C33.2585 51.7462 33.0975 51.8029 32.8962 51.8683L35.4095 59.5948C35.706 59.4984 35.9918 59.3992 36.2621 59.2968L33.384 51.6986ZM32.9429 51.8535C31.5408 52.2909 29.4849 53.3754 28.8181 55.8478L36.6629 57.9633C36.4934 58.5918 36.135 59.0561 35.7984 59.3359C35.5055 59.5793 35.2978 59.63 35.3629 59.6097L32.9429 51.8535ZM28.8181 55.8478C28.6006 56.6545 28.5587 57.67 28.5389 58.4014C28.5146 59.2991 28.5194 60.4447 28.5484 61.8136L36.6716 61.6411C36.6437 60.3292 36.6417 59.3308 36.6609 58.6212C36.6706 58.2653 36.6847 58.0186 36.6984 57.8614C36.7166 57.6537 36.7227 57.7417 36.6629 57.9633L28.8181 55.8478ZM28.5508 61.8911C28.5766 62.5294 28.5859 62.9991 28.5836 63.3216L36.7084 63.3806C36.712 62.8755 36.6974 62.2627 36.6692 61.5636L28.5508 61.8911ZM28.584 63.4151C28.6278 66.1986 28.2275 67.6499 27.8814 68.2786L34.9995 72.1964C36.3567 69.7305 36.76 66.5909 36.708 63.2871L28.584 63.4151ZM27.8353 68.3647C27.5801 68.856 26.8882 69.6601 25.0922 70.5318L28.6397 77.8414C31.3417 76.5301 33.6994 74.7015 35.0455 72.1102L27.8353 68.3647ZM24.9746 70.5912C24.3151 70.9382 23.1538 71.308 21.2816 71.5282L22.2309 79.5976C24.6408 79.3141 26.886 78.7664 28.7573 77.782L24.9746 70.5912ZM21.2816 71.5282C20.3356 71.6395 19.5364 71.6334 18.8649 71.547L17.8287 79.6057C19.2563 79.7893 20.7301 79.7741 22.2309 79.5976L21.2816 71.5282ZM18.972 71.5623C17.8562 71.3885 17.0361 70.9209 16.3365 70.0844C15.5674 69.1649 14.8088 67.6245 14.2959 65.1523L6.34032 66.803C7.02072 70.0821 8.19701 73.0172 10.1042 75.2973C12.0808 77.6604 14.6783 79.1165 17.7216 79.5905L18.972 71.5623ZM14.2961 65.1536C13.2612 60.1574 11.8504 50.1617 10.0666 34.9978L1.99726 35.947C3.77546 51.0635 5.22208 61.4045 6.34004 66.8016L14.2961 65.1536ZM10.0666 34.9978C9.64541 31.4171 9.34095 28.6095 9.15052 26.5615C9.05519 25.5361 8.99057 24.7236 8.95378 24.1115C8.93541 23.8058 8.92498 23.5661 8.92052 23.3851C8.91577 23.1924 8.91916 23.1163 8.91897 23.1198L0.806298 22.6724C0.753386 23.6318 0.873475 25.303 1.06042 27.3136C1.25976 29.4577 1.57295 32.34 1.99726 35.947L10.0666 34.9978ZM8.92133 23.0719C9.05163 20.063 9.77096 18.2831 10.6143 17.2462L4.31082 12.1196C1.99354 14.9689 0.979586 18.6645 0.803938 22.7204L8.92133 23.0719ZM10.6153 17.2449C11.5419 16.1046 13.5053 14.7513 17.1677 13.5112L14.5619 5.81538C10.2719 7.26797 6.63376 9.26102 4.30977 12.1209L10.6153 17.2449ZM17.1383 13.521C19.0614 12.8862 21.0604 12.4449 23.1403 12.2002L22.1911 4.13088C19.5812 4.4379 17.0462 4.99514 14.5913 5.80556L17.1383 13.521ZM23.1403 12.2002C27.9221 11.6377 31.9814 12.0904 35.427 13.3953L38.3045 5.7969C33.42 3.9471 28.0125 3.44609 22.1911 4.13088L23.1403 12.2002ZM35.5431 13.4372C36.4192 13.7389 37.8033 14.487 39.7635 15.948L44.6191 9.43354C42.3872 7.76991 40.221 6.45484 38.1884 5.75495L35.5431 13.4372ZM39.8108 15.9827C41.6309 17.2989 42.8898 18.4111 43.6946 19.3131L49.7573 13.9039C48.4209 12.4061 46.6567 10.9064 44.5718 9.39878L39.8108 15.9827ZM42.9212 15.1499C42.8885 15.2578 42.8563 15.3664 42.8246 15.4756L50.6273 17.7414C50.6506 17.6611 50.6742 17.5817 50.6979 17.5033L42.9212 15.1499ZM47.1239 7.958C45.1304 10.0179 43.7135 12.4421 42.9106 15.1855L50.7085 17.4678C51.1374 16.0022 51.8763 14.7308 52.9625 13.6083L47.1239 7.958ZM54.3185 3.75604C51.5914 4.4194 49.2074 5.87368 47.1706 7.91052L52.9158 13.6558C54.0614 12.5102 55.1677 11.9114 56.2389 11.6508L54.3185 3.75604ZM57.8195 3.40997C56.6055 3.40997 55.3783 3.49102 54.2934 3.76223L56.264 11.6446C56.411 11.6079 56.8776 11.535 57.8195 11.535V3.40997ZM64.2123 4.17218C62.2781 3.63861 60.1255 3.40997 57.8195 3.40997V11.535C59.6197 11.535 61.0088 11.717 62.0516 12.0046L64.2123 4.17218ZM68.9217 6.70167C67.5168 5.56434 65.9601 4.67139 64.248 4.18221L62.0159 11.9946C62.4596 12.1214 63.0587 12.409 63.8095 13.0168L68.9217 6.70167ZM72.4376 10.6466C71.5088 9.14625 70.3209 7.8343 68.9218 6.70168L63.8095 13.0168C64.5662 13.6293 65.1235 14.2679 65.5292 14.9233L72.4376 10.6466ZM74.0753 14.9133C73.9157 13.8886 73.4181 12.7288 73.1986 12.2237C73.0502 11.8822 72.9088 11.5767 72.8053 11.3579C72.7531 11.2476 72.7093 11.1568 72.6777 11.0918C72.6618 11.0592 72.649 11.0329 72.6395 11.0136C72.6347 11.0039 72.6308 10.996 72.6278 10.99C72.6263 10.9869 72.625 10.9843 72.624 10.9822C72.6235 10.9812 72.623 10.9802 72.6226 10.9794C72.6224 10.979 72.6222 10.9786 72.622 10.9783C72.622 10.9781 72.6218 10.9779 72.6218 10.9778C72.6217 10.9776 72.6216 10.9773 68.9834 12.785C65.3452 14.5926 65.3451 14.5924 65.345 14.5922C65.345 14.5921 65.3449 14.5919 65.3448 14.5918C65.3447 14.5916 65.3446 14.5914 65.3445 14.5912C65.3443 14.5908 65.3442 14.5906 65.3441 14.5904C65.344 14.5902 65.3441 14.5903 65.3444 14.5909C65.345 14.5921 65.3464 14.595 65.3486 14.5995C65.353 14.6085 65.3606 14.6239 65.3708 14.645C65.3914 14.6873 65.4225 14.7518 65.461 14.8331C65.5389 14.9976 65.6421 15.221 65.7466 15.4616C65.8537 15.7079 65.9474 15.9387 66.0144 16.125C66.1006 16.3645 66.0757 16.3468 66.0472 16.1642L74.0753 14.9133ZM70.3692 26.3356C74.4275 26.5209 74.4275 26.5206 74.4275 26.5204C74.4276 26.5202 74.4276 26.5199 74.4276 26.5197C74.4276 26.5191 74.4276 26.5185 74.4277 26.5178C74.4277 26.5163 74.4278 26.5145 74.4279 26.5122C74.4281 26.5076 74.4284 26.5014 74.4287 26.4936C74.4294 26.478 74.4304 26.456 74.4315 26.4278C74.4339 26.3714 74.4372 26.2905 74.4411 26.1874C74.4488 25.9813 74.459 25.686 74.4692 25.3206C74.4894 24.5912 74.5098 23.5757 74.51 22.4287C74.5105 20.203 74.437 17.2343 74.0754 14.9133L66.0472 16.1641C66.3049 17.8183 66.3855 20.2481 66.385 22.4271C66.3848 23.4824 66.366 24.4208 66.3473 25.0947C66.3379 25.431 66.3286 25.6997 66.3218 25.8821C66.3184 25.9733 66.3155 26.0428 66.3136 26.0884C66.3127 26.1111 66.312 26.1279 66.3115 26.1383C66.3113 26.1435 66.3111 26.1472 66.311 26.1492C66.311 26.1502 66.311 26.1508 66.3109 26.151C66.3109 26.1511 66.3109 26.1511 66.3109 26.151C66.3109 26.151 66.311 26.1508 66.311 26.1508C66.311 26.1506 66.311 26.1504 70.3692 26.3356ZM74.961 37.6778C75.1151 38.0012 75.0639 38.0576 74.9637 37.3937C74.8836 36.8628 74.8029 36.0957 74.7296 35.0577C74.5837 32.9896 74.4823 30.0757 74.4314 26.2811L66.3071 26.3902C66.3588 30.2435 66.4628 33.335 66.6248 35.6298C66.7055 36.7733 66.8045 37.7771 66.9297 38.6064C67.0348 39.3026 67.2146 40.3086 67.6253 41.171L74.961 37.6778ZM73.064 36.9017C73.8747 36.9017 74.4769 37.2444 74.7866 37.5137C75.0342 37.729 75.047 37.8481 74.9268 37.6076L67.6595 41.2412C68.3407 42.6036 69.965 45.0267 73.064 45.0267V36.9017ZM71.2782 37.6076C71.1723 37.8195 71.1978 37.6803 71.4641 37.4584C71.6106 37.3363 71.8301 37.1898 72.1253 37.0763C72.4263 36.9605 72.7477 36.9017 73.064 36.9017V45.0267C76.1148 45.0267 77.7905 42.7511 78.5454 41.2412L71.2782 37.6076ZM71.7736 26.2045C71.7226 30.025 71.6213 32.9586 71.4752 35.0401C71.4019 36.0849 71.3212 36.8571 71.2409 37.3917C71.1403 38.061 71.0888 38.0035 71.244 37.6778L78.5797 41.171C78.9914 40.3063 79.1709 39.2961 79.2757 38.5988C79.4007 37.7667 79.4996 36.7585 79.5803 35.6089C79.7422 33.3019 79.8461 30.1916 79.8979 26.3128L71.7736 26.2045ZM72.1065 15.086C71.8095 17.7344 71.731 20.5794 71.7221 22.7111C71.7176 23.7883 71.7309 24.7073 71.7454 25.3599C71.7527 25.6866 71.7603 25.9475 71.7661 26.1293C71.7691 26.2202 71.7716 26.2914 71.7734 26.3411C71.7743 26.366 71.7751 26.3856 71.7756 26.3996C71.7759 26.4066 71.7761 26.4122 71.7763 26.4164C71.7764 26.4185 71.7764 26.4203 71.7765 26.4216C71.7765 26.4223 71.7765 26.4229 71.7766 26.4235C71.7766 26.4237 71.7766 26.424 71.7766 26.4242C71.7766 26.4245 71.7766 26.4247 75.8357 26.2587C79.8948 26.0926 79.8948 26.0928 79.8948 26.093C79.8948 26.093 79.8949 26.0932 79.8949 26.0933C79.8949 26.0935 79.8949 26.0936 79.8949 26.0935C79.8949 26.0935 79.8949 26.0931 79.8948 26.0924C79.8948 26.0909 79.8947 26.0881 79.8945 26.0839C79.8942 26.0755 79.8936 26.0617 79.8929 26.0426C79.8915 26.0044 79.8894 25.9453 79.8869 25.867C79.8818 25.7102 79.875 25.4766 79.8684 25.1794C79.8552 24.5843 79.8429 23.7379 79.8471 22.7449C79.8554 20.7361 79.9309 18.2211 80.1809 15.9914L72.1065 15.086ZM77.2986 12.631C73.9892 10.2747 73.9887 10.2754 73.9882 10.2761C73.988 10.2763 73.9875 10.2771 73.9872 10.2776C73.9865 10.2786 73.9857 10.2796 73.985 10.2806C73.9835 10.2827 73.982 10.2849 73.9804 10.2872C73.9772 10.2917 73.9737 10.2966 73.97 10.3019C73.9626 10.3125 73.9542 10.3245 73.9449 10.338C73.9262 10.365 73.9038 10.3979 73.8781 10.4364C73.8268 10.5131 73.7619 10.6129 73.6875 10.7331C73.54 10.9715 73.3485 11.3011 73.1497 11.6999C72.7754 12.4505 72.2663 13.6608 72.1065 15.086L80.1809 15.9914C80.1922 15.8905 80.2606 15.6469 80.421 15.3253C80.4895 15.1878 80.5545 15.0767 80.5969 15.0083C80.6174 14.9751 80.6307 14.955 80.6339 14.9503C80.6354 14.9479 80.6343 14.9497 80.6301 14.9557C80.6281 14.9587 80.6252 14.9628 80.6215 14.9681C80.6197 14.9707 80.6176 14.9736 80.6154 14.9768C80.6142 14.9784 80.613 14.9801 80.6118 14.9818C80.6112 14.9827 80.6106 14.9836 80.6099 14.9845C80.6096 14.9849 80.6091 14.9856 80.6089 14.9859C80.6084 14.9866 80.6079 14.9873 77.2986 12.631ZM84.4558 3.70102C79.9572 4.48337 76.2629 6.68111 73.8685 10.4542L80.7287 14.8077C81.7219 13.2427 83.2631 12.1554 85.8479 11.7059L84.4558 3.70102ZM88.0006 3.40997C86.8927 3.40997 85.7391 3.50741 84.5492 3.68589L85.7545 11.721C86.6177 11.5915 87.3633 11.535 88.0006 11.535V3.40997ZM99.0344 7.83353C96.0539 4.85302 92.2707 3.40997 88.0006 3.40997V11.535C90.3004 11.535 91.9581 12.2477 93.2892 13.5788L99.0344 7.83353ZM103.836 17.4304C103.056 13.6495 101.538 10.3369 99.0344 7.83353L93.2892 13.5788C94.3788 14.6684 95.3244 16.386 95.8787 19.0724L103.836 17.4304ZM104.966 30.9214C104.855 25.2109 104.502 20.6589 103.836 17.4304L95.8787 19.0724C96.3896 21.5481 96.7344 25.4951 96.8425 31.0787L104.966 30.9214ZM97.3137 26.4117C97.1567 27.7576 97.0061 29.1525 96.8619 30.5964L104.947 31.4038C105.087 30.0014 105.232 28.6513 105.384 27.3533L97.3137 26.4117ZM101.56 8.4302C100.268 10.1224 99.5477 12.1806 98.9784 14.8329C98.4086 17.4873 97.907 21.1732 97.3121 26.4253L105.386 27.3397C105.982 22.0753 106.447 18.7545 106.922 16.538C107.399 14.3192 107.803 13.642 108.018 13.3601L101.56 8.4302ZM112.168 2.79934C109.859 3.28589 107.829 3.79298 106.089 4.63892C104.174 5.5697 102.797 6.80988 101.56 8.4302L108.018 13.3601C108.624 12.5663 109.057 12.2303 109.641 11.9463C110.4 11.5775 111.557 11.2314 113.843 10.7498L112.168 2.79934ZM120.416 2.28927C117.617 2.09547 114.878 2.2579 112.21 2.79072L113.801 10.7584C115.725 10.3742 117.739 10.2483 119.855 10.3949L120.416 2.28927ZM122.544 2.51936C121.596 2.4035 120.849 2.31924 120.416 2.28927L119.855 10.3949C120.037 10.4074 120.566 10.463 121.557 10.5843L122.544 2.51936ZM124.789 2.66918L122.331 2.49902L121.77 10.6046L124.228 10.7748L124.789 2.66918ZM132.277 3.513C131.009 3.30869 128.504 3.0301 124.903 2.67869L124.114 10.7653C127.77 11.1221 130.013 11.378 130.984 11.5345L132.277 3.513ZM137.07 4.97671C135.427 4.2795 133.817 3.76121 132.277 3.513L130.984 11.5345C131.683 11.6471 132.642 11.9241 133.897 12.4566L137.07 4.97671ZM150.3 15.4209C146.698 10.5991 142.263 7.05495 136.994 4.94522L133.974 12.4881C137.716 13.9864 140.989 16.5326 143.791 20.2835L150.3 15.4209ZM153.14 19.7713C152.313 18.2744 151.359 16.8166 150.282 15.3975L143.808 20.3069C144.663 21.4345 145.401 22.5659 146.028 23.7005L153.14 19.7713ZM153.31 10.2297C150.324 13.0762 147.878 16.2791 145.994 19.8338L153.174 23.638C154.633 20.8844 156.539 18.3766 158.916 16.1101L153.31 10.2297ZM171.542 0.968745C164.155 2.63489 157.984 5.67365 153.277 10.2607L158.949 16.0791C162.352 12.7616 167.063 10.3082 173.329 8.89462L171.542 0.968745ZM128.418 24.4968C127.893 24.1872 126.798 23.5688 125.509 23.4796L124.948 31.5852C124.684 31.5669 124.486 31.5212 124.373 31.4904C124.256 31.4586 124.181 31.4287 124.154 31.4178C124.108 31.3988 124.147 31.4111 124.291 31.4957L128.418 24.4968ZM132.092 30.8811C131.863 29.7183 131.537 28.5743 131.049 27.5523C130.57 26.5489 129.813 25.4084 128.586 24.6015L124.123 31.391C123.683 31.1017 123.611 30.8318 123.717 31.0522C123.813 31.254 123.97 31.687 124.121 32.4542L132.092 30.8811ZM132.595 37.921C132.766 35.4558 132.599 33.0594 132.065 30.7517L124.149 32.5836C124.486 34.0408 124.609 35.6262 124.489 37.3599L132.595 37.921ZM132.145 41.2424C132.381 40.3141 132.51 39.1436 132.595 37.921L124.489 37.3599C124.411 38.4928 124.317 39.0562 124.27 39.2403L132.145 41.2424ZM130.078 46.3879C131.145 44.9175 131.763 43.003 132.176 41.1086L124.239 39.3741C124.08 40.0996 123.918 40.6454 123.769 41.0406C123.696 41.2354 123.632 41.3778 123.581 41.477C123.53 41.577 123.501 41.6175 123.502 41.6161L130.078 46.3879ZM125.098 49.3361C127.068 49.0618 128.884 48.098 130.121 46.3277L123.459 41.6762C123.528 41.5772 123.645 41.4593 123.798 41.3706C123.941 41.2871 124.025 41.2822 123.978 41.2888L125.098 49.3361ZM123.248 49.4497C123.98 49.5004 124.687 49.4121 125.249 49.3123L123.827 41.3126C123.772 41.3225 123.727 41.3293 123.694 41.3338C123.66 41.3384 123.641 41.3402 123.634 41.3408C123.627 41.3414 123.638 41.3402 123.664 41.3398C123.678 41.3395 123.697 41.3394 123.721 41.34C123.744 41.3405 123.774 41.3417 123.809 41.3442L123.248 49.4497ZM117.147 45.0154C118.222 47.2914 120.224 49.2404 123.248 49.4497L123.809 41.3442C123.887 41.3495 124.001 41.3687 124.135 41.4191C124.269 41.4699 124.383 41.5377 124.47 41.6055C124.639 41.7378 124.611 41.7936 124.493 41.5446L117.147 45.0154ZM116.141 37.5536C115.96 40.1609 116.147 42.7223 117.095 44.9008L124.545 41.6592C124.339 41.1851 124.108 40.1161 124.246 38.1148L116.141 37.5536ZM120.551 25.6411C118.968 27.0191 117.974 28.8828 117.333 30.818C116.686 32.7696 116.314 35.0454 116.141 37.5536L124.246 38.1148C124.392 36.0146 124.684 34.4646 125.045 33.3732C125.412 32.2653 125.771 31.8688 125.885 31.7694L120.551 25.6411ZM125.509 23.4796C124.04 23.3779 122.878 24 122.372 24.2952C121.727 24.6714 121.11 25.1541 120.551 25.6411L125.885 31.7694C126.06 31.6172 126.199 31.5052 126.305 31.4257C126.358 31.3866 126.398 31.3583 126.426 31.3391C126.455 31.3196 126.468 31.3122 126.466 31.3135C126.464 31.3145 126.44 31.3287 126.395 31.35C126.35 31.371 126.273 31.405 126.166 31.441C125.977 31.5043 125.542 31.6263 124.948 31.5852L125.509 23.4796Z" fill="#03445F" mask="url(#path-1-outside-1_2021_1926)"/>
</svg>
