<svg width="245" height="72" viewBox="0 0 245 72" fill="none" xmlns="http://www.w3.org/2000/svg">
<mask id="mask0_2021_1961" style="mask-type:alpha" maskUnits="userSpaceOnUse" x="0" y="0" width="245" height="72">
<path fill-rule="evenodd" clip-rule="evenodd" d="M168.435 0.931681C169.821 0.623711 171.335 0.469727 172.978 0.469727C175.852 0.469727 178.804 0.931681 181.832 1.85559C184.861 2.7795 187.427 4.01138 189.531 5.55124C190.077 5.94654 190.597 6.37622 191.091 6.8403C191.549 6.35678 192.064 5.88838 192.635 5.43512C194.175 4.25457 195.741 3.45898 197.332 3.04835C198.102 2.89436 199.077 2.81737 200.258 2.81737C202.875 2.81737 204.877 3.12534 206.263 3.74128C207.238 4.15191 208.496 5.12715 210.036 6.667C211.627 8.20685 212.936 9.72104 213.962 11.2096C214.784 12.4928 215.323 13.1344 215.579 13.1344C215.784 13.1344 217.401 11.7228 220.43 8.89978C223.458 6.02539 225.511 4.33156 226.589 3.81827C227.821 3.25366 229.386 2.97136 231.286 2.97136C233.287 2.97136 234.904 3.27932 236.136 3.89526C238.343 4.97316 240.217 6.59001 241.757 8.7458C243.348 10.9016 244.272 13.16 244.528 15.5211C244.58 15.7778 244.605 16.1628 244.605 16.676C244.605 19.7044 243.887 22.3222 242.45 24.5293C241.68 25.7612 240.268 27.4037 238.215 29.4568C236.213 31.5099 234.211 33.3064 232.21 34.8463L228.745 37.618V41.6216C228.745 48.243 228.257 53.8378 227.282 58.406C226.307 62.7176 224.048 65.6947 220.507 67.3372C219.172 67.9531 217.17 68.2611 214.501 68.2611C212.14 68.2611 210.369 68.0044 209.189 67.4911C208.06 67.0292 206.905 66.0796 205.724 64.6424C204.338 62.9486 203.44 61.2034 203.029 59.4069C202.67 57.6104 202.413 54.0688 202.259 48.782C202.105 42.6225 201.849 39.1579 201.49 38.388C201.079 37.6694 200.104 36.5401 198.564 35.0003C197.178 33.5117 195.561 31.5356 193.713 29.0718C193.076 28.2222 192.512 27.4457 192.021 26.7426C190.923 27.2943 189.631 27.6731 188.146 27.8791C186.4 28.0844 185.322 28.1871 184.912 28.1871C182.91 28.1871 181.088 27.3658 179.445 25.7233C178.213 24.3888 177.29 23.7215 176.674 23.7215C175.082 23.7215 173.312 24.4144 171.361 25.8003C169.462 27.1862 168.204 28.7003 167.588 30.3429C167.229 31.2668 167.05 32.5243 167.05 34.1155C167.05 36.4253 167.409 38.2474 168.127 39.582C168.897 41.0705 169.95 42.2767 171.284 43.2006C172.67 44.1245 174.005 44.5865 175.288 44.5865C176.006 44.5865 176.597 44.4582 177.059 44.2015C177.572 43.8936 177.829 43.5599 177.829 43.2006C177.829 42.5847 177.29 42.0714 176.212 41.6608C174.723 41.0448 173.979 39.9926 173.979 38.5041C173.979 38.1961 174.03 37.6315 174.133 36.8102C174.338 35.4244 174.697 34.3721 175.211 33.6535C175.775 32.8836 176.622 32.2163 177.752 31.6517C179.291 30.9845 181.781 30.6508 185.22 30.6508C189.48 30.6508 192.534 31.1128 194.382 32.0367C195.203 32.4986 195.845 33.2686 196.307 34.3465C197.333 36.5536 197.847 40.9935 197.847 47.6662C197.847 53.7229 197.41 58.0602 196.538 60.6779C195.255 64.2196 192.046 65.9904 186.914 65.9904H186.606C184.758 65.9904 183.013 65.5798 181.37 64.7585L178.829 63.5267L176.443 64.3736C174.903 64.9382 171.977 65.2205 167.665 65.2205C164.072 65.2205 161.378 65.0152 159.581 64.6046C157.836 64.2453 156.065 63.4753 154.269 62.2948C153.191 61.5762 151.754 60.3443 149.957 58.5991C148.161 56.9053 146.903 55.5194 146.185 54.4415C145.386 53.1912 144.644 51.5479 143.956 49.5116C143.317 50.6987 142.629 51.8027 141.891 52.8238C140.753 54.3914 139.002 56.2768 136.637 58.4798C134.327 60.6352 132.584 62.0323 131.408 62.6712C128.2 64.4043 123.831 65.4653 118.299 65.854C116.178 66.0159 114.606 66.0614 113.581 65.9905C113.121 65.9586 111.924 65.7729 109.993 65.4333C101.823 63.7873 97.0591 60.1388 95.7009 54.4881C95.3909 53.1482 95.3564 49.8984 95.5975 44.7388C94.8335 47.965 93.9962 50.532 93.0857 52.4398C92.0078 54.6982 90.4936 56.8283 88.5431 58.8301C86.3873 60.9859 84.2829 62.5258 82.2297 63.4497C80.1766 64.4249 77.3535 65.1435 73.7605 65.6055C72.118 65.8108 70.6808 65.9135 69.449 65.9135C68.1144 65.9135 66.6259 65.8108 64.9834 65.6055C61.8524 65.1949 59.7992 64.8356 58.824 64.5276C54.5637 62.9877 51.1247 60.601 48.507 57.3673C45.9406 54.0823 44.0927 49.7963 42.9635 44.5095C42.8515 43.9775 42.7242 43.4073 42.5817 42.7989C41.9289 43.615 41.224 44.4051 40.4668 45.1692C37.5611 48.1468 34.3465 50.2563 30.8231 51.4977C30.6252 51.5727 30.4018 51.6506 30.1529 51.7316C29.3552 51.9805 28.8845 52.3718 28.7405 52.9055C28.5966 53.4393 28.5531 55.0466 28.61 57.7273C28.637 58.396 28.649 58.9373 28.646 59.3511C28.6939 62.3947 28.2921 64.6902 27.4404 66.2375C26.6398 67.7787 25.115 69.0951 22.866 70.1866C21.6005 70.8523 19.8973 71.3111 17.7563 71.5629C16.5328 71.7068 15.3963 71.7113 14.3468 71.5764C10.1877 70.9286 7.51148 67.729 6.31809 61.9776C5.24165 56.781 3.81293 46.6126 2.03194 31.4724C1.18642 24.2847 0.796648 20.0926 0.862634 18.8961C1.01561 15.3637 1.88225 12.626 3.46256 10.6829C5.08785 8.68283 7.88859 7.00963 11.8648 5.66329C14.0538 4.94065 16.3208 4.44141 18.6657 4.16556C23.9673 3.54192 28.7007 4.01876 32.8658 5.59609C34.3201 6.09689 36.0953 7.12844 38.1913 8.69076C40.1438 10.1027 41.6554 11.4086 42.726 12.6085C42.7535 12.5137 42.7813 12.4198 42.8095 12.3266C43.4255 10.2221 44.5034 8.37433 46.0432 6.78315C47.6344 5.19196 49.3796 4.1654 51.2787 3.70344C51.8946 3.54946 52.7416 3.47247 53.8195 3.47247C55.8726 3.47247 57.6434 3.67778 59.1319 4.0884C60.2098 4.39638 61.2877 4.98665 62.3656 5.85923C63.4435 6.73182 64.3161 7.70706 64.9834 8.78495C64.9834 8.78495 65.9286 10.6875 66.0613 11.5387C66.6807 15.5139 66.3692 22.3356 66.3692 22.3356C66.4719 29.9836 66.7799 34.3465 67.2932 35.4244C67.8064 36.451 68.3967 36.9642 69.064 36.9642C69.7826 36.9642 70.3985 36.451 70.9118 35.4244C71.4251 34.3465 71.7331 29.9579 71.8357 22.2587C71.8357 22.2587 71.5967 16.4168 72.1437 11.5387C72.3148 10.0126 73.2986 8.63097 73.2986 8.63097C74.9924 5.96189 77.6102 4.31938 81.1518 3.70344C82.1784 3.54946 83.128 3.47247 84.0006 3.47247C87.2856 3.47247 90.006 4.55036 92.1618 6.70615C93.9583 8.50265 95.1901 11.0177 95.8574 14.2514C96.4459 17.1035 96.7949 21.353 96.9043 27.0001C97.0464 25.577 97.1946 24.2044 97.3488 22.8825C98.5399 12.366 99.282 8.86926 100.789 6.89517C102.632 4.48101 104.411 3.74273 109.005 2.77455C111.301 2.31606 113.678 2.1719 116.136 2.34206C116.443 2.36334 117.081 2.43325 118.051 2.55181L120.508 2.72198C124.137 3.07609 126.511 3.34335 127.63 3.52375C128.75 3.70415 130.034 4.10179 131.484 4.71665C135.99 6.52068 139.843 9.56586 143.045 13.8522C144.011 15.1256 144.857 16.4201 145.584 17.7359C147.255 14.5818 149.432 11.7264 152.113 9.16989C156.168 5.2176 161.609 2.47153 168.435 0.931681Z" fill="#03445F"/>
</mask>
<g mask="url(#mask0_2021_1961)">
<path d="M197.331 3.04836C198.101 2.89438 199.076 2.81738 200.257 2.81738C202.875 2.81738 204.876 3.12535 206.262 3.7413C207.238 4.15192 208.495 5.12716 210.035 6.66701C211.626 8.20687 212.935 9.72106 213.962 11.2096C214.783 12.4928 215.322 13.1344 215.578 13.1344C215.784 13.1344 217.401 11.7229 220.429 8.8998C223.457 6.02541 225.51 4.33157 226.588 3.81829C227.82 3.25368 229.386 2.97137 231.285 2.97137C233.287 2.97137 234.904 3.27934 236.135 3.89528C238.343 4.97318 240.216 6.59002 241.756 8.74581C243.347 10.9016 244.271 13.1601 244.528 15.5212C244.579 15.7778 244.605 16.1628 244.605 16.6761C244.605 19.7044 243.886 22.3222 242.449 24.5293C241.679 25.7612 240.267 27.4037 238.214 29.4568C236.212 31.51 234.211 33.3065 232.209 34.8463L228.744 37.618V41.6217C228.744 48.243 228.257 53.8378 227.281 58.406C226.306 62.7176 224.048 65.6947 220.506 67.3372C219.171 67.9531 217.17 68.2611 214.501 68.2611C212.139 68.2611 210.369 68.0045 209.188 67.4912C208.059 67.0292 206.904 66.0796 205.723 64.6424C204.338 62.9486 203.439 61.2034 203.029 59.4069C202.669 57.6104 202.413 54.0688 202.259 48.782C202.105 42.6226 201.848 39.1579 201.489 38.388C201.078 37.6694 200.103 36.5401 198.563 35.0003C197.177 33.5118 195.56 31.5356 193.713 29.0719C191.865 26.6081 190.633 24.7603 190.017 23.5284C188.836 21.2699 188.246 18.4725 188.246 15.1362C188.246 12.6211 188.605 10.6706 189.324 9.28477C190.043 7.8989 191.146 6.61569 192.635 5.43513C194.175 4.25458 195.74 3.45899 197.331 3.04836Z" fill="#44B2FF"/>
<path d="M234.97 6.94659C238.631 11.7151 226.697 20.8766 223.036 16.1081C221.618 14.261 223.14 10.7128 226.435 8.18294C229.731 5.65307 233.552 5.09954 234.97 6.94659Z" fill="white"/>
<path d="M207.856 36.321C187.23 14.6897 197.893 4.52518 204.522 1.77425L190.175 -0.339706L180.59 14.0672C183.352 20.9166 195.986 78.129 218.246 68.6968C206.51 67.5996 207.856 46.1305 207.856 36.321Z" fill="#117FCC"/>
<path d="M168.435 0.931681C169.82 0.623711 171.335 0.469727 172.977 0.469727C175.852 0.469727 178.803 0.931681 181.831 1.85559C184.86 2.7795 187.426 4.01138 189.531 5.55124C191.584 7.03976 193.278 9.0159 194.612 11.4797C195.998 13.9434 196.691 16.2789 196.691 18.486C196.691 18.5886 196.665 18.7426 196.614 18.9479C196.614 19.1533 196.614 19.3072 196.614 19.4099C196.152 24.3374 193.329 27.1605 188.145 27.8791C186.4 28.0844 185.322 28.1871 184.911 28.1871C182.909 28.1871 181.087 27.3658 179.445 25.7233C178.213 24.3888 177.289 23.7215 176.673 23.7215C175.082 23.7215 173.311 24.4144 171.36 25.8003C169.461 27.1862 168.204 28.7003 167.588 30.3429C167.228 31.2668 167.049 32.5243 167.049 34.1155C167.049 36.4253 167.408 38.2474 168.127 39.582C168.897 41.0705 169.949 42.2767 171.283 43.2006C172.669 44.1245 174.004 44.5865 175.287 44.5865C176.006 44.5865 176.596 44.4582 177.058 44.2015C177.571 43.8936 177.828 43.5599 177.828 43.2006C177.828 42.5847 177.289 42.0714 176.211 41.6608C174.722 41.0448 173.978 39.9926 173.978 38.5041C173.978 38.1961 174.029 37.6315 174.132 36.8102C174.337 35.4244 174.697 34.3721 175.21 33.6535C175.775 32.8836 176.621 32.2163 177.751 31.6517C179.291 30.9845 181.78 30.6508 185.219 30.6508C189.479 30.6508 192.533 31.1128 194.381 32.0367C195.202 32.4986 195.844 33.2686 196.306 34.3465C197.332 36.5536 197.846 40.9935 197.846 47.6662C197.846 53.7229 197.409 58.0602 196.537 60.6779C195.254 64.2196 192.046 65.9904 186.913 65.9904H186.605C184.757 65.9904 183.012 65.5798 181.369 64.7585L178.829 63.5267L176.442 64.3736C174.902 64.9382 171.976 65.2205 167.665 65.2205C164.072 65.2205 161.377 65.0152 159.58 64.6046C157.835 64.2453 156.064 63.4753 154.268 62.2948C153.19 61.5762 151.753 60.3443 149.956 58.5991C148.16 56.9053 146.902 55.5194 146.184 54.4415C144.644 52.0291 143.309 48.1538 142.18 42.8157C141.667 40.2492 141.41 38.1448 141.41 36.5023C141.41 35.3217 141.436 34.3465 141.487 33.5765C141.949 23.6188 145.491 15.4833 152.112 9.16989C156.167 5.2176 161.608 2.47153 168.435 0.931681Z" fill="#44B2FF"/>
<path d="M189.635 12.4379C186.386 17.4964 173.727 9.36701 176.976 4.30851C178.234 2.34913 182.088 2.58056 185.583 4.82543C189.079 7.07029 190.893 10.4785 189.635 12.4379Z" fill="white"/>
<path d="M152.003 36.4419C152.003 54.1317 158.184 61.8828 169.359 66.1626L152.003 73.5333L139.401 64.0227L136.072 -4.92923C143.443 -5.08774 166.506 -2.64667 176.968 0.77714C159.849 5.05691 152.003 14.3298 152.003 36.4419Z" fill="#117FCC"/>
<path d="M182.404 38.7087C185.606 41.4979 179.381 43.7799 175.869 44.5723C174.579 43.3045 171.974 40.0082 171.867 36.9655C171.734 33.1622 178.403 35.2223 182.404 38.7087Z" fill="#117FCC"/>
<path d="M174.427 20.7591C169.376 22.2944 167.421 27.5605 167.217 31.0379C170.081 31.0379 177.465 30.7004 184.092 29.3504C192.377 27.6628 185.137 17.5035 174.427 20.7591Z" fill="#117FCC"/>
<path fill-rule="evenodd" clip-rule="evenodd" d="M116.134 2.34204C113.676 2.17188 111.299 2.31604 109.004 2.77452C104.409 3.7427 102.63 4.48098 100.787 6.89515C99.2802 8.86924 98.5382 12.366 97.347 22.8824C96.8409 27.2208 96.3999 32.1038 96.0241 37.5316C95.3718 46.9535 95.2635 52.6057 95.6992 54.4881C97.0573 60.1388 101.821 63.7872 109.991 65.4333C111.923 65.7729 113.119 65.9586 113.58 65.9905C114.604 66.0614 116.176 66.0159 118.297 65.854C123.829 65.4652 128.199 64.4043 131.406 62.6712C132.582 62.0323 134.325 60.6352 136.635 58.4798C139 56.2768 140.751 54.3914 141.889 52.8237C143.767 50.2268 145.321 47.093 146.553 43.4223C147.836 39.7552 148.598 36.1807 148.839 32.6987C148.97 30.8041 148.937 29.0524 148.74 27.4438C148.195 22.6726 146.297 18.142 143.044 13.8522C139.842 9.56584 135.988 6.52066 131.482 4.71663C130.033 4.10176 128.748 3.70413 127.629 3.52373C126.509 3.34332 124.135 3.07606 120.507 2.72195L118.049 2.55179C117.079 2.43323 116.441 2.36331 116.134 2.34204ZM123.562 39.7792C125.365 39.9517 127.081 37.4304 127.395 34.1478C127.709 30.8652 126.502 28.0643 124.7 27.8919C122.897 27.7194 121.181 30.2407 120.867 33.5233C120.553 36.8059 121.76 39.6068 123.562 39.7792Z" fill="#44B2FF"/>
<path d="M130.033 56.3827C136.358 52.0818 142.632 44.0871 143.543 34.5239" stroke="white" stroke-width="3.10276" stroke-linecap="round"/>
<path d="M136.187 17.1695C131.86 22.547 118.403 11.7203 122.729 6.34277C124.405 4.25984 128.776 4.99494 132.492 7.98467C136.208 10.9744 137.862 15.0866 136.187 17.1695Z" fill="white"/>
<path d="M143.016 22.6739C140.665 26.0306 135.487 22.4047 137.838 19.048C138.748 17.7479 140.645 17.5055 142.075 18.5068C143.505 19.508 143.926 21.3737 143.016 22.6739Z" fill="white"/>
<path d="M104.635 32.1891C107.52 7.56274 109.156 4.37425 118.515 2.55363L98.2149 -0.310994L88.6291 29.063L89.8384 63.4537L116.014 67.5765C106.26 62.0746 101.599 58.0958 104.635 32.1891Z" fill="#117FCC"/>
<path d="M51.2791 3.70363C51.895 3.54965 52.7419 3.47266 53.8198 3.47266C55.873 3.47266 57.6438 3.67797 59.1323 4.08859C60.2102 4.39657 61.2881 4.98684 62.366 5.85942C63.4439 6.73201 64.3165 7.70725 64.9838 8.78515C64.9838 8.78515 65.929 10.6877 66.0617 11.5389C66.681 15.5141 66.3696 22.3358 66.3696 22.3358C66.4723 29.9838 66.7803 34.3467 67.2935 35.4246C67.8068 36.4511 68.3971 36.9644 69.0644 36.9644C69.783 36.9644 70.3989 36.4511 70.9122 35.4246C71.4255 34.3467 71.7334 29.9581 71.8361 22.2588C71.8361 22.2588 71.5971 16.417 72.1441 11.5389C72.3152 10.0128 73.299 8.63116 73.299 8.63116C74.9928 5.96208 77.6105 4.31957 81.1522 3.70363C82.1788 3.54965 83.1283 3.47266 84.0009 3.47266C87.2859 3.47266 90.0064 4.55055 92.1621 6.70634C93.9586 8.50284 95.1905 11.0179 95.8578 14.2516C96.5251 17.4853 96.8844 22.5155 96.9357 29.3422C96.9357 35.5016 96.6277 40.0185 96.0118 42.8929C95.1392 46.9991 94.1639 50.1815 93.0861 52.4399C92.0082 54.6984 90.494 56.8285 88.5435 58.8303C86.3877 60.9861 84.2832 62.526 82.2301 63.4499C80.177 64.4251 77.3539 65.1437 73.7609 65.6057C72.1184 65.811 70.6812 65.9136 69.4493 65.9136C68.1148 65.9136 66.6263 65.811 64.9838 65.6057C61.8527 65.195 59.7996 64.8358 58.8243 64.5278C54.5641 62.9879 51.1251 60.6012 48.5073 57.3675C45.9409 54.0825 44.0931 49.7965 42.9639 44.5097C42.7586 43.5345 42.5019 42.4309 42.1939 41.199C41.886 39.9671 41.6807 39.1202 41.578 38.6583C41.4754 38.145 41.3727 37.2724 41.27 36.0405C41.2187 34.8086 41.1674 33.1661 41.1161 31.113C41.1161 30.7537 41.0904 30.2661 41.0391 29.6501C41.0391 29.0342 41.0391 28.5722 41.0391 28.2643C41.0391 21.5402 41.6293 16.2278 42.8099 12.3268C43.4258 10.2223 44.5037 8.37452 46.0436 6.78334C47.6348 5.19216 49.3799 4.16559 51.2791 3.70363Z" fill="#44B2FF"/>
<path d="M92.2591 19.3483C92.5148 23.4506 92.6012 29.3748 91.8315 35.466M70.9796 60.7827C77.637 60.7827 83.3355 57.3027 86.5592 53.0172" stroke="white" stroke-width="3.10276" stroke-linecap="round"/>
<path d="M91.9317 15.024C88.5529 17.5084 82.3356 9.05306 85.7143 6.56862C87.023 5.60629 89.4758 6.71896 91.1927 9.05384C92.9095 11.3887 93.2404 14.0616 91.9317 15.024Z" fill="white"/>
<path d="M49.7959 35.4102C47.2667 16.64 48.0646 7.86696 58.4523 3.30266L44.8354 -0.830078L33.5488 5.58227L44.8354 68.8968L72.46 66.5733C58.4523 60.7499 52.267 53.749 49.7959 35.4102Z" fill="#117FCC"/>
<path fill-rule="evenodd" clip-rule="evenodd" d="M18.6657 4.16594C16.3208 4.44179 14.0538 4.94103 11.8648 5.66367C7.88859 7.01001 5.08785 8.68321 3.46256 10.6833C1.88225 12.6264 1.01561 15.3641 0.862634 18.8965C0.796648 20.093 1.18642 24.2851 2.03194 31.4728C3.81293 46.613 5.24165 56.7813 6.31809 61.978C7.51148 67.7294 10.1877 70.929 14.3468 71.5767C15.3963 71.7117 16.5328 71.7072 17.7563 71.5633C19.8973 71.3114 21.6005 70.8527 22.866 70.187C25.115 69.0955 26.6398 67.7791 27.4404 66.2378C28.2921 64.6906 28.6939 62.3951 28.646 59.3515C28.649 58.9377 28.637 58.3964 28.61 57.7277C28.5531 55.0469 28.5966 53.4397 28.7405 52.9059C28.8845 52.3722 29.3552 51.9808 30.1529 51.732C30.4018 51.651 30.6252 51.5731 30.8231 51.4981C34.3465 50.2567 37.5611 48.1472 40.4668 45.1696C43.4235 42.186 45.584 38.805 46.9485 35.0268C48.2289 31.4134 48.7043 28.2049 48.3744 25.4012C48.2905 24.6875 48.202 24.1552 48.1091 23.8044C47.8212 22.2361 47.1631 20.3754 46.1346 18.2224C45.1001 16.0184 44.0371 14.2312 42.9456 12.8608C41.8661 11.5924 40.2813 10.2025 38.1913 8.69114C36.0953 7.12882 34.3201 6.09727 32.8658 5.59648C28.7007 4.01914 23.9673 3.5423 18.6657 4.16594ZM23.9112 32.1752C25.7139 32.0036 26.9877 29.8952 26.7564 27.466C26.5251 25.0368 24.8763 23.2067 23.0737 23.3784C21.2711 23.55 19.9972 25.6584 20.2285 28.0876C20.4598 30.5167 22.1086 32.3468 23.9112 32.1752Z" fill="#44B2FF"/>
<path d="M21.1328 51.6587C26.3593 52.5699 29.5235 52.0384 30.4523 51.6587V56.111C29.2993 56.0765 25.8213 55.1377 21.1328 51.6587Z" fill="#117FCC"/>
<path d="M223.524 41.8654C226.601 39.3979 228.412 38.1301 228.832 37.5239L230.762 40.0133C230.038 40.4544 227.805 42.1276 223.524 41.8654Z" fill="#117FCC"/>
<path d="M76.9192 24.8031C75.4977 35.4405 70.916 37.2345 68.8102 36.955L67.5239 6.09933L78.5423 1.9936C79.0842 5.0363 78.5423 12.6578 76.9192 24.8031Z" fill="#117FCC"/>
<path d="M9.64541 36.779C7.01207 17.4679 5.07745 10.288 15.9933 3.21289L-9.28516 8.31181L1.43885 76.9957L20.4404 71.3357C12.9611 69.4279 12.2787 56.0901 9.64541 36.779Z" fill="#117FCC"/>
<path d="M37.0929 16.3483C33.8728 21.3627 21.3241 13.3042 24.5443 8.28979C25.7916 6.34749 29.6118 6.57691 33.0771 8.80221C36.5423 11.0275 38.3402 14.406 37.0929 16.3483Z" fill="white"/>
<path d="M43.4625 20.4465C41.7529 23.5444 36.9742 20.9073 38.6838 17.8094C39.346 16.6095 40.9526 16.2271 42.2722 16.9553C43.5917 17.6835 44.1247 19.2466 43.4625 20.4465Z" fill="white"/>
<path d="M215.943 63.2075C217.252 63.4284 220.384 63.0749 222.444 59.8943C224.505 56.7136 224.856 48.6294 224.775 44.9849" stroke="white" stroke-width="3.10276" stroke-linecap="round"/>
<path d="M179.818 59.7816C188.173 63.111 192.263 59.8637 193.92 54.432M193.92 38.1685C193.468 35.9307 192.162 33.0897 182.407 34.5677" stroke="white" stroke-width="3.10276" stroke-linecap="round"/>
<path d="M26.2871 47.5335C29.9101 46.5765 38.0584 42.8168 41.6678 35.4341" stroke="white" stroke-width="3.10276" stroke-linecap="round"/>
</g>
</svg>
